<svg width="75" height="75" viewBox="0 0 75 75" fill="none" xmlns="http://www.w3.org/2000/svg">
<circle cx="37.5" cy="37.5" r="37.5" fill="#323C8D"/>
<g clip-path="url(#clip0)">
<path d="M46.8621 41.526C46.6834 40.9209 46.4666 40.3942 46.212 39.947C45.9575 39.4993 45.593 39.0627 45.1178 38.6355C44.6431 38.2086 44.2161 37.8648 43.8375 37.6034C43.4592 37.3419 42.9394 37.0494 42.2785 36.7257C41.6182 36.4021 41.0951 36.1612 40.71 36.0029C40.3244 35.8447 39.7666 35.6279 39.0369 35.3526C38.39 35.1049 37.9084 34.9156 37.5915 34.7849C37.2749 34.6541 36.8586 34.4684 36.3424 34.2273C35.8264 33.9866 35.4409 33.7731 35.1862 33.5874C34.9316 33.4017 34.6598 33.1746 34.3707 32.9062C34.0815 32.6379 33.8785 32.3522 33.7614 32.0494C33.6446 31.7465 33.5861 31.4161 33.5861 31.0582C33.5861 30.1223 33.9989 29.3581 34.8248 28.7664C35.6507 28.1747 36.7177 27.8787 38.0254 27.8787C38.6033 27.8787 39.1924 27.9577 39.7908 28.1162C40.3892 28.2746 40.902 28.4531 41.3288 28.6529C41.7559 28.8526 42.1583 29.0729 42.537 29.3137C42.9156 29.5546 43.1839 29.7369 43.3424 29.8608C43.5007 29.9847 43.601 30.0672 43.6418 30.1086C43.8211 30.2462 44.0064 30.2943 44.1991 30.2532C44.4055 30.2394 44.564 30.1291 44.6744 29.9229L46.3471 26.9083C46.5122 26.6331 46.4781 26.3715 46.2439 26.1236C46.1612 26.041 46.0584 25.9448 45.9336 25.8346C45.8101 25.7243 45.5416 25.5248 45.1282 25.2356C44.7154 24.9466 44.2783 24.6885 43.8175 24.4613C43.3562 24.2344 42.7572 24.0037 42.0207 23.7698C41.2846 23.5356 40.5239 23.3774 39.7391 23.2949V19.6607C39.7391 19.4681 39.6772 19.3097 39.5537 19.1858C39.4299 19.0621 39.2715 19 39.0785 19H36.2908C36.1119 19 35.9571 19.0653 35.8263 19.1961C35.6956 19.327 35.6302 19.4817 35.6302 19.6607V23.3773C33.469 23.7901 31.7139 24.7124 30.3649 26.144C29.0161 27.5757 28.3414 29.241 28.3414 31.1408C28.3414 31.7051 28.4001 32.2419 28.5171 32.751C28.634 33.2605 28.7786 33.7182 28.9508 34.1242C29.1227 34.5305 29.3672 34.9296 29.6837 35.322C30.0003 35.7142 30.2998 36.0515 30.5819 36.3336C30.8641 36.6156 31.2324 36.9082 31.6865 37.2109C32.1409 37.5139 32.5298 37.7584 32.8533 37.9441C33.177 38.1293 33.607 38.3434 34.1437 38.5837C34.6806 38.8247 35.104 39.0069 35.4137 39.1311C35.7235 39.2548 36.1467 39.4271 36.6838 39.6469C37.427 39.9359 37.9777 40.1597 38.3356 40.3181C38.6937 40.4764 39.1478 40.6967 39.6987 40.9789C40.2492 41.2608 40.6516 41.5189 40.9065 41.753C41.1611 41.9871 41.3916 42.2762 41.5982 42.6202C41.8048 42.9643 41.9083 43.329 41.9083 43.7147C41.9083 44.8021 41.485 45.6416 40.6382 46.2331C39.7918 46.8251 38.8107 47.1211 37.6959 47.1211C37.187 47.1211 36.6773 47.0663 36.1682 46.9563C34.3787 46.5979 32.7063 45.7376 31.1508 44.3749L31.1095 44.3336C30.9856 44.1826 30.8203 44.1206 30.6141 44.1483C30.3938 44.1758 30.2354 44.2584 30.1391 44.3963L28.0123 47.1836C27.8058 47.4588 27.8198 47.7409 28.0537 48.03C28.1226 48.1127 28.243 48.2368 28.415 48.4017C28.5874 48.5673 28.9075 48.8249 29.3753 49.1766C29.8432 49.5278 30.3526 49.8578 30.9033 50.1679C31.4539 50.4775 32.1524 50.7836 32.9991 51.0865C33.8458 51.389 34.7232 51.6023 35.6317 51.7261V55.3394C35.6317 55.5186 35.6972 55.6733 35.8279 55.8042C35.9587 55.9352 36.1134 56.0003 36.2924 56.0003H39.08C39.273 56.0003 39.4314 55.9384 39.5552 55.8147C39.6789 55.691 39.7405 55.5326 39.7405 55.3395V51.7261C41.9296 51.3683 43.7087 50.4288 45.0782 48.9077C46.4478 47.3866 47.1328 45.573 47.1328 43.4671C47.1321 42.779 47.0428 42.132 46.8621 41.526Z" fill="white"/>
</g>
<defs>
<clipPath id="clip0">
<rect width="37" height="37" fill="white" transform="translate(19 19)"/>
</clipPath>
</defs>
</svg>
