<svg width="75" height="75" viewBox="0 0 75 75" fill="none" xmlns="http://www.w3.org/2000/svg">
<circle cx="37.5" cy="37.5" r="37.5" fill="#323C8D"/>
<path d="M43.138 48.818C44.0238 49.704 43.3965 51.2188 42.1435 51.2188H25.625C22.5183 51.2188 20 48.7004 20 45.5938V30.4062C20 29.9715 20.0497 29.5479 20.1436 29.1414C20.3914 28.0675 21.7284 27.6896 22.5079 28.4691C22.8507 28.8119 22.9916 29.3065 22.8834 29.7789C22.8369 29.9808 22.8125 30.1906 22.8125 30.4062V32.2429H25.9804C26.3531 32.2429 26.711 32.3909 26.9747 32.6549C27.8604 33.5406 27.2331 35.0469 25.9804 35.0469H22.8125V45.5938C22.8125 47.1469 24.0718 48.4062 25.625 48.4062H42.1435C42.5165 48.4062 42.8744 48.5543 43.138 48.818ZM53.1875 38.571V35.0554H37.0442L50.3945 48.4057C51.9364 48.395 53.1875 47.1379 53.1875 45.5938C53.1875 44.817 53.817 44.1875 54.5938 44.1875C55.3705 44.1875 56 44.817 56 45.5938C56 47.8657 54.6451 49.826 52.7016 50.7128L55.588 53.5992C56.1373 54.1485 56.1373 55.039 55.588 55.588C55.3136 55.8627 54.9538 56 54.5938 56C54.2339 56 53.8739 55.8627 53.5995 55.588L20.412 22.4005C19.8627 21.8515 19.8627 20.961 20.412 20.412C20.961 19.8627 21.8515 19.8627 22.4005 20.412L26.7701 24.7812H50.375C53.4767 24.7812 56 27.3045 56 30.4062V38.571C56 39.3477 55.3705 39.9773 54.5938 39.9773C53.817 39.9773 53.1875 39.3477 53.1875 38.571ZM53.1875 32.2429V30.4062C53.1875 28.8553 51.9257 27.5938 50.375 27.5938H29.5826L34.2317 32.2429H53.1875Z" fill="white"/>
</svg>
