<svg width="75" height="75" viewBox="0 0 75 75" fill="none" xmlns="http://www.w3.org/2000/svg">
<circle cx="37.5" cy="37.5" r="37.5" fill="#323C8D"/>
<path d="M53.6897 25H41.8318C40.1801 25 38.6376 25.6281 37.5 26.709C36.3624 25.6281 34.8201 25 33.1682 25H21.3103C20.5867 25 20 25.568 20 26.2684V48.1833C20 48.8837 20.5867 49.4517 21.3103 49.4517H33.1682C34.5064 49.4517 35.7205 50.166 36.337 51.3157C36.3387 51.319 36.3404 51.3209 36.3421 51.324C36.513 51.6366 36.8156 51.8754 37.1895 51.9637C37.293 51.9882 37.3973 52 37.5003 52C37.9807 52 38.434 51.743 38.663 51.3156C39.2794 50.1659 40.4936 49.4516 41.8318 49.4516H53.6897C54.4132 49.4516 55 48.8836 55 48.1832V26.2684C55 25.5679 54.4132 25 53.6897 25ZM36.1897 47.6732C35.2847 47.184 34.2498 46.9149 33.1682 46.9149H22.6206V27.5368H33.1682C34.4068 27.5368 35.5393 28.1488 36.1897 29.1515V47.6732ZM41.8318 46.9149C40.7502 46.9149 39.7154 47.184 38.8103 47.6733V29.1515C39.4607 28.1488 40.5931 27.5368 41.8318 27.5368H52.3794V46.9149H41.8318Z" fill="white" stroke="white"/>
</svg>
