<svg width="75" height="75" viewBox="0 0 75 75" fill="none" xmlns="http://www.w3.org/2000/svg">
<circle cx="37.5" cy="37.5" r="37.5" fill="#323C8D"/>
<path d="M40.3584 33.1971L33.5907 40.8908L28.642 32.4378L28.642 32.4377L28.6406 32.4354C28.3255 31.904 27.7559 31.5757 27.1382 31.5693L27.1359 31.5693C26.5163 31.5657 25.9397 31.8869 25.6168 32.4161C25.6165 32.4166 25.6162 32.4172 25.6158 32.4177L16.889 46.5197C16.2888 47.267 16.3936 48.3605 17.1312 48.9798C17.8789 49.6075 18.9937 49.51 19.6213 48.7626C19.7373 48.6245 19.8312 48.4697 19.9001 48.3038L27.0451 36.6573L31.6948 44.6664L31.6957 44.6678C32.1886 45.5106 33.2713 45.7937 34.1139 45.3009L34.1141 45.3007C34.2739 45.2071 34.4181 45.089 34.5413 44.9508L41.5164 37.1488L45.6742 42.5527L45.6845 42.5661L45.6957 42.5788C46.0427 42.9716 46.5317 43.2098 47.0545 43.2412L47.072 43.2423L47.0895 43.2421C47.6397 43.2366 48.1558 42.9752 48.4859 42.5351L48.4868 42.5339L58.943 28.5035C58.9432 28.5032 58.9435 28.5029 58.9437 28.5026C59.5293 27.7223 59.3718 26.6149 58.5917 26.0287C57.8129 25.4435 56.7079 25.599 56.1206 26.3751C56.1102 26.3885 56.0884 26.418 56.068 26.4587L55.9594 26.676L47.1166 38.5297L43.0826 33.2856C43.0826 33.2856 43.0826 33.2855 43.0825 33.2855C42.7604 32.8664 42.2675 32.6135 41.7392 32.5962L41.7371 32.5962C41.2109 32.5812 40.7054 32.8017 40.3584 33.1971Z" fill="white" stroke="white"/>
</svg>
