<svg width="75" height="75" viewBox="0 0 75 75" fill="none" xmlns="http://www.w3.org/2000/svg">
<circle cx="37.5" cy="37.5" r="37.5" fill="#323C8D"/>
<path d="M55.9592 26.6764L56.0681 26.4585C56.0884 26.4179 56.1102 26.3884 56.1206 26.3751C56.7079 25.599 57.8129 25.4435 58.5917 26.0287C59.3718 26.6149 59.5293 27.7223 58.9436 28.5027C58.9434 28.503 58.9432 28.5033 58.943 28.5035L48.4868 42.5339L48.4859 42.5351C48.1558 42.9752 47.6397 43.2366 47.0895 43.2421L47.072 43.2423L47.0545 43.2412C46.5317 43.2098 46.0427 42.9716 45.6957 42.5788L45.6845 42.5661L45.6742 42.5527L41.5164 37.1488L34.5413 44.9508C34.5411 44.951 34.541 44.9512 34.5408 44.9513C34.5408 44.9513 34.5408 44.9514 34.5408 44.9514C34.4177 45.0893 34.2737 45.2072 34.1141 45.3007L34.1139 45.3009C33.2713 45.7937 32.1886 45.5106 31.6957 44.6678L31.6948 44.6664L27.0451 36.6573L19.9001 48.3038C19.8312 48.4696 19.7374 48.6244 19.6214 48.7624L55.9592 26.6764ZM55.9592 26.6764L47.1166 38.5297L43.0826 33.2856C43.0826 33.2856 43.0826 33.2855 43.0825 33.2855C42.7604 32.8664 42.2675 32.6135 41.7392 32.5962L41.7371 32.5962C41.2109 32.5812 40.7055 32.8017 40.3584 33.1971C40.3584 33.1971 40.3584 33.1971 40.3584 33.1971L33.5907 40.8908L28.642 32.4378L28.642 32.4377L28.6406 32.4354C28.3255 31.904 27.7559 31.5757 27.1382 31.5693L27.1359 31.5693C26.5162 31.5657 25.9397 31.8869 25.6168 32.4161C25.6165 32.4167 25.6162 32.4172 25.6158 32.4177L16.889 46.5197C16.2888 47.267 16.3936 48.3605 17.1312 48.9798C17.8789 49.6075 18.9937 49.5101 19.6213 48.7626L55.9592 26.6764ZM56.1166 26.3804C56.117 26.3798 56.1174 26.3793 56.1178 26.3787C56.1175 26.3792 56.1172 26.3796 56.1169 26.38L56.1166 26.3804ZM56.1254 26.369C56.1269 26.3671 56.128 26.3657 56.1286 26.3651L56.1286 26.365C56.1313 26.3617 56.1282 26.3655 56.1254 26.369Z" fill="white" stroke="white"/>
</svg>
