<svg width="75" height="75" viewBox="0 0 75 75" fill="none" xmlns="http://www.w3.org/2000/svg">
<circle cx="37.5" cy="37.5" r="37.5" fill="#323C8D"/>
<path d="M22.6526 47.4708L37.3474 55.8279C37.5493 55.9424 37.775 56 38 56C38.2257 56 38.4507 55.9424 38.6526 55.8279L53.3474 47.4708C53.7512 47.2411 54 46.8166 54 46.3572V29.643C54 29.1836 53.7512 28.7591 53.3474 28.5294L38.6526 20.1723C38.2488 19.9426 37.7512 19.9426 37.3474 20.1723L22.6526 28.5294C22.2488 28.7591 22 29.1836 22 29.643V46.3572C22 46.8166 22.2488 47.2411 22.6526 47.4708ZM24.6105 31.8695L36.6948 38.742V52.4877L24.6105 45.6152V31.8695ZM39.3052 52.4877V38.742L51.3895 31.8695V45.6152L39.3052 52.4877ZM38 22.7705L50.0843 29.643L38 36.5155L25.9157 29.643L38 22.7705Z" fill="white" stroke="white"/>
</svg>
