<svg width="125" height="32" viewBox="0 0 125 32" fill="none" xmlns="http://www.w3.org/2000/svg">
<path d="M3.744 3.504V1.792H8.768V11.312H2.448C2.992 10.352 3.312 9.2 3.504 7.984C3.744 6.48 3.744 4.864 3.744 3.504ZM0.288 15.664C0.288 15.728 0.336 15.776 0.4 15.776H0.944C1.008 15.776 1.056 15.728 1.056 15.664V12H10.112V15.664C10.112 15.728 10.16 15.776 10.224 15.776H10.768C10.832 15.776 10.88 15.728 10.88 15.664V11.424C10.88 11.36 10.832 11.312 10.768 11.312H9.536V1.216C9.536 1.152 9.488 1.104 9.424 1.104H3.088C3.04 1.104 2.976 1.152 2.976 1.216V3.504C2.976 4.816 2.976 6.432 2.752 7.936C2.56 9.184 2.224 10.368 1.632 11.312H0.4C0.336 11.312 0.288 11.36 0.288 11.424V15.664ZM19.0915 4.944C19.0915 4.88 19.0275 4.832 18.9795 4.832H18.4995C18.4355 4.832 18.3875 4.88 18.3875 4.944V5.456L13.1075 10.64V4.944C13.1075 4.88 13.0435 4.832 12.9955 4.832H12.5155C12.4515 4.832 12.4035 4.88 12.4035 4.944V11.888C12.4035 11.952 12.4515 12 12.5155 12H12.9955C13.0435 12 13.1075 11.952 13.1075 11.888V11.392L18.3875 6.208V11.888C18.3875 11.952 18.4355 12 18.4995 12H18.9795C19.0275 12 19.0915 11.952 19.0915 11.888V4.944ZM23.1601 12.16C23.9441 12.16 24.6161 11.968 25.0641 11.616C25.5601 11.248 25.8481 10.72 25.8481 10.096C25.8481 9.184 25.3041 8.528 24.2801 8.256C25.0961 8 25.5601 7.44 25.5601 6.624C25.5601 6.064 25.2881 5.552 24.8401 5.2C24.4241 4.88 23.8641 4.688 23.1921 4.688C22.3441 4.688 21.6241 4.96 21.1601 5.232C21.0801 5.28 21.0801 5.344 21.0961 5.408L21.2401 5.696C21.2721 5.776 21.3361 5.792 21.4001 5.744C21.8801 5.456 22.4081 5.248 23.1441 5.248C23.6401 5.248 24.0561 5.392 24.3601 5.616C24.6961 5.888 24.9041 6.272 24.9041 6.688C24.9041 7.28 24.5681 7.68 24.0081 7.888C23.6561 8.016 23.1601 8.032 22.4881 8.032H22.3281C22.2641 8.032 22.2161 8.08 22.2161 8.128V8.448C22.2161 8.512 22.2641 8.56 22.3281 8.56H22.5201C23.2241 8.56 23.6721 8.576 23.9761 8.672C24.7441 8.896 25.1761 9.344 25.1761 10.048C25.1761 10.528 24.9521 10.928 24.5681 11.216C24.2001 11.472 23.7041 11.632 23.1121 11.632C22.4401 11.632 21.7841 11.456 21.2881 11.184C21.2081 11.136 21.1601 11.152 21.1121 11.232L20.9681 11.536C20.9361 11.6 20.9521 11.664 21.0321 11.696C21.5121 11.968 22.2481 12.16 23.1601 12.16ZM30.3378 5.248C30.8818 5.248 31.4738 5.36 31.8578 5.824C32.1618 6.176 32.3058 6.64 32.3058 7.424V7.696C31.2977 7.744 29.9378 7.824 28.8818 8.192C27.9698 8.528 27.3458 9.088 27.3458 10.096C27.3458 10.848 27.6818 11.36 28.1938 11.68C28.7057 12.016 29.3938 12.16 30.0178 12.16C30.8818 12.16 31.5378 12.016 32.3058 11.584H32.3698V11.888C32.3698 11.952 32.4178 12 32.4818 12H32.8978C32.9458 12 33.0098 11.952 33.0098 11.888V7.424C33.0098 6.48 32.7698 5.872 32.4178 5.44C31.8898 4.816 31.0738 4.688 30.4018 4.688C29.4898 4.688 28.5778 4.912 27.7618 5.408C27.6978 5.456 27.6658 5.504 27.6978 5.584L27.8578 5.888C27.8898 5.968 27.9378 5.968 28.0338 5.92C28.6738 5.552 29.3938 5.248 30.3378 5.248ZM30.1938 11.6C29.6658 11.6 29.1218 11.504 28.7218 11.248C28.2898 11.008 28.0018 10.624 28.0018 10.048C28.0018 9.232 28.6098 8.8 29.4258 8.56C30.3218 8.288 31.5378 8.224 32.3058 8.224V11.04C31.6658 11.424 30.9778 11.6 30.1938 11.6ZM42.0134 4.944C42.0134 4.88 41.9494 4.832 41.9014 4.832H41.4214C41.3574 4.832 41.3094 4.88 41.3094 4.944V5.456L36.0294 10.64V4.944C36.0294 4.88 35.9654 4.832 35.9174 4.832H35.4374C35.3734 4.832 35.3254 4.88 35.3254 4.944V11.888C35.3254 11.952 35.3734 12 35.4374 12H35.9174C35.9654 12 36.0294 11.952 36.0294 11.888V11.392L41.3094 6.208V11.888C41.3094 11.952 41.3574 12 41.4214 12H41.9014C41.9494 12 42.0134 11.952 42.0134 11.888V4.944ZM38.6534 1.968C37.7734 1.968 37.3094 1.456 37.2614 0.704C37.2454 0.624 37.1974 0.575999 37.1334 0.575999H36.8934C36.7974 0.575999 36.7494 0.639999 36.7494 0.704C36.7494 1.712 37.4534 2.512 38.6534 2.512C39.8374 2.512 40.5574 1.712 40.5574 0.704C40.5574 0.639999 40.5094 0.575999 40.4134 0.575999H40.1734C40.0934 0.575999 40.0454 0.624 40.0454 0.704C39.9974 1.456 39.5174 1.968 38.6534 1.968ZM50.114 4.832C50.05 4.832 50.002 4.88 50.002 4.944V8.096H45.154V4.944C45.154 4.88 45.106 4.832 45.058 4.832H44.578C44.514 4.832 44.466 4.88 44.466 4.944V11.888C44.466 11.952 44.514 12 44.578 12H45.058C45.106 12 45.154 11.952 45.154 11.888V8.704H50.002V11.888C50.002 11.952 50.05 12 50.114 12H50.578C50.642 12 50.69 11.952 50.69 11.888V4.944C50.69 4.88 50.642 4.832 50.578 4.832H50.114ZM63.8415 4.944C63.8415 4.88 63.7775 4.832 63.7295 4.832H63.2495C63.1855 4.832 63.1375 4.88 63.1375 4.944V5.456L57.8575 10.64V4.944C57.8575 4.88 57.7935 4.832 57.7455 4.832H57.2655C57.2015 4.832 57.1535 4.88 57.1535 4.944V11.888C57.1535 11.952 57.2015 12 57.2655 12H57.7455C57.7935 12 57.8575 11.952 57.8575 11.888V11.392L63.1375 6.208V11.888C63.1375 11.952 63.1855 12 63.2495 12H63.7295C63.7775 12 63.8415 11.952 63.8415 11.888V4.944ZM1.92 21.376C2.336 21.296 2.864 21.264 3.328 21.264C4.336 21.264 5.232 21.568 5.824 22.128C6.4 22.672 6.736 23.424 6.736 24.4C6.736 25.44 6.416 26.208 5.936 26.72C5.328 27.344 4.496 27.584 3.824 27.584C2.992 27.584 2.512 27.456 1.92 27.152V21.376ZM1.344 20.864C1.248 20.896 1.216 20.944 1.216 21.04V31.568C1.216 31.632 1.264 31.68 1.328 31.68H1.808C1.856 31.68 1.92 31.632 1.92 31.568V27.744C2.528 28.048 3.072 28.16 3.888 28.16C4.736 28.16 5.776 27.84 6.512 27.072C7.056 26.48 7.424 25.6 7.424 24.4C7.424 23.232 6.992 22.304 6.272 21.68C5.536 21.024 4.464 20.688 3.28 20.688C2.592 20.688 1.888 20.752 1.344 20.864ZM11.9471 21.248C12.4911 21.248 13.0831 21.36 13.4671 21.824C13.7711 22.176 13.9151 22.64 13.9151 23.424V23.696C12.9071 23.744 11.5471 23.824 10.4911 24.192C9.57913 24.528 8.95513 25.088 8.95513 26.096C8.95513 26.848 9.29113 27.36 9.80313 27.68C10.3151 28.016 11.0031 28.16 11.6271 28.16C12.4911 28.16 13.1471 28.016 13.9151 27.584H13.9791V27.888C13.9791 27.952 14.0271 28 14.0911 28H14.5071C14.5551 28 14.6191 27.952 14.6191 27.888V23.424C14.6191 22.48 14.3791 21.872 14.0271 21.44C13.4991 20.816 12.6831 20.688 12.0111 20.688C11.0991 20.688 10.1871 20.912 9.37113 21.408C9.30713 21.456 9.27513 21.504 9.30713 21.584L9.46713 21.888C9.49913 21.968 9.54713 21.968 9.64313 21.92C10.2831 21.552 11.0031 21.248 11.9471 21.248ZM11.8031 27.6C11.2751 27.6 10.7311 27.504 10.3311 27.248C9.89913 27.008 9.61113 26.624 9.61113 26.048C9.61113 25.232 10.2191 24.8 11.0351 24.56C11.9311 24.288 13.1471 24.224 13.9151 24.224V27.04C13.2751 27.424 12.5871 27.6 11.8031 27.6ZM18.5508 28.16C19.3348 28.16 20.0068 27.968 20.4548 27.616C20.9508 27.248 21.2388 26.72 21.2388 26.096C21.2388 25.184 20.6948 24.528 19.6708 24.256C20.4868 24 20.9508 23.44 20.9508 22.624C20.9508 22.064 20.6788 21.552 20.2308 21.2C19.8148 20.88 19.2548 20.688 18.5828 20.688C17.7348 20.688 17.0148 20.96 16.5508 21.232C16.4708 21.28 16.4708 21.344 16.4868 21.408L16.6308 21.696C16.6628 21.776 16.7268 21.792 16.7908 21.744C17.2708 21.456 17.7988 21.248 18.5348 21.248C19.0308 21.248 19.4468 21.392 19.7508 21.616C20.0868 21.888 20.2948 22.272 20.2948 22.688C20.2948 23.28 19.9588 23.68 19.3988 23.888C19.0468 24.016 18.5508 24.032 17.8788 24.032H17.7188C17.6548 24.032 17.6068 24.08 17.6068 24.128V24.448C17.6068 24.512 17.6548 24.56 17.7188 24.56H17.9108C18.6148 24.56 19.0628 24.576 19.3668 24.672C20.1348 24.896 20.5668 25.344 20.5668 26.048C20.5668 26.528 20.3428 26.928 19.9588 27.216C19.5908 27.472 19.0948 27.632 18.5028 27.632C17.8307 27.632 17.1748 27.456 16.6788 27.184C16.5988 27.136 16.5508 27.152 16.5028 27.232L16.3588 27.536C16.3268 27.6 16.3428 27.664 16.4228 27.696C16.9028 27.968 17.6388 28.16 18.5508 28.16ZM23.9044 21.376C24.3204 21.296 24.8484 21.264 25.3124 21.264C26.3204 21.264 27.2164 21.568 27.8084 22.128C28.3844 22.672 28.7204 23.424 28.7204 24.4C28.7204 25.44 28.4004 26.208 27.9204 26.72C27.3124 27.344 26.4804 27.584 25.8084 27.584C24.9764 27.584 24.4964 27.456 23.9044 27.152V21.376ZM23.3284 20.864C23.2324 20.896 23.2004 20.944 23.2004 21.04V31.568C23.2004 31.632 23.2484 31.68 23.3124 31.68H23.7924C23.8404 31.68 23.9044 31.632 23.9044 31.568V27.744C24.5124 28.048 25.0564 28.16 25.8724 28.16C26.7204 28.16 27.7604 27.84 28.4964 27.072C29.0404 26.48 29.4084 25.6 29.4084 24.4C29.4084 23.232 28.9764 22.304 28.2564 21.68C27.5204 21.024 26.4484 20.688 25.2644 20.688C24.5764 20.688 23.8724 20.752 23.3284 20.864ZM33.9315 21.248C34.4755 21.248 35.0675 21.36 35.4515 21.824C35.7555 22.176 35.8995 22.64 35.8995 23.424V23.696C34.8915 23.744 33.5315 23.824 32.4755 24.192C31.5635 24.528 30.9395 25.088 30.9395 26.096C30.9395 26.848 31.2755 27.36 31.7875 27.68C32.2995 28.016 32.9875 28.16 33.6115 28.16C34.4755 28.16 35.1315 28.016 35.8995 27.584H35.9635V27.888C35.9635 27.952 36.0115 28 36.0755 28H36.4915C36.5395 28 36.6035 27.952 36.6035 27.888V23.424C36.6035 22.48 36.3635 21.872 36.0115 21.44C35.4835 20.816 34.6675 20.688 33.9955 20.688C33.0835 20.688 32.1715 20.912 31.3555 21.408C31.2915 21.456 31.2595 21.504 31.2915 21.584L31.4515 21.888C31.4835 21.968 31.5315 21.968 31.6275 21.92C32.2675 21.552 32.9875 21.248 33.9315 21.248ZM33.7875 27.6C33.2595 27.6 32.7155 27.504 32.3155 27.248C31.8835 27.008 31.5955 26.624 31.5955 26.048C31.5955 25.232 32.2035 24.8 33.0195 24.56C33.9155 24.288 35.1315 24.224 35.8995 24.224V27.04C35.2595 27.424 34.5715 27.6 33.7875 27.6ZM39.2391 23.056C40.0711 22.144 41.0311 21.712 42.3431 21.712C43.1271 21.712 43.9591 21.984 44.5351 22.608C44.9511 23.072 45.2391 23.744 45.2391 24.64C45.2391 25.472 44.9831 26.208 44.4711 26.72C43.9751 27.248 43.2231 27.584 42.2471 27.584C41.2711 27.584 40.5831 27.232 40.1191 26.672C39.4791 25.904 39.2391 24.752 39.2231 23.616C39.2231 23.44 39.2231 23.248 39.2391 23.056ZM44.7111 17.216C44.7111 17.152 44.6631 17.104 44.5991 17.104H44.1511C44.0871 17.104 44.0391 17.152 44.0391 17.216C44.0391 17.664 43.8631 17.936 43.5271 18.16C42.7271 18.672 41.4631 18.624 40.2791 19.488C39.0471 20.4 38.5511 21.872 38.5511 23.536C38.5511 24.864 38.8391 26.24 39.6711 27.136C40.2471 27.776 41.0791 28.16 42.2471 28.16C43.3991 28.16 44.3591 27.792 44.9831 27.136C45.5911 26.512 45.9271 25.648 45.9271 24.64C45.9271 23.584 45.6071 22.784 45.0951 22.224C44.4231 21.504 43.4311 21.168 42.4871 21.168C40.9031 21.168 39.9591 21.776 39.3191 22.384C39.4951 21.36 39.9591 20.48 40.7591 19.888C41.8951 19.072 43.3511 19.088 44.1511 18.48C44.5191 18.192 44.7111 17.776 44.7111 17.216ZM48.1748 24.432C48.1748 23.584 48.4788 22.816 48.9748 22.256C49.5348 21.648 50.3348 21.28 51.2468 21.28C52.1748 21.28 52.9748 21.648 53.5348 22.256C54.0308 22.816 54.3188 23.584 54.3188 24.432C54.3188 25.28 54.0308 26.032 53.5348 26.592C52.9748 27.2 52.1748 27.584 51.2468 27.584C50.3348 27.584 49.5348 27.2 48.9748 26.592C48.4788 26.032 48.1748 25.28 48.1748 24.432ZM47.4868 24.432C47.4868 25.456 47.8708 26.384 48.5108 27.04C49.1828 27.744 50.1428 28.16 51.2468 28.16C52.3668 28.16 53.3268 27.744 53.9988 27.04C54.6388 26.384 55.0228 25.456 55.0228 24.432C55.0228 23.392 54.6388 22.464 53.9988 21.808C53.3268 21.12 52.3668 20.688 51.2468 20.688C50.1428 20.688 49.1828 21.12 48.5108 21.808C47.8708 22.464 47.4868 23.392 47.4868 24.432ZM56.0525 20.832C55.9885 20.832 55.9405 20.88 55.9405 20.944V21.328C55.9405 21.392 55.9885 21.44 56.0525 21.44H58.9805V27.888C58.9805 27.952 59.0285 28 59.0765 28H59.5565C59.6205 28 59.6685 27.952 59.6685 27.888V21.44H62.5965C62.6445 21.44 62.6925 21.392 62.6925 21.328V20.944C62.6925 20.88 62.6445 20.832 62.5965 20.832H56.0525ZM69.0678 20.832C68.9558 20.832 68.9078 20.864 68.8438 20.944L65.9478 24.096H64.7478V20.944C64.7478 20.88 64.6998 20.832 64.6518 20.832H64.1718C64.1078 20.832 64.0598 20.88 64.0598 20.944V27.888C64.0598 27.952 64.1078 28 64.1718 28H64.6518C64.6998 28 64.7478 27.952 64.7478 27.888V24.704H65.9798L68.9238 27.888C68.9878 27.968 69.0358 28 69.1318 28H69.7078C69.8038 28 69.8358 27.92 69.7558 27.824L66.5718 24.368L69.6598 21.024C69.7718 20.912 69.7238 20.832 69.6118 20.832H69.0678ZM73.9315 21.248C74.4755 21.248 75.0675 21.36 75.4515 21.824C75.7555 22.176 75.8995 22.64 75.8995 23.424V23.696C74.8915 23.744 73.5315 23.824 72.4755 24.192C71.5635 24.528 70.9395 25.088 70.9395 26.096C70.9395 26.848 71.2755 27.36 71.7875 27.68C72.2995 28.016 72.9875 28.16 73.6115 28.16C74.4755 28.16 75.1315 28.016 75.8995 27.584H75.9635V27.888C75.9635 27.952 76.0115 28 76.0755 28H76.4915C76.5395 28 76.6035 27.952 76.6035 27.888V23.424C76.6035 22.48 76.3635 21.872 76.0115 21.44C75.4835 20.816 74.6675 20.688 73.9955 20.688C73.0835 20.688 72.1715 20.912 71.3555 21.408C71.2915 21.456 71.2595 21.504 71.2915 21.584L71.4515 21.888C71.4835 21.968 71.5315 21.968 71.6275 21.92C72.2675 21.552 72.9875 21.248 73.9315 21.248ZM73.7875 27.6C73.2595 27.6 72.7155 27.504 72.3155 27.248C71.8835 27.008 71.5955 26.624 71.5955 26.048C71.5955 25.232 72.2035 24.8 73.0195 24.56C73.9155 24.288 75.1315 24.224 75.8995 24.224V27.04C75.2595 27.424 74.5715 27.6 73.7875 27.6ZM88.0388 23.632C88.0868 23.632 88.1508 23.568 88.1508 23.52V23.072C88.1508 23.008 88.0868 22.96 88.0388 22.96H83.2228C83.1588 22.96 83.1108 23.008 83.1108 23.072V23.52C83.1108 23.568 83.1588 23.632 83.2228 23.632H88.0388Z" fill="black"/>
<path d="M108.32 2.03955H97.0815V29.8895H108.392C117.901 29.8895 124.025 24.4044 124.025 15.9468C123.989 7.48925 117.865 2.03955 108.32 2.03955ZM108.032 24.2984H103.025V8.02005H108.104C113.975 8.02005 118.081 10.2849 118.081 15.9823C118.081 20.5473 114.335 24.2984 108.032 24.2984Z" fill="#323C8D"/>
<path d="M109.184 12.6558H107.888V19.2733H109.184C111.742 19.2733 113.255 17.7517 113.255 15.8761C113.219 13.5759 111.562 12.6558 109.184 12.6558Z" fill="#323C8D"/>
</svg>
