<svg width="174" height="40" viewBox="0 0 174 40" fill="none" xmlns="http://www.w3.org/2000/svg">
<path fill-rule="evenodd" clip-rule="evenodd" d="M170.153 18.9967V16.8919H171.237C171.438 16.8919 171.591 16.9092 171.698 16.9446C171.805 16.9777 171.89 17.0413 171.956 17.1353C172.02 17.2292 172.053 17.3421 172.053 17.4745C172.053 17.5917 172.028 17.6925 171.978 17.7765C171.927 17.8627 171.86 17.931 171.772 17.9834C171.717 18.0172 171.64 18.0438 171.543 18.0658C171.621 18.0916 171.677 18.1186 171.713 18.1443C171.737 18.1614 171.771 18.2001 171.816 18.2553C171.862 18.3133 171.892 18.357 171.908 18.3871L172.226 18.9967H171.49L171.142 18.3527C171.098 18.2683 171.059 18.2159 171.024 18.1908C170.977 18.1583 170.925 18.1409 170.866 18.1409H170.808V18.9967H170.153ZM170.808 17.7452H171.08C171.11 17.7452 171.167 17.7353 171.252 17.7164C171.293 17.708 171.328 17.6844 171.356 17.6494C171.383 17.6144 171.396 17.5728 171.396 17.5269C171.396 17.4599 171.375 17.4075 171.333 17.3712C171.29 17.334 171.21 17.3164 171.093 17.3164H170.808V17.7452ZM171.042 16C170.458 16 169.991 16.2044 169.583 16.5846C169.204 16.9917 169 17.4593 169 18.0147C169 18.5973 169.204 19.0634 169.583 19.4445C169.991 19.851 170.458 20.0262 171.042 20.0262C171.597 20.0262 172.063 19.851 172.472 19.4445C172.85 19.0634 173.055 18.5973 173.055 18.0147C173.055 17.4593 172.85 16.9917 172.472 16.5846C172.063 16.2044 171.597 16 171.042 16ZM171.041 16.165C170.505 16.165 170.076 16.3526 169.701 16.7018C169.353 17.0754 169.166 17.5046 169.166 18.0147C169.166 18.5496 169.353 18.9772 169.701 19.3273C170.076 19.7003 170.505 19.8613 171.041 19.8613C171.55 19.8613 171.978 19.7003 172.353 19.3273C172.701 18.9772 172.889 18.5496 172.889 18.0147C172.889 17.5046 172.701 17.0754 172.353 16.7018C171.978 16.3526 171.55 16.165 171.041 16.165Z" fill="#323C8D"/>
<path d="M20.0001 40C14.7941 40 10.3166 38.2525 6.53919 34.8216C6.44395 34.694 6.34793 34.5977 6.22164 34.4713C6.09535 34.3767 5.96828 34.2486 5.84198 34.122C1.93633 30.2145 0 25.512 0 19.9846C0 14.4564 1.93633 9.72244 5.84198 5.84666C9.71451 1.93828 14.4455 0 20.0001 0C25.4907 0 30.2216 1.93828 34.1272 5.84666C34.2222 5.94126 34.3486 6.06806 34.4748 6.19526C34.603 6.32259 34.6999 6.44901 34.7934 6.54516C38.254 10.3267 39.9679 14.7734 40 19.9846C39.9679 25.512 38.0309 30.2145 34.1272 34.122C32.3491 35.9022 30.444 37.2671 28.3493 38.2196C26.8247 38.9193 25.238 39.428 23.5231 39.7123C23.0144 39.777 22.5073 39.8736 21.9363 39.9037C21.3012 39.9684 20.6661 40 20.0001 40ZM37.2373 11.407C26.984 17.5069 21.6508 26.7517 21.2684 39.1751C21.4916 39.1425 21.7468 39.1121 21.9995 39.1121C23.9678 38.9193 25.873 38.444 27.6501 37.6793C27.6501 27.7042 31.175 19.7297 38.254 13.8192C38.0644 13.2805 37.8715 12.7728 37.6502 12.2641C37.4926 11.9784 37.3647 11.6919 37.2373 11.407ZM28.6778 2.81702C16.5064 8.1127 7.87251 19.8881 5.33306 32.4068C5.52353 32.6293 5.74494 32.8821 6.00115 33.1367C6.15849 33.2959 6.34793 33.4871 6.53919 33.71C6.63429 33.8046 6.76162 33.8995 6.85595 33.9943C8.85621 35.9339 11.1429 37.3305 13.6823 38.1882C12.317 24.5589 18.01 13.9158 28.9946 5.65502C29.0585 5.59187 30.9431 4.38482 31.0044 4.3526L28.6778 2.81702ZM28.6118 9.75155C27.8696 9.75155 27.2423 10.0356 26.7295 10.5479C26.1895 11.0884 25.9042 11.7554 25.9042 12.5182C25.9042 13.2805 26.1895 13.9479 26.7295 14.5193C26.8559 14.6479 26.984 14.7422 27.112 14.8375C27.5871 15.1549 28.0949 15.3143 28.7299 15.3454C29.4923 15.3454 30.1584 15.06 30.6984 14.5193C31.2373 13.9479 31.4916 13.2805 31.4916 12.5182C31.4916 11.9142 31.3343 11.3732 31.0166 10.9286C30.9206 10.8021 30.7926 10.6752 30.6984 10.5479C30.1853 10.0355 29.5585 9.75155 28.8435 9.75155C28.8058 9.75155 28.768 9.75246 28.7299 9.75401C28.6901 9.75246 28.6509 9.75155 28.6118 9.75155ZM12.2547 5.55977C11.3013 5.55977 10.5071 5.90993 9.84081 6.60843C9.14166 7.27626 8.79384 8.07027 8.79384 9.05526C8.79384 10.0085 9.14166 10.835 9.84081 11.5013C9.93773 11.6298 10.0623 11.723 10.1903 11.8503C10.7925 12.2958 11.4586 12.5182 12.2547 12.5182C13.2065 12.5182 14.0631 12.1685 14.7309 11.5013C15.3972 10.835 15.7459 10.0085 15.7459 9.05526C15.7459 8.26126 15.5252 7.56262 15.0467 6.9582C14.9525 6.83035 14.8572 6.70405 14.7309 6.60843C14.0631 5.90993 13.2065 5.55977 12.2547 5.55977Z" fill="#A71C60"/>
<path d="M138.347 24.0764C138.205 24.4388 138.008 24.4879 137.677 24.4879L132.599 24.4806L132.003 27.0608L136.195 27.0665C136.633 27.0665 136.724 27.1138 136.614 27.6065L135.933 30.5668C135.831 31.0032 135.708 31.0849 135.26 31.0849L131.075 31.079L130.378 34.0861L135.827 34.0971C136.317 34.0971 136.326 34.1757 136.22 34.6125L135.535 37.6038C135.42 38.0881 135.383 38.1373 134.888 38.1373L124.941 38.1246C124.451 38.1246 124.405 38.0764 124.517 37.5904L128.352 20.9759C128.459 20.5348 128.523 20.4575 129.016 20.4599L139.178 20.4722C139.563 20.4722 139.651 20.5493 139.602 20.7581C139.594 20.8292 139.525 20.9614 139.477 21.0901L138.347 24.0764ZM100.302 37.7844C100.254 38.0239 100.105 38.0921 99.7114 38.0921L95.3178 38.0852C94.8771 38.0852 94.8578 38.0624 94.8458 37.6548L94.6991 33.9675L91.2933 33.9628L89.3795 37.6448C89.15 38.0559 89.1434 38.0779 88.7301 38.0779L84.6723 38.0723C84.2535 38.0723 84.1444 37.9713 84.1833 37.8197C84.2042 37.7128 84.2879 37.5862 84.3695 37.4551L93.6411 20.8506C93.8395 20.4642 93.8755 20.4148 94.3212 20.4148L98.1928 20.4182C98.6151 20.4182 98.6393 20.4457 98.6956 20.859L100.333 37.4769C100.325 37.6038 100.327 37.7071 100.302 37.7844ZM94.9522 27.4767C94.9884 26.7537 95.0875 25.3116 95.1633 24.5362C94.8738 25.359 94.3721 26.7248 94.0394 27.4767L92.6694 30.4843L94.7772 30.4892L94.9522 27.4767ZM58.7161 37.9744L54.7769 37.9699C54.2894 37.9699 54.2774 37.9126 54.399 37.426L56.0104 30.9699L52.6674 30.9679L51.0623 37.4246C50.9383 37.9108 50.8167 37.9657 50.3766 37.9657L46.4446 37.9568C45.958 37.9568 45.9409 37.9028 46.0651 37.4189L50.2042 20.8292C50.3235 20.3931 50.363 20.3108 50.8552 20.3108L54.788 20.3191C55.2225 20.3191 55.3095 20.3977 55.1991 20.8372L53.6851 26.9045L57.0298 26.9076L58.5478 20.8412C58.651 20.4028 58.7001 20.324 59.1853 20.324L63.1244 20.3271C63.6119 20.3317 63.6466 20.4111 63.5297 20.8468L59.3882 37.4324C59.2666 37.9215 59.206 37.9744 58.7161 37.9744ZM66.6373 32.4143C66.5091 32.2812 66.0338 31.5116 65.8905 30.3128C65.8088 29.8709 64.5978 21.1092 64.5978 21.1092C64.5769 20.8772 64.5494 20.773 64.5769 20.6712C64.6222 20.4899 64.8002 20.3884 65.4004 20.3628L69.1293 20.1604C69.2826 20.1604 69.4194 20.1378 69.529 20.1378C69.7338 20.1378 69.8392 20.2182 69.8596 20.651L69.9447 25.5371C69.9658 26.3864 69.97 27.0832 69.9545 29.2176H70.0874C71.1977 26.8252 71.6096 26.0037 71.897 25.359L74.0147 20.7073C74.226 20.2722 74.3369 20.1433 74.6133 20.1444L78.4995 20.3535C78.7743 20.3811 79.0232 20.4324 78.9668 20.6622C78.9452 20.7381 78.9024 20.8193 78.7533 21.0981L72.6217 32.8759C70.0505 37.782 67.8065 38.4234 65.5244 38.4201C63.7439 38.4177 62.7424 37.9028 62.4023 37.7215C61.9019 37.4364 61.811 37.3073 61.8486 37.156C61.8559 37.1043 61.9019 37.0278 61.9519 36.9511L63.6173 34.0999L63.7946 33.995C64.0041 34.0004 64.7784 34.9318 65.9879 34.9318C67.1182 34.9345 67.6025 34.5937 67.9821 33.5395C67.0682 33.0354 66.6985 32.4812 66.6373 32.4143ZM90.0313 23.9671C89.8808 24.3773 89.7446 24.3773 89.3562 24.3773L84.3475 24.3728L81.0763 37.4638C80.9514 37.9488 80.8328 38.0012 80.3993 38.0012L76.4888 37.9979C75.9987 37.9964 75.964 37.9415 76.0833 37.4551L80.2326 20.8694C80.3511 20.3744 80.4108 20.3504 80.895 20.3511L90.9347 20.3628C91.3213 20.3668 91.3987 20.4437 91.3471 20.6491C91.3335 20.7282 91.2764 20.8506 91.2158 20.9845L90.0313 23.9671ZM115.849 34.3181H116.643C117.751 34.3181 119.065 34.115 119.484 32.419C119.842 31.0032 118.984 30.5364 117.953 30.5363L116.788 30.5337L115.849 34.3181ZM117.643 27.1407L119.572 27.1423C120.756 27.1445 122.653 27.2758 123.686 28.511C124.628 29.6729 124.454 31.2922 124.165 32.4472C122.869 37.6448 118.544 38.0517 116.229 38.0479L110.594 38.0406C110.135 38.0392 110.151 37.7546 110.208 37.5235L114.363 20.9139C114.479 20.4457 114.771 20.3962 115.007 20.3962L125.524 20.4111C125.835 20.4111 125.879 20.5413 125.848 20.6712C125.82 20.773 125.746 20.8744 125.727 20.9539L124.393 24.0111C124.225 24.3728 123.906 24.421 123.699 24.421L118.324 24.4155L117.643 27.1407ZM148.993 36.6208C148.734 37.6475 145.151 38.5199 143.548 38.5187C138.56 38.5114 137.101 34.8814 138.55 29.0725C139.316 26.0113 140.421 23.7751 142.431 22.1038C144.092 20.717 146.038 19.9982 148.024 20C149.644 20.0069 151.447 20.6239 152.382 21.6312C152.547 21.7816 152.618 21.916 152.571 22.0951C152.553 22.1698 152.511 22.2224 152.463 22.3248L150.498 25.279C150.374 25.4296 150.254 25.4876 150.154 25.4876C150.077 25.4876 150.026 25.4589 149.965 25.4296C149.233 25.0503 148.344 24.0951 147.13 24.0951C145.947 24.0909 144.587 25.095 143.728 28.5594C142.579 33.1411 143.494 34.4292 144.904 34.4301C146.526 34.4315 148.072 33.2031 148.302 33.2031C148.38 33.2031 148.441 33.2769 148.475 33.4327L149.009 36.3654C149.032 36.4712 149.018 36.5436 148.993 36.6208ZM166.12 24.2802C165.964 24.6421 165.871 24.7194 165.472 24.7194L161.729 24.7117L158.759 37.5671C158.643 38.0559 158.604 38.1108 158.119 38.1068L154.131 38.1033C153.627 38.1004 153.595 38.0479 153.711 37.5611L156.674 24.7079L153.314 24.7034C152.817 24.7001 152.774 24.6497 152.891 24.1633L153.636 20.9445C153.739 20.5051 153.813 20.4262 154.299 20.4262L166.541 20.4417C166.853 20.4417 166.969 20.4948 166.974 20.6333V20.6568L166.961 20.7501C166.943 20.8292 166.916 20.9315 166.864 21.0603L166.12 24.2802Z" fill="#323C8D"/>
<path fill-rule="evenodd" clip-rule="evenodd" d="M55.45 12.2542H56.6101V3H55.45L51.1601 10.2981V3H50V12.2542H51.1601L55.45 4.9561V12.2542ZM63.8274 9.9879L62.8561 9.8125C62.6807 10.7433 62.1816 11.4853 61.1563 11.4853C59.7264 11.4853 59.3891 9.8665 59.3891 8.7603C59.3891 7.6136 59.7938 6.1162 61.2238 6.1162C62.2086 6.1162 62.7617 6.87171 62.8561 7.77551L63.8274 7.60011C63.5981 6.18371 62.6807 5.22591 61.1968 5.22591C59.1598 5.22591 58.2695 7.047 58.2695 8.8277C58.2695 10.6219 59.1463 12.3891 61.1833 12.3891C62.6537 12.3891 63.5846 11.3773 63.8274 9.9879ZM66.269 12.2542V6.23761H69.5876V12.2542H70.6398V5.4012H65.2168V12.2542H66.269ZM72.1103 8.7738C72.1103 10.5814 73.0276 12.3891 75.0781 12.3891C77.1556 12.3891 78.2618 10.7028 78.2618 8.78721C78.2618 6.97961 77.2635 5.22591 75.2535 5.22591C73.1895 5.22591 72.1103 6.8717 72.1103 8.7738ZM76.7509 10.5275C76.4271 11.148 75.874 11.5122 75.1726 11.5122C74.552 11.5122 73.9719 11.175 73.6752 10.6489C73.3784 10.1093 73.2839 9.3943 73.2839 8.7738C73.2839 8.2207 73.3649 7.55961 73.6212 7.06051C73.918 6.46691 74.5115 6.0892 75.1726 6.0892C75.7661 6.0892 76.3327 6.3995 76.6565 6.8986C77.0072 7.4517 77.0882 8.1262 77.0882 8.7738C77.0882 9.3673 77.0342 9.9879 76.7509 10.5275ZM81.2971 5.4012L78.8014 12.2542H79.7457L81.7558 6.6828L83.5365 12.2542H84.7101L82.4033 5.4012H81.2971ZM86.774 8.8412H87.8128C88.5143 8.8412 88.919 8.9491 89.2427 9.1245C89.5125 9.2729 89.8093 9.4752 89.8093 10.1363C89.8093 10.9457 89.1753 11.4178 88.1365 11.4178H86.774V8.8412ZM89.7419 8.31511C89.3641 8.13971 88.5682 8.0048 87.8128 8.0048H86.774V5.4012H85.7218V12.2542H88.0961C89.0269 12.2542 89.526 12.1058 90.0926 11.7416C90.6187 11.4043 90.9425 11.0401 90.9425 10.1497C90.9425 8.97611 90.187 8.51741 89.7419 8.31511ZM95.9877 8.63891V8.6119C96.7027 8.477 97.2558 7.85641 97.2558 7.10101C97.2558 5.83291 96.0417 5.22591 94.7871 5.22591C93.6 5.22591 92.5478 5.75201 92.1296 6.8177L93.0334 7.1415C93.2627 6.5344 94.0047 6.06221 94.7197 6.06221C95.7044 6.06221 96.1361 6.359 96.1361 7.1415C96.1361 7.5462 95.8798 7.8969 95.583 8.0723C95.2458 8.2746 94.8141 8.31511 94.4229 8.31511H93.9642V9.07051H94.4229C94.922 9.07051 95.5021 9.165 95.8528 9.3403C96.1496 9.4887 96.4329 9.89341 96.4329 10.3251C96.4329 10.9187 95.9068 11.5392 94.7466 11.5392C93.7484 11.5392 93.0469 11.0536 92.7636 10.3521L91.8463 10.6893C92.278 11.836 93.4381 12.3891 94.7062 12.3891C95.4211 12.3891 96.1361 12.2407 96.7027 11.863C97.2288 11.5122 97.5526 10.9457 97.5526 10.3386C97.5526 9.3808 96.932 8.76031 95.9877 8.63891ZM101.195 12.8905L103.88 5.4012H102.989L101.114 10.5477L99.2794 5.4012H98.1867L100.561 12.1238C100.278 12.931 100.089 13.8056 99.0231 13.8056C98.7937 13.8056 98.5509 13.7651 98.3216 13.7111V14.561C98.5779 14.6285 98.8342 14.6824 99.104 14.6824C99.7111 14.6824 100.075 14.6015 100.493 14.1563C100.858 13.7651 101.02 13.3896 101.195 12.8905ZM109.532 3H108.52C108.291 3.6475 107.859 3.7419 107.454 3.7419C107.036 3.7419 106.537 3.661 106.362 3H105.35C105.674 4.2141 106.496 4.4704 107.454 4.4704C108.412 4.4704 109.289 4.1332 109.532 3ZM105.795 12.2542L109.073 7.02H109.114V12.2542H110.166V5.4012H109.114L105.835 10.6354H105.795V5.4012H104.743V12.2542H105.795ZM118.975 4.2411L121.444 12.2542H122.631L119.757 3H118.422L115.292 12.2542H116.263L118.975 4.2411ZM125.909 9.96091C125.585 10.7028 125.275 11.4178 124.317 11.4178C124.088 11.4178 123.953 11.3773 123.723 11.3234V12.1733C123.818 12.2137 124.155 12.2947 124.425 12.2947C125.032 12.2947 125.396 12.2137 125.855 11.7686C126.26 11.3773 126.448 10.9996 126.664 10.5005L130.01 3H129.025L126.543 8.5444L124.088 3H122.847L125.909 9.96091ZM136.215 7.2494C136.107 7.3303 135.109 7.5327 134.381 7.5327C133.747 7.5327 132.924 7.3168 132.546 6.7637C132.209 6.2781 132.195 5.5226 132.195 4.9695V3H131.035V4.9695C131.035 5.9273 131.089 6.8582 131.764 7.6136C132.384 8.3151 133.342 8.49051 134.246 8.49051C135.244 8.49051 136.04 8.28811 136.215 8.1802V12.2542H137.375V3H136.215V7.2494ZM139.669 12.2542H150.785V3H149.624V11.2424H145.807V3H144.647V11.2424H140.829V3H139.669V12.2542ZM159.135 12.2542V11.2559H154.306V7.8699H158.029V6.9391H154.306V3.9983H159V3H153.145V12.2542H159.135ZM166.689 12.2542V11.2559H161.86V7.8699H165.583V6.9391H161.86V3.9983H166.555V3H160.7V12.2542H166.689Z" fill="#2B2A29"/>
</svg>
