<svg width="33" height="33" viewBox="0 0 33 33" fill="none" xmlns="http://www.w3.org/2000/svg">
<path d="M19.6582 16.5C19.6582 18.2443 18.2443 19.6582 16.5 19.6582C14.7557 19.6582 13.3418 18.2443 13.3418 16.5C13.3418 14.7557 14.7557 13.3418 16.5 13.3418C18.2443 13.3418 19.6582 14.7557 19.6582 16.5Z" fill="black"/>
<path d="M19.6582 16.5C19.6582 18.2443 18.2443 19.6582 16.5 19.6582C14.7557 19.6582 13.3418 18.2443 13.3418 16.5C13.3418 14.7557 14.7557 13.3418 16.5 13.3418C18.2443 13.3418 19.6582 14.7557 19.6582 16.5Z" fill="url(#paint0_linear)"/>
<path d="M23.886 10.9125C23.7341 10.5011 23.4919 10.1287 23.1772 9.82307C22.8716 9.50836 22.4995 9.26616 22.0878 9.11434C21.754 8.98468 21.2524 8.83035 20.3287 8.7883C19.3294 8.74273 19.0298 8.73291 16.5 8.73291C13.97 8.73291 13.6704 8.74248 12.6714 8.78805C11.7476 8.83035 11.2458 8.98468 10.9122 9.11434C10.5006 9.26616 10.1282 9.50836 9.82284 9.82307C9.50813 10.1287 9.26592 10.5008 9.11385 10.9125C8.98419 11.2463 8.82986 11.7481 8.78781 12.6719C8.74224 13.6709 8.73242 13.9705 8.73242 16.5005C8.73242 19.0303 8.74224 19.3299 8.78781 20.3292C8.82986 21.2529 8.98419 21.7545 9.11385 22.0883C9.26592 22.4999 9.50787 22.8721 9.82259 23.1777C10.1282 23.4924 10.5004 23.7346 10.912 23.8864C11.2458 24.0164 11.7476 24.1707 12.6714 24.2127C13.6704 24.2583 13.9697 24.2679 16.4998 24.2679C19.0301 24.2679 19.3297 24.2583 20.3284 24.2127C21.2522 24.1707 21.754 24.0164 22.0878 23.8864C22.9141 23.5677 23.5672 22.9146 23.886 22.0883C24.0156 21.7545 24.17 21.2529 24.2122 20.3292C24.2578 19.3299 24.2674 19.0303 24.2674 16.5005C24.2674 13.9705 24.2578 13.6709 24.2122 12.6719C24.1702 11.7481 24.0159 11.2463 23.886 10.9125ZM16.5 21.3655C13.8129 21.3655 11.6346 19.1874 11.6346 16.5003C11.6346 13.8131 13.8129 11.6351 16.5 11.6351C19.1869 11.6351 21.3652 13.8131 21.3652 16.5003C21.3652 19.1874 19.1869 21.3655 16.5 21.3655ZM21.5576 12.5797C20.9297 12.5797 20.4206 12.0706 20.4206 11.4427C20.4206 10.8148 20.9297 10.3057 21.5576 10.3057C22.1855 10.3057 22.6946 10.8148 22.6946 11.4427C22.6943 12.0706 22.1855 12.5797 21.5576 12.5797Z" fill="black"/>
<path d="M23.886 10.9125C23.7341 10.5011 23.4919 10.1287 23.1772 9.82307C22.8716 9.50836 22.4995 9.26616 22.0878 9.11434C21.754 8.98468 21.2524 8.83035 20.3287 8.7883C19.3294 8.74273 19.0298 8.73291 16.5 8.73291C13.97 8.73291 13.6704 8.74248 12.6714 8.78805C11.7476 8.83035 11.2458 8.98468 10.9122 9.11434C10.5006 9.26616 10.1282 9.50836 9.82284 9.82307C9.50813 10.1287 9.26592 10.5008 9.11385 10.9125C8.98419 11.2463 8.82986 11.7481 8.78781 12.6719C8.74224 13.6709 8.73242 13.9705 8.73242 16.5005C8.73242 19.0303 8.74224 19.3299 8.78781 20.3292C8.82986 21.2529 8.98419 21.7545 9.11385 22.0883C9.26592 22.4999 9.50787 22.8721 9.82259 23.1777C10.1282 23.4924 10.5004 23.7346 10.912 23.8864C11.2458 24.0164 11.7476 24.1707 12.6714 24.2127C13.6704 24.2583 13.9697 24.2679 16.4998 24.2679C19.0301 24.2679 19.3297 24.2583 20.3284 24.2127C21.2522 24.1707 21.754 24.0164 22.0878 23.8864C22.9141 23.5677 23.5672 22.9146 23.886 22.0883C24.0156 21.7545 24.17 21.2529 24.2122 20.3292C24.2578 19.3299 24.2674 19.0303 24.2674 16.5005C24.2674 13.9705 24.2578 13.6709 24.2122 12.6719C24.1702 11.7481 24.0159 11.2463 23.886 10.9125ZM16.5 21.3655C13.8129 21.3655 11.6346 19.1874 11.6346 16.5003C11.6346 13.8131 13.8129 11.6351 16.5 11.6351C19.1869 11.6351 21.3652 13.8131 21.3652 16.5003C21.3652 19.1874 19.1869 21.3655 16.5 21.3655ZM21.5576 12.5797C20.9297 12.5797 20.4206 12.0706 20.4206 11.4427C20.4206 10.8148 20.9297 10.3057 21.5576 10.3057C22.1855 10.3057 22.6946 10.8148 22.6946 11.4427C22.6943 12.0706 22.1855 12.5797 21.5576 12.5797Z" fill="url(#paint1_linear)"/>
<path d="M16.5 0C7.38869 0 0 7.38869 0 16.5C0 25.6113 7.38869 33 16.5 33C25.6113 33 33 25.6113 33 16.5C33 7.38869 25.6113 0 16.5 0ZM25.9175 20.4062C25.8716 21.4148 25.7113 22.1034 25.4771 22.7061C24.9849 23.9788 23.9788 24.9849 22.7061 25.4771C22.1036 25.7113 21.4148 25.8714 20.4065 25.9175C19.3961 25.9635 19.0733 25.9746 16.5003 25.9746C13.9269 25.9746 13.6044 25.9635 12.5938 25.9175C11.5854 25.8714 10.8966 25.7113 10.2941 25.4771C9.66167 25.2392 9.08915 24.8663 8.61582 24.3842C8.13393 23.9111 7.76106 23.3383 7.52314 22.7061C7.28899 22.1036 7.12862 21.4148 7.08279 20.4065C7.03622 19.3959 7.02539 19.0731 7.02539 16.5C7.02539 13.9269 7.03622 13.6041 7.08254 12.5938C7.12836 11.5852 7.28849 10.8966 7.52264 10.2939C7.76056 9.66167 8.13368 9.0889 8.61582 8.61582C9.0889 8.13368 9.66167 7.76081 10.2939 7.52289C10.8966 7.28874 11.5852 7.12862 12.5938 7.08254C13.6041 7.03647 13.9269 7.02539 16.5 7.02539C19.0731 7.02539 19.3959 7.03647 20.4062 7.08279C21.4148 7.12862 22.1034 7.28874 22.7061 7.52264C23.3383 7.76056 23.9111 8.13368 24.3844 8.61582C24.8663 9.08915 25.2394 9.66167 25.4771 10.2939C25.7115 10.8966 25.8716 11.5852 25.9177 12.5938C25.9638 13.6041 25.9746 13.9269 25.9746 16.5C25.9746 19.0731 25.9638 19.3959 25.9175 20.4062Z" fill="black"/>
<path d="M16.5 0C7.38869 0 0 7.38869 0 16.5C0 25.6113 7.38869 33 16.5 33C25.6113 33 33 25.6113 33 16.5C33 7.38869 25.6113 0 16.5 0ZM25.9175 20.4062C25.8716 21.4148 25.7113 22.1034 25.4771 22.7061C24.9849 23.9788 23.9788 24.9849 22.7061 25.4771C22.1036 25.7113 21.4148 25.8714 20.4065 25.9175C19.3961 25.9635 19.0733 25.9746 16.5003 25.9746C13.9269 25.9746 13.6044 25.9635 12.5938 25.9175C11.5854 25.8714 10.8966 25.7113 10.2941 25.4771C9.66167 25.2392 9.08915 24.8663 8.61582 24.3842C8.13393 23.9111 7.76106 23.3383 7.52314 22.7061C7.28899 22.1036 7.12862 21.4148 7.08279 20.4065C7.03622 19.3959 7.02539 19.0731 7.02539 16.5C7.02539 13.9269 7.03622 13.6041 7.08254 12.5938C7.12836 11.5852 7.28849 10.8966 7.52264 10.2939C7.76056 9.66167 8.13368 9.0889 8.61582 8.61582C9.0889 8.13368 9.66167 7.76081 10.2939 7.52289C10.8966 7.28874 11.5852 7.12862 12.5938 7.08254C13.6041 7.03647 13.9269 7.02539 16.5 7.02539C19.0731 7.02539 19.3959 7.03647 20.4062 7.08279C21.4148 7.12862 22.1034 7.28874 22.7061 7.52264C23.3383 7.76056 23.9111 8.13368 24.3844 8.61582C24.8663 9.08915 25.2394 9.66167 25.4771 10.2939C25.7115 10.8966 25.8716 11.5852 25.9177 12.5938C25.9638 13.6041 25.9746 13.9269 25.9746 16.5C25.9746 19.0731 25.9638 19.3959 25.9175 20.4062Z" fill="url(#paint2_linear)"/>
<defs>
<linearGradient id="paint0_linear" x1="16.5" y1="13.3418" x2="16.5" y2="19.6582" gradientUnits="userSpaceOnUse">
<stop stop-color="#FAD905"/>
<stop offset="0.520833" stop-color="#F04777"/>
<stop offset="0.744792" stop-color="#BB229F"/>
<stop offset="1" stop-color="#7A1CC8"/>
</linearGradient>
<linearGradient id="paint1_linear" x1="16.4999" y1="8.73291" x2="16.4999" y2="24.2679" gradientUnits="userSpaceOnUse">
<stop stop-color="#FAD905"/>
<stop offset="0.520833" stop-color="#F04777"/>
<stop offset="0.744792" stop-color="#BB229F"/>
<stop offset="1" stop-color="#7A1CC8"/>
</linearGradient>
<linearGradient id="paint2_linear" x1="16.5" y1="0" x2="16.5" y2="33" gradientUnits="userSpaceOnUse">
<stop stop-color="#FAD905"/>
<stop offset="0.520833" stop-color="#F04777"/>
<stop offset="0.744792" stop-color="#BB229F"/>
<stop offset="1" stop-color="#7A1CC8"/>
</linearGradient>
</defs>
</svg>
