<svg width="33" height="33" viewBox="0 0 33 33" fill="none" xmlns="http://www.w3.org/2000/svg">
<path d="M16.5 33C25.6127 33 33 25.6127 33 16.5C33 7.3873 25.6127 0 16.5 0C7.3873 0 0 7.3873 0 16.5C0 25.6127 7.3873 33 16.5 33Z" fill="#4D76A1"/>
<path fill-rule="evenodd" clip-rule="evenodd" d="M15.8768 23.737H17.1719C17.1719 23.737 17.5631 23.694 17.7628 23.4787C17.9466 23.2811 17.9407 22.9099 17.9407 22.9099C17.9407 22.9099 17.9154 21.1722 18.7219 20.9163C19.517 20.6642 20.5379 22.5957 21.62 23.3384C22.4382 23.9005 23.06 23.7773 23.06 23.7773L25.9534 23.737C25.9534 23.737 27.467 23.6437 26.7493 22.4537C26.6905 22.3563 26.3313 21.5734 24.598 19.9645C22.7838 18.2806 23.0268 18.553 25.2122 15.6402C26.5431 13.8663 27.0752 12.7833 26.909 12.3195C26.7505 11.8777 25.7716 11.9945 25.7716 11.9945L22.5138 12.0148C22.5138 12.0148 22.2724 11.9818 22.0932 12.0889C21.9182 12.1939 21.8056 12.4386 21.8056 12.4386C21.8056 12.4386 21.29 13.8113 20.6023 14.9787C19.1517 17.442 18.5716 17.572 18.3346 17.4191C17.7831 17.0626 17.9207 15.987 17.9207 15.2228C17.9207 12.8357 18.2828 11.8404 17.2157 11.5827C16.8616 11.4971 16.601 11.4406 15.6954 11.4315C14.533 11.4195 13.5491 11.435 12.992 11.708C12.6214 11.8895 12.3355 12.2939 12.5097 12.3171C12.725 12.346 13.2126 12.4486 13.4712 12.8007C13.805 13.2548 13.7932 14.2749 13.7932 14.2749C13.7932 14.2749 13.985 17.085 13.3453 17.4341C12.9061 17.6735 12.3038 17.1847 11.0105 14.9499C10.3478 13.8051 9.8475 12.5398 9.8475 12.5398C9.8475 12.5398 9.75103 12.3033 9.57896 12.1768C9.37013 12.0236 9.07835 11.9748 9.07835 11.9748L5.98266 11.9951C5.98266 11.9951 5.51793 12.008 5.34734 12.2101C5.19557 12.3898 5.33528 12.7616 5.33528 12.7616C5.33528 12.7616 7.7589 18.4318 10.5031 21.2892C13.0194 23.909 15.8768 23.737 15.8768 23.737Z" fill="white"/>
</svg>
