<svg width="33" height="33" viewBox="0 0 33 33" fill="none" xmlns="http://www.w3.org/2000/svg">
<path d="M16.4999 0C25.6131 0 33 7.38787 33 16.5001C33 25.6122 25.6131 33 16.4999 33C7.38674 33 0 25.6121 0 16.5001C0 7.38798 7.38685 0 16.4999 0Z" fill="#C4302B"/>
<path d="M16.102 13.4074C16.6238 13.4074 17.0322 13.2414 17.3313 13.0053C17.6283 12.7681 17.7768 12.4454 17.7768 12.0308V9.5289C17.7768 9.16075 17.6253 8.85649 17.323 8.62245C17.0188 8.38831 16.63 8.27186 16.1535 8.27186C15.6328 8.27186 15.2162 8.38219 14.9078 8.60388C14.5985 8.82658 14.4437 9.1236 14.4437 9.50002V12.01C14.4437 12.4225 14.5943 12.7484 14.8954 12.9928C15.1965 13.2373 15.5998 13.4074 16.102 13.4074ZM15.5566 9.62179C15.5566 9.52687 15.6061 9.45063 15.7041 9.3898C15.8031 9.33101 15.931 9.30212 16.0877 9.30212C16.2589 9.30212 16.3971 9.33101 16.5013 9.3898C16.6065 9.45063 16.6581 9.52698 16.6581 9.62179V11.9998C16.6581 12.1174 16.6065 12.2102 16.5033 12.2773C16.4003 12.3433 16.2621 12.3773 16.0877 12.3773C15.9176 12.3773 15.7856 12.3453 15.6938 12.2783C15.603 12.2132 15.5566 12.1205 15.5566 11.9998V9.62179ZM19.5547 13.4044C19.7382 13.4044 19.9249 13.2991 20.1188 13.194C20.3148 13.0867 20.5014 12.93 20.6809 12.7258V13.2817H21.6555V8.26461H20.6809V12.073C20.5902 12.1813 20.4891 12.271 20.3808 12.3422C20.2705 12.4123 20.1798 12.4484 20.1086 12.4484C20.0169 12.4484 19.9498 12.4226 19.9106 12.368C19.8694 12.3154 19.8467 12.2298 19.8467 12.1122V8.26563H18.8743V12.4577C18.8743 12.7568 18.933 12.9806 19.0454 13.1291C19.1597 13.2785 19.3288 13.4044 19.5547 13.4044ZM22.3886 15.4783H10.6117C8.73894 15.4783 7.22192 16.9375 7.22192 18.735V21.4884C7.22192 23.287 8.73894 24.7462 10.6117 24.7462H22.3885C24.2602 24.7462 25.7782 23.287 25.7782 21.4884V18.735C25.7783 16.9374 24.2603 15.4783 22.3886 15.4783ZM12.3637 18.2729H11.3222V22.5856H10.3147V18.2729H9.27316V17.5376H12.3638C12.3637 17.5376 12.3637 18.2729 12.3637 18.2729ZM15.472 22.6455H14.3861V22.1979C14.184 22.3629 13.9767 22.4897 13.7581 22.5743C13.5425 22.663 13.3321 22.7053 13.128 22.7053C12.8764 22.7053 12.6887 22.6444 12.5608 22.5218C12.435 22.4011 12.3701 22.2196 12.3701 21.9772V18.5721H13.4559V21.6957C13.4559 21.7927 13.4786 21.8608 13.522 21.9041C13.5695 21.9483 13.6447 21.9679 13.7458 21.9679C13.8242 21.9679 13.9273 21.9401 14.049 21.8823C14.1716 21.8256 14.2841 21.7534 14.3862 21.6637V18.571H15.4721C15.472 18.571 15.472 22.6455 15.472 22.6455ZM19.5825 21.87C19.5825 22.1371 19.4978 22.3402 19.3299 22.4836C19.1638 22.6269 18.9184 22.697 18.6018 22.697C18.3904 22.697 18.2027 22.6702 18.0397 22.6156C17.8758 22.561 17.7211 22.4763 17.5808 22.3598V22.6485H16.497V17.5376H17.5808V19.1846C17.7273 19.0712 17.8809 18.9825 18.0408 18.9227C18.2047 18.8619 18.3697 18.833 18.5358 18.833C18.875 18.833 19.1339 18.9124 19.3123 19.0722C19.4928 19.2331 19.5825 19.4693 19.5825 19.7776C19.5825 19.7775 19.5825 21.87 19.5825 21.87ZM23.7137 20.7201H21.7131V21.4564C21.7131 21.6616 21.7461 21.8039 21.8152 21.8843C21.8853 21.9638 22.0039 22.0029 22.17 22.0029C22.3453 22.0029 22.4649 21.969 22.5351 21.9019C22.6031 21.8338 22.6403 21.6863 22.6403 21.4554V21.278H23.7159V21.478C23.7159 21.8781 23.587 22.1793 23.3209 22.3824C23.059 22.5845 22.667 22.6856 22.1463 22.6856C21.6771 22.6856 21.3079 22.5783 21.0388 22.3639C20.7706 22.1515 20.6345 21.8544 20.6345 21.479V19.7238C20.6345 19.3866 20.783 19.1081 21.08 18.8947C21.376 18.6823 21.7555 18.5761 22.2247 18.5761C22.7032 18.5761 23.0713 18.6751 23.3291 18.8721C23.5859 19.0691 23.7138 19.3536 23.7138 19.7229C23.7137 19.7229 23.7137 20.7201 23.7137 20.7201ZM11.7801 13.4189H13.0104V10.421L14.4428 6.19287H13.1919L12.4308 9.08248H12.3524L11.5542 6.19287H10.3136L11.78 10.5561C11.7801 10.5561 11.7801 13.4189 11.7801 13.4189ZM18.0294 19.431L17.8015 19.4681L17.5798 19.5827V21.9318C17.6665 21.9926 17.752 22.0391 17.8346 22.0648L18.0934 22.105C18.2254 22.105 18.3213 22.0792 18.3832 22.0246C18.444 21.972 18.476 21.8854 18.476 21.7668V19.8187C18.476 19.6898 18.4398 19.5939 18.3636 19.529C18.2852 19.4641 18.1749 19.431 18.0294 19.431Z" fill="white"/>
<path d="M22.2276 19.2598C22.0605 19.2598 21.9419 19.2949 21.8687 19.367C21.7966 19.4361 21.7615 19.5537 21.7615 19.7176V20.1116H22.6865V19.7176C22.6865 19.5537 22.6483 19.4372 22.5762 19.367C22.5049 19.2949 22.3864 19.2598 22.2276 19.2598Z" fill="white"/>
</svg>
