<svg width="289" height="347" viewBox="0 0 289 347" fill="none" xmlns="http://www.w3.org/2000/svg">
<mask id="mask0" mask-type="alpha" maskUnits="userSpaceOnUse" x="0" y="0" width="289" height="347">
<rect x="0.5" y="0.5" width="288" height="346" fill="white" stroke="#E5E5E5"/>
</mask>
<g mask="url(#mask0)">
<circle cx="67.9999" cy="23.6617" r="42.4615" fill="#323C8D" fill-opacity="0.03"/>
<circle cx="248.462" cy="66.1235" r="31.8462" fill="#323C8D" fill-opacity="0.03"/>
<path d="M83.9231 331.508C37.2154 314.523 7.84616 285.508 -1 273.123C41.4615 77.8 183 -17.0308 248.462 -40.0308L269.692 -24.1077C91.3539 90.5385 71.5385 260.739 83.9231 331.508Z" fill="#323C8D" fill-opacity="0.03"/>
<path d="M232.539 326.2C202.815 338.938 177.692 342.123 168.846 342.123C164.6 180.769 276.769 80.2766 333.385 50.1997L344 76.7382C250.585 140.43 230.769 269.584 232.539 326.2Z" fill="#323C8D" fill-opacity="0.03"/>
</g>
</svg>
