<svg width="19" height="19" viewBox="0 0 19 19" fill="none" xmlns="http://www.w3.org/2000/svg">
<path d="M17.5626 2.31044C15.6461 0.393916 12.5382 0.393916 10.6218 2.31044L1.07848 11.8537C-0.359493 13.2917 -0.359493 15.6216 1.07848 17.0597C2.26371 18.2449 4.05139 18.4363 5.44889 17.667C5.59488 17.6596 5.73843 17.6044 5.85012 17.494L15.3933 7.95077C16.3516 6.99253 16.3516 5.43919 15.3933 4.48096C14.4351 3.52272 12.8818 3.52272 11.9235 4.48096L4.11519 12.2893C3.87591 12.5285 3.87591 12.9175 4.11519 13.1567C4.35446 13.396 4.7434 13.396 4.98262 13.1567L12.791 5.3484C13.2707 4.86866 14.0473 4.86866 14.5259 5.3484C15.0056 5.82814 15.0056 6.60478 14.5259 7.08333L5.41577 16.1934C4.45754 17.1516 2.90421 17.1516 1.94597 16.1934C0.987738 15.2352 0.987738 13.6818 1.94597 12.7236L11.4892 3.17788C12.9272 1.7399 15.2571 1.7399 16.6952 3.17788C18.1331 4.61586 18.1331 6.94584 16.6952 8.38387L8.01939 17.0597C7.78011 17.2989 7.78011 17.6879 8.01939 17.9271C8.25866 18.1664 8.6476 18.1664 8.88682 17.9271L17.5626 9.2513C19.4791 7.33483 19.4791 4.22697 17.5626 2.31044Z" fill="#323C8D"/>
</svg>
