<svg width="41" height="41" viewBox="0 0 41 41" fill="none" xmlns="http://www.w3.org/2000/svg">
<path d="M20.5 41C18.614 41 16.7963 40.754 15.047 40.262C13.2977 39.7698 11.6645 39.0798 10.1475 38.1915C8.6305 37.3032 7.25017 36.2372 6.0065 34.9935C4.76283 33.75 3.69683 32.3695 2.8085 30.8525C1.92017 29.3354 1.23 27.7023 0.738 25.9529C0.246 24.2037 0 22.386 0 20.5C0 18.614 0.246 16.7963 0.738 15.047C1.23 13.2977 1.92017 11.6645 2.8085 10.1475C3.69683 8.6305 4.76283 7.25017 6.0065 6.0065C7.25017 4.76283 8.6305 3.69683 10.1475 2.8085C11.6645 1.92017 13.2977 1.23 15.047 0.738C16.7963 0.246 18.614 0 20.5 0C23.3153 0 25.9735 0.539833 28.4745 1.6195C30.9755 2.69917 33.1485 4.1615 34.9935 6.0065C36.8385 7.8515 38.3008 10.0245 39.3805 12.5255C40.4602 15.0265 41 17.6847 41 20.5C41 22.386 40.754 24.2037 40.262 25.953C39.7698 27.7021 39.0798 29.3353 38.1915 30.8525C37.3032 32.3695 36.2372 33.7498 34.9935 34.9935C33.75 36.2372 32.3695 37.3034 30.8525 38.1915C29.3354 39.0798 27.7023 39.77 25.9529 40.262C24.2037 40.754 22.386 41 20.5 41ZM30.381 12.054H10.947C10.7557 12.054 10.5917 12.1155 10.455 12.2385C10.3183 12.3615 10.25 12.5323 10.25 12.751V14.924C10.25 15.0333 10.291 15.088 10.373 15.088L20.582 20.91L20.6642 20.951C20.7187 20.951 20.7599 20.9373 20.7872 20.91L30.6682 15.088C30.7227 15.0607 30.7639 15.047 30.7912 15.047C30.8183 15.047 30.8595 15.0333 30.9142 15.006C31.0235 15.006 31.0782 14.9513 31.0782 14.842V12.751C31.0782 12.5323 31.0098 12.3615 30.873 12.2385C30.7362 12.1155 30.5723 12.054 30.381 12.054ZM16.441 20.787C16.4683 20.7597 16.482 20.7186 16.482 20.664C16.482 20.5818 16.4547 20.541 16.4 20.541L10.537 17.1789C10.455 17.1516 10.3867 17.1516 10.332 17.1789C10.2773 17.1789 10.25 17.2199 10.25 17.3019V26.1169C10.25 26.1991 10.291 26.2536 10.373 26.2809H10.455C10.5097 26.2809 10.537 26.2673 10.537 26.2399L16.441 20.787ZM23.575 21.443C23.5477 21.3608 23.4791 21.3473 23.3698 21.402L21.1148 22.714C20.8415 22.878 20.5547 22.878 20.2538 22.714L18.2858 21.6072C18.2038 21.5525 18.1355 21.5525 18.0808 21.6072L10.5778 28.5772C10.5505 28.6043 10.5368 28.6592 10.5368 28.741C10.5368 28.7683 10.5641 28.8094 10.6188 28.864C10.7828 28.9187 10.8921 28.9462 10.9468 28.9462H30.1759C30.2305 28.9462 30.2854 28.9189 30.3399 28.864C30.3399 28.7547 30.3262 28.6865 30.2989 28.659L23.575 21.443ZM30.955 17.015H30.7912L25.2152 20.336C25.1607 20.336 25.1332 20.377 25.1332 20.459C25.1059 20.4863 25.1195 20.5273 25.174 20.5818L30.75 26.609C30.8047 26.6637 30.8457 26.6912 30.873 26.6912H30.955C31.0372 26.609 31.0782 26.5545 31.0782 26.5272V17.1791C31.078 17.1243 31.037 17.0697 30.955 17.015Z" fill="#9E346A"/>
</svg>
