<svg width="41" height="41" viewBox="0 0 41 41" fill="none" xmlns="http://www.w3.org/2000/svg">
<g clip-path="url(#clip0)">
<path d="M20.5009 0C9.17993 0 0.000976562 9.17897 0.000976562 20.5C0.000976562 31.8209 9.17993 41 20.5009 41C31.8219 41 41.0007 31.8208 41.0007 20.5C41.0008 9.17897 31.8219 0 20.5009 0ZM31.3263 29.9118L29.6849 31.5535C29.3918 31.8461 28.5337 32.0287 28.5062 32.0287C23.3136 32.074 18.3138 30.0344 14.6403 26.3605C10.9568 22.6748 8.91477 17.6573 8.96961 12.4471C8.96961 12.4448 9.15754 11.6113 9.45033 11.3213L11.0916 9.67971C11.6923 9.07631 12.846 8.80363 13.6542 9.07403L13.9995 9.1892C14.8054 9.45934 15.6515 10.3504 15.8741 11.1713L16.6997 14.2016C16.9224 15.0249 16.6221 16.1961 16.0216 16.7967L14.9257 17.8929C16.0017 21.8763 19.1272 25.0025 23.1114 26.0811L24.2069 24.9847C24.8103 24.3813 25.9811 24.0812 26.8026 24.3036L29.8325 25.1322C30.6536 25.3578 31.5444 26.1985 31.8145 27.0042L31.9297 27.3544C32.1974 28.1604 31.9268 29.3139 31.3263 29.9118Z" fill="#9E346A"/>
</g>
<defs>
<clipPath id="clip0">
<rect width="41" height="41" fill="white"/>
</clipPath>
</defs>
</svg>
