<svg width="62" height="62" viewBox="0 0 62 62" fill="none" xmlns="http://www.w3.org/2000/svg">
<path d="M61.0479 21.7385L52.5314 13.222L46.4948 7.18534C46.4942 7.18473 46.4936 7.18401 46.493 7.1834C46.4927 7.18316 46.4924 7.18292 46.492 7.18255L40.262 0.952645C39.6476 0.338336 38.831 0 37.9623 0C37.0935 0 36.2769 0.338215 35.6624 0.952523L30.128 6.48699L27.8891 4.24809C26.9093 3.26832 25.3151 3.26832 24.3353 4.24809L23.08 5.50347L10.6662 17.9174C9.68639 18.8972 9.68639 20.4914 10.6662 21.4711L12.9051 23.71L7.37059 29.2445C6.75628 29.8588 6.41794 30.6755 6.41794 31.5442C6.41794 32.4129 6.75616 33.2296 7.37047 33.844L11.6125 38.086L5.21439 44.4842C4.74152 44.957 4.74152 45.7238 5.21439 46.1968C5.45089 46.4333 5.76077 46.5515 6.07065 46.5515C6.38052 46.5515 6.69053 46.4333 6.9269 46.1968L13.325 39.7987L13.6011 40.0748C13.6011 40.0748 13.6012 40.0749 13.6012 40.075C13.6013 40.0751 13.6015 40.0753 13.6016 40.0754L16.907 43.3807L0.355142 59.9328C-0.117729 60.4057 -0.117729 61.1724 0.355142 61.6454C0.591638 61.8818 0.901517 62 1.2114 62C1.52127 62 1.83127 61.8818 2.06765 61.6453L18.6198 45.0933L22.2238 48.6972L14.5793 56.3418C14.1064 56.8146 14.1064 57.5814 14.5793 58.0544C14.8157 58.2909 15.1257 58.4091 15.4356 58.4091C15.7454 58.4091 16.0554 58.2908 16.2918 58.0544L23.9363 50.4098L28.1566 54.6299C28.7709 55.2442 29.5875 55.5824 30.4563 55.5824C31.325 55.5824 32.1417 55.2441 32.756 54.6299L51.3333 36.0526C51.8062 35.5798 51.8062 34.813 51.3333 34.34C50.8604 33.8671 50.0937 33.8671 49.6207 34.34L31.0433 52.9175C30.8865 53.0743 30.678 53.1606 30.4561 53.1606C30.2343 53.1606 30.0258 53.0743 29.8688 52.9175L24.7927 47.8414C24.7926 47.8412 24.7926 47.8411 24.7925 47.841C24.7923 47.8409 24.7922 47.8407 24.7921 47.8407L18.2059 41.2545C18.7542 41.0958 19.2805 40.8343 19.7546 40.4678L29.2077 33.1632L29.8977 33.8532C30.1247 34.0803 30.4328 34.2079 30.7539 34.2079C31.0751 34.2079 31.3831 34.0803 31.6102 33.8532L32.1974 33.266L33.4341 34.5029C34.466 35.5348 35.8217 36.0508 37.1773 36.0508C38.5329 36.0508 39.8885 35.5348 40.9206 34.5029C41.9205 33.503 42.4711 32.1736 42.4711 30.7596C42.4711 29.3456 41.9205 28.0163 40.9206 27.0165L39.6839 25.7796L40.271 25.1925C40.7439 24.7196 40.7439 23.9528 40.271 23.48L39.581 22.79L46.8857 13.3369C47.2522 12.8626 47.5131 12.3361 47.6717 11.7876L50.8188 14.9347L59.3353 23.4513C59.4921 23.6081 59.5785 23.8166 59.5785 24.0384C59.5785 24.2603 59.4921 24.4688 59.3352 24.6256L56.4706 27.4902C55.9977 27.9631 55.9977 28.7299 56.4706 29.2028C56.7071 29.4393 57.017 29.5575 57.3269 29.5575C57.6367 29.5575 57.9467 29.4393 58.1831 29.2028L61.0477 26.3383C61.662 25.7239 62.0002 24.9072 62.0002 24.0384C62.0002 23.1697 61.6623 22.3528 61.0479 21.7385ZM12.3787 19.7586C12.3432 19.7233 12.3432 19.6654 12.3787 19.63L24.7926 7.2161L26.048 5.96072C26.0545 5.95406 26.0746 5.93408 26.1123 5.93408C26.1499 5.93408 26.17 5.95406 26.1766 5.96072L28.4155 8.19962L14.6177 21.9975L12.3787 19.7586ZM29.5797 30.11L36.5279 23.1617L37.7023 24.3362L37.1157 24.9228C37.1155 24.923 37.1153 24.9232 37.1151 24.9234L31.3412 30.6973C31.341 30.6975 31.3409 30.6976 31.3406 30.6979L30.754 31.2846L29.5797 30.11ZM39.2082 28.7289C39.7506 29.2713 40.0493 29.9925 40.0493 30.7595C40.0493 31.5266 39.7506 32.2479 39.2082 32.7902C38.0886 33.91 36.2666 33.91 35.1468 32.7902L33.9101 31.5534L37.9715 27.492L39.2082 28.7289ZM44.9695 11.856L37.8546 21.0634L37.3842 20.593C37.1571 20.3659 36.849 20.2383 36.5279 20.2383C36.2068 20.2383 35.8987 20.3659 35.6717 20.593L27.0109 29.2537C26.538 29.7266 26.538 30.4933 27.0109 30.9662L27.4814 31.4367L18.274 38.5515C17.383 39.2402 16.1105 39.1589 15.3142 38.3625C15.3141 38.3624 15.314 38.3623 15.3139 38.3621L9.08322 32.1315C8.9264 31.9747 8.83994 31.7662 8.83994 31.5443C8.83994 31.3225 8.92628 31.1139 9.08322 30.9571L37.3751 2.66503C37.5319 2.50821 37.7404 2.42188 37.9623 2.42188C38.1841 2.42188 38.3926 2.50821 38.5494 2.66503L44.7808 8.89639C45.5768 9.69271 45.6579 10.9649 44.9695 11.856Z" fill="#A71C60"/>
<path d="M11.8442 59.5781C11.5258 59.5781 11.2133 59.7077 10.9881 59.9329C10.7629 60.1582 10.6333 60.4706 10.6333 60.7891C10.6333 61.1075 10.7629 61.42 10.9881 61.6452C11.2133 61.8704 11.5258 62 11.8442 62C12.1627 62 12.4751 61.8704 12.7004 61.6452C12.9256 61.42 13.0552 61.1075 13.0552 60.7891C13.0552 60.4706 12.9256 60.1582 12.7004 59.9329C12.4751 59.7077 12.1627 59.5781 11.8442 59.5781Z" fill="#A71C60"/>
<path d="M53.894 30.5532C53.5756 30.5532 53.2631 30.6828 53.0379 30.908C52.8127 31.1333 52.6831 31.4457 52.6831 31.7642C52.6831 32.0826 52.8127 32.3951 53.0379 32.6203C53.2631 32.8455 53.5756 32.9751 53.894 32.9751C54.2137 32.9751 54.5249 32.8455 54.7502 32.6203C54.9766 32.3951 55.105 32.0826 55.105 31.7642C55.105 31.4457 54.9766 31.1333 54.7502 30.908C54.5249 30.6828 54.2137 30.5532 53.894 30.5532Z" fill="#A71C60"/>
</svg>
