<svg width="69" height="69" viewBox="0 0 69 69" fill="none" xmlns="http://www.w3.org/2000/svg">
<path d="M34.5 0C15.4464 0 0 15.4464 0 34.5C0 53.5536 15.4464 69 34.5 69C53.5536 69 69 53.5536 69 34.5C68.9787 15.4554 53.5446 0.021338 34.5 0ZM34.5 66.7C16.7166 66.7 2.3 52.2834 2.3 34.5C2.3 16.7166 16.7166 2.3 34.5 2.3C52.2834 2.3 66.7 16.7166 66.7 34.5C66.6798 52.275 52.275 66.6798 34.5 66.7Z" fill="#323C8D"/>
<path d="M34.4999 6.90002C19.2568 6.90002 6.8999 19.2569 6.8999 34.5C6.8999 49.7431 19.2568 62.1 34.4999 62.1C49.743 62.1 62.0999 49.7431 62.0999 34.5C62.0819 19.2642 49.7357 6.91799 34.4999 6.90002ZM35.6499 59.7714V56.35C35.6499 55.7149 35.135 55.2 34.4999 55.2C33.8648 55.2 33.3499 55.7149 33.3499 56.35V59.7714C20.2889 59.1616 9.83835 48.7111 9.22854 35.65H12.6499C13.285 35.65 13.7999 35.1351 13.7999 34.5C13.7999 33.8649 13.285 33.35 12.6499 33.35H9.22854C9.83835 20.289 20.2889 9.83848 33.3499 9.22866V12.65C33.3499 13.2851 33.8648 13.8 34.4999 13.8C35.135 13.8 35.6499 13.2851 35.6499 12.65V9.22866C48.7109 9.83848 59.1614 20.289 59.7713 33.35H56.3499C55.7148 33.35 55.1999 33.8649 55.1999 34.5C55.1999 35.1351 55.7148 35.65 56.3499 35.65H59.7713C59.1614 48.7111 48.7109 59.1616 35.6499 59.7714Z" fill="#323C8D"/>
<path d="M49.4499 33.35H37.7382C37.2525 31.9765 35.9565 31.0562 34.4999 31.05C33.9867 31.0517 33.4808 31.1696 33.0198 31.3947L33.013 31.3846L20.363 18.7346C19.9115 18.2989 19.1945 18.3051 18.7509 18.7487C18.3073 19.1923 18.3011 19.9094 18.7368 20.3608L31.3868 33.0108L31.3969 33.0176C31.1712 33.4791 31.0522 33.9862 31.0499 34.5C31.0466 36.1784 32.2544 37.6142 33.9086 37.8989C35.5629 38.183 37.1806 37.2329 37.7382 35.65H49.4499C50.085 35.65 50.5999 35.1351 50.5999 34.5C50.5999 33.8649 50.085 33.35 49.4499 33.35ZM34.4999 35.65C33.8648 35.65 33.3499 35.1351 33.3499 34.5C33.3499 33.8649 33.8648 33.35 34.4999 33.35C35.135 33.35 35.6499 33.8649 35.6499 34.5C35.6499 35.1351 35.135 35.65 34.4999 35.65Z" fill="#323C8D"/>
</svg>
