<svg width="58" height="58" viewBox="0 0 58 58" fill="none" xmlns="http://www.w3.org/2000/svg">
<g clip-path="url(#clip0)">
<path d="M1.28613 52.8599C1.28613 55.6974 3.74269 58 6.7145 58H38.5803C41.2434 58 43.4606 56.1487 43.8922 53.7214C46.4511 53.3226 48.4111 51.2009 48.4111 48.6465V25.4919H51.0011C51.1815 25.4956 51.3587 25.4463 51.5113 25.3508L56.249 22.2735C56.5144 22.1017 56.6743 21.8071 56.6743 21.491C56.6743 21.1754 56.5144 20.8808 56.249 20.709L51.5113 17.6006C51.3619 17.4942 51.1847 17.4325 51.0011 17.4234H48.4111V12.3203C48.3878 12.0065 48.2376 11.7159 47.9955 11.515L37.2109 0.528051C37.1506 0.441719 37.0766 0.365894 36.9912 0.304229L36.962 0.276822C36.7856 0.0986782 36.5449 -0.00135645 36.2946 1.38959e-05H11.1553C8.49228 1.38959e-05 6.25589 1.8518 5.82423 4.27867C3.26536 4.67743 1.28613 6.79917 1.28613 9.35348V52.8599ZM17.1894 23.621V19.2944H50.0482V23.621H17.1894ZM51.9192 22.8522V20.1362L54.0062 21.4942L51.9192 22.8522ZM37.4192 3.36967L45.1767 11.3428H38.6694C38.3446 11.3501 38.0299 11.2281 37.7956 11.0034C37.5608 10.7786 37.4256 10.4694 37.4192 10.1446V3.36967ZM11.1553 1.87098H35.5482V10.1446C35.5624 11.8543 36.9597 13.2283 38.6694 13.2137H46.5402V17.4234H16.3005C15.7647 17.4444 15.3362 17.8756 15.3184 18.4114V18.5311L12.5343 18.4758H12.5261C12.004 18.4895 11.5888 18.918 11.5906 19.4401L11.6199 23.5118C11.624 24.0257 12.0419 24.44 12.5553 24.4395H15.3184V24.577C15.3184 25.0936 15.7843 25.4919 16.3005 25.4919H18.277L18.2642 26.8952C18.2559 27.4301 18.4565 27.9471 18.8228 28.3368C19.138 28.673 19.5742 28.8694 20.0346 28.8831H31.3934C31.91 28.8831 32.3289 28.4642 32.3289 27.9476C32.3289 27.431 31.91 27.0121 31.3934 27.0121H20.1388C20.137 26.8952 20.1356 26.9536 20.1356 26.9395L20.1488 25.4919H46.5402V48.6465C46.5402 50.4522 44.9615 51.9194 43.0216 51.9194H11.1553C9.21536 51.9194 7.60065 50.4522 7.60065 48.6465V5.2886C7.60065 5.2411 7.63125 5.19268 7.63125 5.14335C7.63399 5.10315 7.63399 5.06295 7.63125 5.0223C7.69977 3.27238 9.25921 1.87098 11.1553 1.87098ZM15.3184 22.5686H13.4844L13.4447 20.3801L15.3184 20.4021V22.5686ZM3.1571 9.35348C3.1571 7.85342 4.32646 6.58677 5.72968 6.20034V48.6465C5.72968 51.4836 8.18396 53.7903 11.1553 53.7903H41.9523C41.5197 55.1936 40.1727 56.129 38.5803 56.129H6.7145C4.77456 56.129 3.1571 54.6655 3.1571 52.8599V9.35348Z" fill="#A71C60"/>
<path d="M12.5659 33.2096H27.9465C28.4631 33.2096 28.882 32.7907 28.882 32.2741C28.882 31.7575 28.4631 31.3386 27.9465 31.3386H12.5659C12.0488 31.3386 11.6304 31.7575 11.6304 32.2741C11.6304 32.7907 12.0488 33.2096 12.5659 33.2096Z" fill="#A71C60"/>
<path d="M12.5659 37.7701H39.3336C39.8506 37.7701 40.2691 37.3513 40.2691 36.8347C40.2691 36.318 39.8506 35.8992 39.3336 35.8992H12.5659C12.0488 35.8992 11.6304 36.318 11.6304 36.8347C11.6304 37.3513 12.0488 37.7701 12.5659 37.7701Z" fill="#A71C60"/>
<path d="M12.5659 42.3307H39.3336C39.8506 42.3307 40.2691 41.9118 40.2691 41.3952C40.2691 40.8786 39.8506 40.4597 39.3336 40.4597H12.5659C12.0488 40.4597 11.6304 40.8786 11.6304 41.3952C11.6304 41.9118 12.0488 42.3307 12.5659 42.3307Z" fill="#A71C60"/>
<path d="M12.5659 46.891H39.3336C39.8506 46.891 40.2691 46.4721 40.2691 45.9555C40.2691 45.4389 39.8506 45.02 39.3336 45.02H12.5659C12.0488 45.02 11.6304 45.4389 11.6304 45.9555C11.6304 46.4721 12.0488 46.891 12.5659 46.891Z" fill="#A71C60"/>
</g>
<defs>
<clipPath id="clip0">
<rect width="58" height="58" fill="white"/>
</clipPath>
</defs>
</svg>
