<svg width="45" height="45" viewBox="0 0 45 45" fill="none" xmlns="http://www.w3.org/2000/svg">
<path d="M8.5532 44.9981C8.91712 44.9981 9.21238 44.7032 9.21238 44.339V27.5831C9.21238 26.5974 8.41038 25.7954 7.42435 25.7954H1.78802C0.802002 25.7954 0 26.5974 0 27.5831V44.339C0 44.7032 0.295258 44.9981 0.65918 44.9981H8.5532ZM1.31836 27.5831C1.31836 27.3242 1.52882 27.1138 1.78802 27.1138H7.42435C7.68322 27.1138 7.89368 27.3242 7.89368 27.5831V43.6798H1.31836V27.5831Z" fill="#ECECEC"/>
<path d="M13.7169 21.375C12.7312 21.375 11.9292 22.177 11.9292 23.163V44.3392C11.9292 44.7034 12.2241 44.9984 12.5884 44.9984H20.4821C20.8463 44.9984 21.1412 44.7034 21.1412 44.3392V23.163C21.1412 22.177 20.3392 21.375 19.3536 21.375H13.7169ZM19.8229 23.163V43.68H13.2472V23.163C13.2472 22.9042 13.458 22.6934 13.7169 22.6934H19.3532C19.6124 22.6934 19.8229 22.9042 19.8229 23.163Z" fill="#ECECEC"/>
<path d="M33.0708 44.3393V18.7429C33.0708 17.7568 32.2688 16.9548 31.2828 16.9548H25.6464C24.6604 16.9548 23.8584 17.7568 23.8584 18.7429V44.3393C23.8584 44.7036 24.1537 44.9985 24.5176 44.9985H32.4116C32.7755 44.9985 33.0708 44.7036 33.0708 44.3393ZM31.7524 43.6801H25.1768V18.7429C25.1768 18.484 25.3872 18.2732 25.6464 18.2732H31.2828C31.5416 18.2732 31.7521 18.484 31.7521 18.7429V43.6801H31.7524Z" fill="#ECECEC"/>
<path d="M36.4468 44.9983H44.3405C44.7044 44.9983 44.9996 44.7034 44.9996 44.3392V14.3221C44.9996 13.3364 44.1976 12.5344 43.2116 12.5344H37.5753C36.5896 12.5344 35.7876 13.3364 35.7876 14.3221V44.3392C35.7876 44.7034 36.0825 44.9983 36.4468 44.9983ZM37.106 14.3221C37.106 14.0632 37.3164 13.8528 37.5753 13.8528H43.2116C43.4705 13.8528 43.6813 14.0632 43.6813 14.3221V43.68H37.106V14.3221Z" fill="#ECECEC"/>
<path d="M38.9028 9.35993C39.2018 9.79045 39.7099 10.0112 40.2287 9.93671C40.7475 9.86186 41.1725 9.50652 41.338 9.00939L43.5909 2.23838C43.7289 1.82296 43.665 1.3787 43.4151 1.01924C43.1655 0.659782 42.7714 0.444862 42.334 0.429413L35.2028 0.176727C34.6768 0.157501 34.1976 0.432503 33.9462 0.892555C33.6953 1.35261 33.7251 1.9057 34.0242 2.33623L34.7688 3.40842C30.9154 5.63178 21.8321 10.1207 9.456 11.435C9.0938 11.4734 8.8315 11.7982 8.86995 12.1601C8.906 12.4986 9.19199 12.7499 9.52467 12.7496C9.54801 12.7496 9.57136 12.7485 9.59505 12.7461C22.9386 11.3292 32.5441 6.28478 36.0546 4.18159C36.377 3.98864 36.4717 3.54919 36.2572 3.2402C36.2572 3.2402 35.1276 1.61422 35.107 1.58469C35.0789 1.54418 35.1084 1.49337 35.1558 1.49406C35.1558 1.49406 42.2577 1.74571 42.2873 1.74674C42.3254 1.74812 42.3515 1.78622 42.3398 1.82227C42.3398 1.82227 40.0907 8.58196 40.0869 8.59294C40.0722 8.63792 40.0117 8.64581 39.9853 8.60771L38.9653 7.13931C38.7662 6.8523 38.3782 6.77093 38.0805 6.95255C36.5428 7.89188 33.971 9.32628 30.4488 10.8263C30.1137 10.9691 29.9579 11.356 30.1007 11.6911C30.2435 12.0262 30.6304 12.182 30.9655 12.0392C34.1818 10.6694 36.6273 9.34963 38.2347 8.39828L38.9028 9.35993Z" fill="#ECECEC"/>
<path d="M6.93269 12.9747C7.29593 12.951 7.57093 12.6368 7.5469 12.2736C7.52321 11.9104 7.20872 11.6357 6.84583 11.6594C5.41521 11.7535 3.97497 11.8015 2.56494 11.8015C2.20068 11.8015 1.90576 12.0964 1.90576 12.4607V17.1968C1.90576 17.5608 2.20068 17.856 2.56494 17.856C13.4795 17.856 22.5865 15.2749 28.3042 13.1099C28.6448 12.9812 28.8164 12.6004 28.6873 12.2602C28.5586 11.9196 28.1778 11.748 27.8376 11.877C22.3379 13.9593 13.6467 16.4336 3.22412 16.5342V13.1164C4.45081 13.1037 5.69536 13.0564 6.93269 12.9747Z" fill="#ECECEC"/>
</svg>
