<svg width="66" height="66" viewBox="0 0 66 66" fill="none" xmlns="http://www.w3.org/2000/svg">
<g clip-path="url(#clip0)">
<path d="M65.9859 39.508C65.9859 30.7478 62.3772 19.2924 52.3336 15.1808V10.7916L55.3201 8.40247C55.5898 8.18645 55.7468 7.8595 55.7467 7.51393V1.14288C55.7467 0.514588 55.2373 0.00518799 54.609 0.00518799H51.196C50.8942 0.00518799 50.6049 0.125214 50.3916 0.338531L48.9206 1.80956L47.4496 0.338531C47.2362 0.125214 46.947 0.00518799 46.6452 0.00518799H42.0945C41.7927 0.00518799 41.5034 0.125214 41.2901 0.338531L39.8191 1.80956L38.348 0.338531C38.1347 0.125214 37.8455 0.00518799 37.5437 0.00518799H34.1306C33.5023 0.00518799 32.993 0.514588 32.993 1.14288V7.51393C32.9928 7.8595 33.1498 8.18645 33.4196 8.40247L36.406 10.7916V15.1808C26.3625 19.2924 22.7538 30.7524 22.7538 39.508C22.7324 41.5622 23.0515 43.606 23.698 45.556C23.2088 45.5286 22.7162 45.5127 22.2247 45.5127H19.3407C19.3407 44.8844 18.8313 44.375 18.203 44.375H9.1015C8.47322 44.375 7.96382 44.8844 7.96382 45.5127H0V47.7881H7.96382V59.165H0V61.4404H7.96382C7.96382 62.0686 8.47322 62.578 9.1015 62.578H18.203C18.8313 62.578 19.3407 62.0686 19.3407 61.4404V61.0069L27.8347 64.5337C32.4651 66.4249 37.6417 66.4823 42.3129 64.6941L59.8879 57.992C60.929 57.5964 61.7669 56.7979 62.2122 55.7769C62.8957 54.252 62.6057 52.4667 61.475 51.2364C64.5373 48.12 66.1706 43.8735 65.9859 39.508ZM17.0653 60.3027H10.2392V46.6504H17.0653V60.3027ZM35.2683 6.96784V2.28056H37.0727L39.0147 4.2226C39.459 4.66672 40.1792 4.66672 40.6234 4.2226L42.5655 2.28056H46.1742L48.1162 4.2226C48.5605 4.66672 49.2807 4.66672 49.7249 4.2226L51.667 2.28056H53.4713V6.96784L50.7966 9.1067H37.9408L35.2683 6.96784ZM50.0583 11.3821V14.7951H38.6814V11.3821H50.0583ZM60.1257 54.86C59.9247 55.3244 59.5449 55.6883 59.0722 55.8691L41.4972 62.5701C37.3675 64.152 32.7906 64.1028 28.6959 62.4324L19.3407 58.5427V47.7881H22.2247C25.997 47.7925 29.717 48.6707 33.0931 50.3536C34.2079 50.9101 35.4366 51.2002 36.6825 51.2012H45.5075C46.4499 51.2073 47.2091 51.9762 47.203 52.9186C47.1978 53.7081 46.6519 54.3911 45.883 54.5699C45.7339 54.5835 45.5883 54.6142 45.437 54.6142H31.8553V56.8896H45.437C45.4609 56.8896 45.4836 56.8896 45.5075 56.8896C45.5303 56.8896 45.5519 56.8828 45.5758 56.8828C46.4787 56.8683 47.3703 56.6793 48.2016 56.3265L57.7138 52.2888C58.1669 52.0954 58.6794 52.0954 59.1325 52.2888C59.6038 52.4877 59.9735 52.8702 60.1564 53.348C60.3497 53.8358 60.3386 54.3806 60.1257 54.86ZM59.4476 50.0134C58.5773 49.7802 57.6542 49.8438 56.8241 50.1943L49.4473 53.3264C49.4688 53.1877 49.4829 53.0479 49.4894 52.9077C49.4894 50.7085 47.7067 48.9258 45.5075 48.9258H36.6825C35.7897 48.9245 34.9092 48.7165 34.1102 48.3183C31.6409 47.0906 28.9963 46.2531 26.2704 45.8358C25.4201 43.8362 24.9973 41.6807 25.0291 39.508C25.0291 31.3166 28.3751 20.5644 37.7712 17.0705H50.9684C60.3646 20.5644 63.7105 31.3166 63.7105 39.508C63.9017 43.466 62.3427 47.3078 59.4476 50.0134Z" fill="#323C8D"/>
<path d="M14.79 55.7518H12.5146V58.0272H14.79V55.7518Z" fill="#323C8D"/>
<path d="M46.7862 32.6044L42.6735 31.2335C42.2299 31.088 41.9882 30.6105 42.1337 30.1669C42.2479 29.8188 42.5732 29.5839 42.9397 29.585H45.7999C46.2669 29.5856 46.6452 29.9644 46.6452 30.4314V31.1778H48.9205V30.4314C48.9193 28.7083 47.523 27.3115 45.7999 27.3096H45.5075V25.0342H43.2321V27.3096H42.9397C41.2163 27.3085 39.818 28.7047 39.8169 30.4282C39.816 31.7732 40.677 32.9675 41.9533 33.3917L46.0661 34.7626C46.5096 34.9081 46.7514 35.3856 46.6059 35.8292C46.4917 36.1773 46.1663 36.4123 45.7999 36.4111H42.9397C42.4727 36.4106 42.0944 36.0317 42.0944 35.5647V34.8184H39.819V35.5647C39.8203 37.2879 41.2165 38.6847 42.9397 38.6865H43.2321V40.9619H45.5075V38.6865H45.7999C47.5233 38.6876 48.9215 37.2914 48.9227 35.568C48.9237 34.2229 48.0626 33.0286 46.7862 32.6044Z" fill="#323C8D"/>
<path d="M44.37 20.4835C37.4584 20.4835 31.8555 26.0865 31.8555 32.9981C31.8636 39.9063 37.4619 45.5045 44.37 45.5126C51.2816 45.5126 56.8846 39.9097 56.8846 32.9981C56.8846 26.0865 51.2816 20.4835 44.37 20.4835ZM44.37 43.2373C38.7152 43.2373 34.1308 38.653 34.1308 32.9981C34.1371 27.3458 38.7177 22.7652 44.37 22.7589C50.0251 22.7589 54.6092 27.3431 54.6092 32.9981C54.6092 38.6531 50.0251 43.2373 44.37 43.2373Z" fill="#323C8D"/>
</g>
<defs>
<clipPath id="clip0">
<rect width="66" height="66" fill="white"/>
</clipPath>
</defs>
</svg>
