<svg width="48" height="48" viewBox="0 0 48 48" fill="none" xmlns="http://www.w3.org/2000/svg">
<g clip-path="url(#clip0)">
<path d="M46.0522 4.65051H41.3164V3.13184C41.3164 1.40515 39.9113 0 38.1842 0H37.3815C36.99 0 36.6721 0.317871 36.6721 0.709351C36.6721 1.10083 36.99 1.41833 37.3815 1.41833H38.1842C39.129 1.41833 39.8977 2.18738 39.8977 3.13184V4.65051H39.3674V3.13184C39.3674 2.47961 38.8368 1.94897 38.1842 1.94897H28.8271C28.1757 1.94897 27.645 2.47961 27.645 3.13184V4.65051H27.1136V3.13184C27.1136 2.18738 27.8823 1.41833 28.8271 1.41833H34.5444C34.9359 1.41833 35.2538 1.10083 35.2538 0.709351C35.2538 0.317871 34.9359 0 34.5444 0H28.8271C27.1005 0 25.6953 1.40515 25.6953 3.13184V4.65051H20.9602C19.8861 4.65051 19.0112 5.52429 19.0112 6.59949V22.5377C19.0112 24.984 21.002 26.9736 23.4475 26.9736H43.5642C46.0105 26.9736 48.0001 24.984 48.0001 22.5377V6.59949C48.0001 5.52429 47.1263 4.65051 46.0522 4.65051ZM29.0637 3.36731H37.9487V4.65051C37.0673 4.65051 30.0078 4.65051 29.0637 4.65051V3.36731ZM46.5818 22.5377C46.5818 24.201 45.2283 25.5549 43.5642 25.5549H23.4475C21.7842 25.5549 20.4299 24.201 20.4299 22.5377V14.057C21.2242 14.9923 22.3024 15.679 23.5295 15.9844V17.4283C23.5295 18.1564 24.1224 18.7485 24.8508 18.7485H26.4677C27.196 18.7485 27.7889 18.1564 27.7889 17.4283V16.1613H39.2228V17.4283C39.2228 18.1564 39.8157 18.7485 40.5437 18.7485H42.1609C42.8889 18.7485 43.4818 18.1564 43.4818 17.4283V15.9844C44.7093 15.6797 45.7875 14.9923 46.5818 14.057V22.5377ZM26.3702 16.1613V17.3298H24.9482V16.1613H26.3702ZM24.9482 14.7426V13.537H26.3702V14.7426H24.9482ZM42.0635 16.1613V17.3298H40.6411V16.1613H42.0635ZM40.6411 14.7426V13.537H42.0635V14.7426H40.6411ZM46.5818 10.2026C46.5818 12.2025 45.2814 13.9047 43.4818 14.5082V13.4396C43.4818 12.7112 42.8889 12.1183 42.1609 12.1183H40.5437C39.8157 12.1183 39.2228 12.7112 39.2228 13.4396V14.7426H27.7889V13.4396C27.7889 12.7112 27.196 12.1183 26.4677 12.1183H24.8508C24.1224 12.1183 23.5295 12.7112 23.5295 13.4396V14.5082C21.73 13.9047 20.4299 12.2025 20.4299 10.2026V6.59949C20.4299 6.30762 20.668 6.06921 20.9602 6.06921H32.2219H32.7178H46.0522C46.3445 6.06921 46.5818 6.30762 46.5818 6.59949V10.2026Z" fill="#ECECEC"/>
<path d="M47.2788 34.4092C46.8862 34.4092 46.5695 34.7271 46.5695 35.1185V46.1078C46.5695 46.3469 46.3746 46.5417 46.1355 46.5417H14.4751C14.0836 46.5417 13.7661 46.8596 13.7661 47.2511C13.7661 47.6426 14.0836 47.9604 14.4751 47.9604H46.1355C47.1569 47.9604 47.9878 47.1292 47.9878 46.1078V35.1185C47.9878 34.7271 47.6703 34.4092 47.2788 34.4092Z" fill="#ECECEC"/>
<path d="M46.1342 27.5183H18.9602C17.9388 27.5183 17.1075 28.3496 17.1075 29.371V36.3517C17.1075 36.5908 16.9127 36.7856 16.6736 36.7856H1.85339C0.831299 36.7856 0 37.6169 0 38.6383V46.1068C0 47.1293 0.831299 47.9606 1.85339 47.9606H11.6382C12.0297 47.9606 12.3472 47.6427 12.3472 47.2512C12.3472 46.8597 12.0297 46.5419 11.6382 46.5419H1.85339C1.61316 46.5419 1.41833 46.347 1.41833 46.1068V38.6383C1.41833 38.3992 1.61316 38.2043 1.85339 38.2043H16.6736C17.6949 38.2043 18.5262 37.373 18.5262 36.3517V29.371C18.5262 29.1318 18.7211 28.937 18.9602 28.937H46.1342C46.3744 28.937 46.5692 29.1318 46.5692 29.371V32.2816C46.5692 32.6742 46.886 32.991 47.2786 32.991C47.67 32.991 47.9875 32.6742 47.9875 32.2816V29.371C47.9875 28.3496 47.1566 27.5183 46.1342 27.5183Z" fill="#ECECEC"/>
<path d="M2.90613 32.278H10.5658C11.9823 32.278 13.1351 31.1255 13.1351 29.7094V20.8815L14.556 23.3425C14.7516 23.6819 15.1855 23.798 15.5247 23.6021C15.8638 23.4062 15.9802 22.9726 15.7843 22.6335L13.0399 17.8801C12.7671 17.4073 12.0837 17.4084 11.8116 17.8801L9.06726 22.6335C8.87134 22.9726 8.98743 23.4062 9.3269 23.6021C9.66602 23.7977 10.0996 23.6819 10.2955 23.3425L11.7164 20.8815V29.709C11.7164 30.3433 11.2004 30.8597 10.5658 30.8597H2.90613C2.51428 30.8597 2.19678 31.1772 2.19678 31.5686C2.19678 31.9605 2.51465 32.278 2.90613 32.278Z" fill="#ECECEC"/>
</g>
<defs>
<clipPath id="clip0">
<rect width="48" height="48" fill="white"/>
</clipPath>
</defs>
</svg>
