<svg width="58" height="58" viewBox="0 0 58 58" fill="none" xmlns="http://www.w3.org/2000/svg">
<path d="M38.7368 37.1967C37.3626 37.1967 36.2446 36.2291 36.2446 35.0397C36.2446 33.8503 37.3626 32.8826 38.7368 32.8826C40.111 32.8826 41.229 33.8503 41.229 35.0397C41.229 35.6653 41.7363 36.1726 42.3618 36.1726C42.9873 36.1726 43.4946 35.6653 43.4946 35.0397C43.4946 32.9639 41.9479 31.2184 39.8696 30.7447V30.1555C39.8696 29.53 39.3623 29.0227 38.7368 29.0227C38.1113 29.0227 37.604 29.53 37.604 30.1555V30.7447C35.5257 31.2184 33.979 32.9639 33.979 35.0397C33.979 37.4783 36.1133 39.4623 38.7368 39.4623C40.111 39.4623 41.229 40.43 41.229 41.6194C41.229 42.8089 40.111 43.7765 38.7368 43.7765C37.3626 43.7765 36.2446 42.8089 36.2446 41.6194C36.2446 40.9939 35.7374 40.4866 35.1118 40.4866C34.4863 40.4866 33.979 40.9939 33.979 41.6194C33.979 43.6953 35.5257 45.4408 37.604 45.9145V46.4039C37.604 47.0294 38.1113 47.5367 38.7368 47.5367C39.3623 47.5367 39.8696 47.0294 39.8696 46.4039V45.9145C41.9479 45.4408 43.4946 43.6953 43.4946 41.6194C43.4946 39.1807 41.3603 37.1967 38.7368 37.1967Z" fill="#A71C60"/>
<path d="M51.1442 30.4586C49.6644 28.1527 47.5796 26.3076 45.1152 25.1229C44.5512 24.8517 43.8743 25.0892 43.6033 25.6531C43.3323 26.217 43.5696 26.8937 44.1335 27.1648C48.4281 29.2292 51.2029 33.6403 51.2029 38.4024C51.2029 40.4401 50.7006 42.4609 49.7505 44.2467C49.4567 44.7989 49.6661 45.485 50.2185 45.7788C50.388 45.869 50.5701 45.9118 50.7496 45.9118C51.1549 45.9118 51.5469 45.6936 51.7506 45.3109C52.8745 43.1988 53.4685 40.8099 53.4685 38.4024C53.4685 35.5749 52.6648 32.828 51.1442 30.4586Z" fill="#A71C60"/>
<path d="M40.5177 23.6759L40.4414 23.6758C39.8159 23.6758 39.3086 24.1829 39.3086 24.8086C39.3086 25.4342 39.8159 25.9414 40.4414 25.9414L40.507 25.9415C40.5088 25.9415 40.5105 25.9415 40.5124 25.9415C41.1356 25.9415 41.6422 25.4379 41.6451 24.814C41.648 24.1884 41.1432 23.6788 40.5177 23.6759Z" fill="#A71C60"/>
<path d="M33.3505 49.64C29.0561 47.5755 26.2812 43.1644 26.2812 38.4024C26.2812 36.3647 26.7835 34.3439 27.7336 32.5582C28.0275 32.0059 27.818 31.3199 27.2657 31.026C26.7135 30.7322 26.0273 30.9416 25.7335 31.494C24.6097 33.6061 24.0156 35.995 24.0156 38.4024C24.0156 41.2299 24.8194 43.9768 26.3399 46.3463C27.8197 48.6521 29.9045 50.4972 32.369 51.682C32.5272 51.7582 32.6944 51.7941 32.859 51.7941C33.2809 51.7941 33.6857 51.5574 33.8808 51.1519C34.1517 50.588 33.9145 49.9111 33.3505 49.64Z" fill="#A71C60"/>
<path d="M37.0429 50.8633L36.9773 50.863C36.3488 50.8619 35.8422 51.3648 35.8394 51.9905C35.8364 52.6162 36.3414 53.1257 36.967 53.1287L37.0429 53.1289C37.6684 53.1289 38.1757 52.6216 38.1757 51.9961C38.1757 51.3705 37.6684 50.8633 37.0429 50.8633Z" fill="#A71C60"/>
<path d="M43.8861 19.8432C43.7482 19.5147 43.5793 19.2051 43.3828 18.9179H46.3319C49.2052 18.9179 51.5429 16.5803 51.5429 13.707C51.5429 10.8337 49.2052 8.49608 46.3319 8.49608H37.2604C37.8371 7.65757 38.1757 6.64314 38.1757 5.55077C38.1757 2.67751 35.838 0.339844 32.9648 0.339844H5.21093C2.33767 0.339844 0 2.67751 0 5.55077C0 8.42403 2.33767 10.7617 5.21093 10.7617H14.2825C13.7058 11.6002 13.3672 12.6146 13.3672 13.707C13.3672 14.7994 13.7056 15.8138 14.2825 16.6523H11.3281C8.45484 16.6523 6.11718 18.99 6.11718 21.8632C6.11718 23.5134 6.88907 24.9859 8.08996 25.9414C6.88907 26.8968 6.11718 28.3693 6.11718 30.0195C6.11718 31.6696 6.88907 33.1422 8.08996 34.0976C6.88907 35.053 6.11718 36.5255 6.11718 38.1757C6.11718 39.8259 6.88907 41.2984 8.08996 42.2538C6.88907 43.2092 6.11718 44.6818 6.11718 46.3319C6.11718 49.2052 8.45484 51.5429 11.3281 51.5429H24.6783C28.1952 55.3046 33.1984 57.6602 38.7422 57.6602C49.361 57.6602 58 49.0211 58 38.4024C58 29.5645 52.0154 22.0992 43.8861 19.8432ZM46.3319 10.7617C47.9561 10.7617 49.2772 12.083 49.2772 13.707C49.2772 15.331 47.9561 16.6523 46.3319 16.6523H39.082H18.5781C16.954 16.6523 15.6328 15.331 15.6328 13.707C15.6328 12.083 16.954 10.7617 18.5781 10.7617H46.3319ZM5.21093 8.49608C3.58682 8.49608 2.26562 7.17477 2.26562 5.55077C2.26562 3.92677 3.58682 2.60546 5.21093 2.60546H32.9648C34.5889 2.60546 35.9101 3.92677 35.9101 5.55077C35.9101 7.17477 34.5889 8.49608 32.9648 8.49608H5.21093ZM11.3281 18.9179H39.082C39.5383 18.9179 39.9752 19.024 40.3671 19.2138C39.8313 19.1688 39.2896 19.1446 38.7422 19.1446C33.4242 19.1446 28.603 21.3116 25.1146 24.8085H11.3281C9.70411 24.8085 8.3828 23.4872 8.3828 21.8632C8.3828 20.2392 9.70411 18.9179 11.3281 18.9179ZM11.3281 27.0742H23.179C21.893 28.836 20.8988 30.8232 20.2673 32.9648H11.3281C9.70399 32.9648 8.3828 31.6436 8.3828 30.0195C8.3828 28.3955 9.70399 27.0742 11.3281 27.0742ZM11.3281 35.2304H19.7472C19.5753 36.2627 19.4845 37.322 19.4845 38.4024C19.4845 39.3252 19.5512 40.2326 19.6773 41.121H11.3281C9.70399 41.121 8.3828 39.7998 8.3828 38.1757C8.3828 36.5516 9.70399 35.2304 11.3281 35.2304ZM11.3281 49.2773C9.70399 49.2773 8.3828 47.9561 8.3828 46.3319C8.3828 44.7078 9.70399 43.3866 11.3281 43.3866H20.1398C20.7114 45.5178 21.64 47.5039 22.8577 49.2773H11.3281ZM38.7422 55.3945C29.3728 55.3945 21.7501 47.7719 21.7501 38.4024C21.7501 29.0329 29.3728 21.4102 38.7422 21.4102C48.1117 21.4102 55.7344 29.0329 55.7344 38.4024C55.7344 47.7719 48.1117 55.3945 38.7422 55.3945Z" fill="#A71C60"/>
</svg>
