<svg width="50" height="50" viewBox="0 0 50 50" fill="none" xmlns="http://www.w3.org/2000/svg">
<path d="M45.0026 31.1019H42.562V30.6663C44.3896 29.9491 45.7984 28.3591 46.2394 26.3801C46.474 26.4457 46.7177 26.4815 46.9676 26.4815C48.4508 26.4815 49.6573 25.2749 49.6573 23.7918C49.6573 23.1269 49.4144 22.518 49.013 22.0481L49.19 21.1852C49.694 18.7266 49.1756 16.2447 47.7309 14.1966C47.4975 13.8659 47.0405 13.7873 46.7101 14.0204C46.3797 14.2534 46.3008 14.7104 46.5339 15.0412C47.7431 16.7551 48.1769 18.8326 47.755 20.8911L47.6912 21.2016C47.4608 21.1371 47.2182 21.1016 46.9672 21.1016C46.9535 21.1016 46.9397 21.1024 46.926 21.1028L46.9985 20.5222C47.2381 20.4073 47.407 20.1666 47.4151 19.8828C47.4269 19.4785 47.1084 19.1412 46.704 19.1298C44.179 19.0573 43.2021 18.5862 43.1143 18.5412C42.8908 18.3951 42.6173 18.3905 42.3812 18.5168C42.158 18.6362 42.0245 18.8681 42.0085 19.1191C39.7994 18.9951 38.7289 18.3352 38.7232 18.3314C38.4981 18.1837 38.2101 18.1715 37.9732 18.2993C37.7364 18.4271 37.5887 18.6747 37.5887 18.944V19.1206C37.3793 19.1096 37.1741 19.0936 36.9734 19.073C36.8269 18.6079 36.5805 18.1868 36.2593 17.8351L36.5153 16.5865C36.7731 15.3284 36.8193 14.0577 36.6663 12.8191C37.7901 12.182 39.065 11.8456 40.3758 11.8456C41.8238 11.8456 43.2265 12.2549 44.4327 13.0285C44.5552 13.1071 44.6921 13.1445 44.8275 13.1445C45.069 13.1445 45.3051 13.0259 45.4448 12.8077C45.6633 12.4674 45.5642 12.0142 45.2239 11.7956C43.7812 10.8702 42.1046 10.3807 40.3754 10.3807C38.9769 10.3807 37.6116 10.7016 36.3775 11.3138C35.9617 9.72461 35.2072 8.22237 34.1364 6.90972C31.9204 4.19402 28.6398 2.63647 25.1348 2.63647C22.5725 2.63647 20.1467 3.45054 18.1195 4.99092C17.7976 5.23544 17.7346 5.69512 17.9795 6.01708C18.2244 6.33942 18.6837 6.4016 19.0057 6.15708C20.7757 4.81201 22.8952 4.10095 25.1348 4.10095C28.1976 4.10095 31.0648 5.46242 33.0011 7.83594C34.9375 10.2091 35.6951 13.2914 35.0802 16.292L34.9444 16.9539C34.5919 16.8253 34.2119 16.7551 33.8156 16.7551C33.7084 16.7551 33.602 16.7605 33.4963 16.7708L33.5501 16.3401C33.8591 16.313 34.1463 16.181 34.3695 15.9598C34.6239 15.7076 34.7639 15.3712 34.7639 15.013V13.3078C34.7639 12.9034 34.4362 12.5753 34.0315 12.5753C33.6271 12.5753 33.2991 12.9034 33.2991 13.3078V14.8794C31.7743 14.8524 28.2587 14.5601 25.6376 12.5818C25.3763 12.385 25.0162 12.385 24.7552 12.5818C22.1341 14.5601 18.6185 14.8524 17.0934 14.8794V13.3078C17.0934 12.9034 16.7657 12.5753 16.361 12.5753C15.9566 12.5753 15.6285 12.9034 15.6285 13.3078V15.013C15.6285 15.3712 15.7689 15.7076 16.023 15.9598C16.216 16.1509 16.4559 16.2756 16.7172 16.3237C16.7176 16.326 16.7176 16.3286 16.718 16.3313L16.7729 16.7704C16.6673 16.7605 16.5608 16.7555 16.4536 16.7555C16.0573 16.7555 15.6774 16.8257 15.3249 16.9539L15.1891 16.2924C14.6089 13.4611 15.2245 10.6169 16.9229 8.28379C17.1613 7.95648 17.0888 7.49872 16.7619 7.2603C16.435 7.02226 15.9768 7.09474 15.7388 7.42166C14.8614 8.62673 14.2373 9.9512 13.8768 11.3394C12.6298 10.7107 11.2466 10.3807 9.82901 10.3807C7.11407 10.3807 4.57309 11.5873 2.85684 13.6908C1.14098 15.7946 0.469592 18.5259 1.01472 21.1856L1.19134 22.0484C0.79041 22.518 0.547412 23.1269 0.547412 23.7918C0.547412 25.2749 1.75401 26.4815 3.23717 26.4815C3.48627 26.4815 3.73041 26.446 3.96502 26.3801C4.406 28.3595 5.81516 29.9491 7.64279 30.6667V31.1023H4.99766C2.24191 31.1019 0 33.3438 0 36.0996V44.0487C0 44.4531 0.328066 44.7811 0.732426 44.7811C1.13679 44.7811 1.46485 44.4531 1.46485 44.0487V36.0996C1.46485 34.1514 3.04949 32.5668 4.99766 32.5668H7.64279V32.7823C7.64279 33.9878 8.62356 34.9685 9.82901 34.9685C11.0345 34.9685 12.0152 33.9878 12.0152 32.7823V32.5668H13.622C12.8686 33.6109 12.4226 34.8911 12.4226 36.2739V46.7423C12.4226 47.147 12.7507 47.4747 13.1551 47.4747C13.5594 47.4747 13.8875 47.147 13.8875 46.7423V36.2739C13.8875 33.5807 16.0787 31.3895 18.7719 31.3895H18.966L17.2555 32.8468C17.0919 32.986 16.998 33.1897 16.998 33.4041V35.8352C16.998 36.2396 17.3257 36.5676 17.7304 36.5676H18.2305L17.6705 38.4956C17.6065 38.7161 17.6496 38.9538 17.7869 39.138L20.223 42.4023V46.7423C20.223 47.147 20.5507 47.4747 20.9554 47.4747C21.3598 47.4747 21.6878 47.147 21.6878 46.7423V31.3895H22.4874V31.9053C22.4874 33.3648 23.6749 34.5519 25.1344 34.5519C26.5939 34.5519 27.7815 33.3648 27.7815 31.9053V31.3895H28.5814V46.7423C28.5814 47.147 28.9091 47.4747 29.3138 47.4747C29.7182 47.4747 30.0463 47.147 30.0463 46.7423V42.4023L32.482 39.138C32.6193 38.9538 32.6628 38.7161 32.5983 38.4956L32.0383 36.5676H32.5388C32.9432 36.5676 33.2712 36.2396 33.2712 35.8352V33.4045C33.2712 33.1897 33.177 32.986 33.0137 32.8468L31.3051 31.3915C33.9628 31.433 36.1124 33.6067 36.1124 36.2739V39.0205C36.1124 39.4249 36.4405 39.7529 36.8449 39.7529C37.2492 39.7529 37.5773 39.4249 37.5773 39.0205V36.2739C37.5773 34.8911 37.1313 33.6109 36.3779 32.5668H38.1892V32.7823C38.1892 33.9878 39.1699 34.9685 40.3754 34.9685C41.5808 34.9685 42.5616 33.9878 42.5616 32.7823V32.5668H45.0026C46.9504 32.5668 48.5351 34.1518 48.5351 36.0996V44.0487C48.5351 44.4531 48.8631 44.7811 49.2675 44.7811C49.6722 44.7811 49.9999 44.4531 49.9999 44.0487V36.0996C50.0003 33.3438 47.7584 31.1019 45.0026 31.1019ZM46.9672 22.5665C47.6428 22.5665 48.1921 23.1162 48.1921 23.7914C48.1921 24.467 47.6428 25.0163 46.9672 25.0163C46.7864 25.0163 46.6117 24.9766 46.4515 24.9018L46.7402 22.5882C46.8146 22.5745 46.8905 22.5665 46.9672 22.5665ZM37.8908 20.5981C37.9008 20.5985 37.9107 20.5985 37.921 20.5985C38.2147 20.5985 38.5016 20.4825 38.7122 20.2776C38.7934 20.1983 38.8613 20.1094 38.9143 20.0133C39.6403 20.2723 40.7664 20.5531 42.3071 20.5977C42.6097 20.6057 42.911 20.4901 43.1292 20.278C43.1723 20.2361 43.2116 20.1914 43.2471 20.1445C43.7491 20.2891 44.4869 20.4424 45.521 20.5306L44.8836 25.635C44.6002 27.9037 42.6623 29.6149 40.3758 29.6149C38.0892 29.6149 36.151 27.9037 35.8675 25.635L35.5257 22.898C36.3512 22.3983 36.9414 21.5476 37.0894 20.5546C37.3514 20.576 37.6189 20.5908 37.8908 20.5981ZM32.5636 23.6941C32.5953 23.5736 32.6239 23.4515 32.6494 23.3283C32.6693 23.2802 32.6925 23.2341 32.7185 23.1887C33.0671 23.3111 33.436 23.3756 33.8156 23.3756C33.914 23.3756 34.0113 23.3702 34.1074 23.3618L34.3001 24.9022C34.1395 24.977 33.9647 25.0167 33.7839 25.0167C33.1083 25.0167 32.559 24.467 32.559 23.7918C32.559 23.759 32.5613 23.7265 32.5636 23.6941ZM33.8156 18.22C34.833 18.22 35.6608 19.0478 35.6608 20.0652C35.6608 21.0826 34.833 21.9107 33.8156 21.9107C33.4837 21.9107 33.1667 21.823 32.8859 21.6582L33.3063 18.2925C33.4707 18.2452 33.6413 18.22 33.8156 18.22ZM25.1966 14.0658C27.5045 15.6214 30.2526 16.1261 32.081 16.2813L31.3017 22.5218C30.9141 25.6255 28.2629 27.9662 25.1348 27.9662C22.0067 27.9662 19.3555 25.6255 18.9679 22.5218L18.1897 16.2913C20.0162 16.1486 22.8368 15.6565 25.1966 14.0658ZM16.0981 23.3561C16.2148 23.3687 16.3335 23.3756 16.4536 23.3756C16.8103 23.3756 17.1624 23.3168 17.4966 23.2058C17.5939 23.3836 17.6457 23.5835 17.6457 23.7914C17.6457 24.467 17.0964 25.0163 16.4208 25.0163C16.2389 25.0163 16.0645 24.9774 15.9047 24.9026L16.0981 23.3561ZM16.9629 18.2917L17.3837 21.659C17.1033 21.8238 16.7871 21.9107 16.4536 21.9107C15.4363 21.9107 14.6085 21.0826 14.6085 20.0652C14.6085 19.0478 15.4363 18.22 16.4536 18.22C16.628 18.22 16.7985 18.2444 16.9629 18.2917ZM3.9921 14.6166C5.42873 12.8553 7.5562 11.8456 9.82901 11.8456C11.1607 11.8456 12.4551 12.192 13.5922 12.8492C13.4461 14.0741 13.4969 15.3311 13.7544 16.5861L14.0103 17.8347C13.7502 18.1197 13.5396 18.45 13.3908 18.8124C12.8613 18.685 12.6103 18.5629 12.568 18.5412C12.3444 18.3951 12.0709 18.3905 11.8348 18.5168C11.6116 18.6362 11.4781 18.8681 11.4621 19.1191C9.2526 18.9948 8.18257 18.3352 8.17647 18.3314C7.95178 18.1837 7.66377 18.1715 7.42688 18.2993C7.18998 18.4271 7.04235 18.6747 7.04235 18.944V19.1206C5.43865 19.0371 4.38693 18.6884 3.77505 18.4004C3.40921 18.228 2.97281 18.3848 2.80039 18.751C2.63597 19.1004 2.77216 19.5136 3.10366 19.7005L3.27875 21.1028C3.26502 21.1028 3.25129 21.102 3.23755 21.102C2.98654 21.102 2.74393 21.1371 2.51352 21.2016L2.44981 20.8911C1.99319 18.6644 2.55548 16.3775 3.9921 14.6166ZM2.01226 23.7918C2.01226 23.1162 2.56197 22.5669 3.23717 22.5669C3.31423 22.5669 3.38976 22.5741 3.46415 22.5878L3.7533 24.9022C3.5927 24.977 3.41799 25.0167 3.23717 25.0167C2.56197 25.0167 2.01226 24.467 2.01226 23.7918ZM5.32115 25.635L4.64824 20.2483C5.36426 20.4283 6.25652 20.5691 7.34448 20.5981C7.3544 20.5985 7.36432 20.5985 7.37462 20.5985C7.66835 20.5985 7.95522 20.4825 8.16579 20.2776C8.24704 20.1987 8.31456 20.1094 8.36797 20.0133C9.09353 20.2723 10.22 20.5531 11.7608 20.5977C12.0637 20.6057 12.3647 20.4901 12.5829 20.278C12.6256 20.2364 12.6645 20.1922 12.7 20.1453C12.8327 20.1838 12.9826 20.2227 13.1501 20.2609C13.2142 21.3538 13.8108 22.3052 14.6836 22.8602L14.3372 25.635C14.0538 27.904 12.1159 29.6149 9.82939 29.6149C7.54285 29.6149 5.60459 27.904 5.32115 25.635ZM9.82901 33.5037C9.43113 33.5037 9.10764 33.1798 9.10764 32.7823V31.0348C9.34454 31.0634 9.58525 31.0798 9.82901 31.0798C10.0728 31.0798 10.3135 31.0638 10.5504 31.0348V32.7823C10.5504 33.1798 10.2269 33.5037 9.82901 33.5037ZM19.1793 38.554L19.9094 36.0397C19.9739 35.8184 19.9304 35.5796 19.7919 35.3954C19.6534 35.2111 19.4364 35.1028 19.206 35.1028H18.4629V33.7428L20.223 32.2433V39.9528L19.1793 38.554ZM18.7719 29.9247C17.381 29.9247 16.0935 30.3756 15.0464 31.1374C14.8511 31.1145 14.6531 31.1019 14.4563 31.1019H12.0152V30.6663C13.8432 29.9491 15.2524 28.3584 15.693 26.3789C15.9287 26.4453 16.1736 26.4815 16.4208 26.4815C17.2357 26.4815 17.9666 26.1172 18.4598 25.5431C19.3555 27.1144 20.7856 28.3301 22.4878 28.958V29.9247H18.7719ZM25.1348 33.0875C24.4829 33.0875 23.9526 32.5568 23.9526 31.9053V29.338C24.3391 29.3983 24.7335 29.4311 25.1348 29.4311C25.5361 29.4311 25.9306 29.3983 26.317 29.338V31.9053C26.317 32.5568 25.7867 33.0875 25.1348 33.0875ZM31.8064 35.1028H31.0633C30.8329 35.1028 30.6162 35.2111 30.4777 35.3954C30.3392 35.5796 30.2957 35.8184 30.3598 36.0397L31.0903 38.554L30.0463 39.9528V32.2433L31.8064 33.7428V35.1028ZM35.544 31.1019C35.3468 31.1019 35.1492 31.1145 34.9539 31.1374C33.9068 30.3756 32.6197 29.9247 31.2284 29.9247H27.7818V28.9577C29.4683 28.3359 30.8878 27.1369 31.785 25.5862C32.2779 26.1348 32.9905 26.4811 33.7839 26.4811C34.0334 26.4811 34.2772 26.4457 34.5121 26.3797C34.9531 28.3591 36.3619 29.9491 38.1895 30.6663V31.1019H35.544ZM40.3758 33.5037C39.9779 33.5037 39.6544 33.1798 39.6544 32.7823V31.0348C39.8913 31.0634 40.1316 31.0798 40.3758 31.0798C40.6195 31.0798 40.8598 31.0638 41.0971 31.0348V32.7823C41.0971 33.1798 40.7733 33.5037 40.3758 33.5037Z" fill="#ECECEC"/>
<path d="M36.7693 23.3893L36.7781 23.6995C36.7888 24.097 37.1146 24.4121 37.5098 24.4121C37.5166 24.4121 37.5231 24.4117 37.53 24.4117C37.9343 24.4006 38.2532 24.0638 38.2422 23.6594L38.2338 23.3493C38.2227 22.9449 37.8863 22.6245 37.4815 22.6371C37.0772 22.6481 36.7583 22.985 36.7693 23.3893Z" fill="#ECECEC"/>
<path d="M43.249 24.4121C43.2555 24.4121 43.2624 24.4117 43.2692 24.4117C43.6736 24.4006 43.9925 24.0638 43.9814 23.6594L43.973 23.3493C43.962 22.9449 43.6255 22.6245 43.2208 22.6371C42.8164 22.6481 42.4975 22.985 42.5086 23.3893L42.517 23.6995C42.528 24.097 42.8534 24.4121 43.249 24.4121Z" fill="#ECECEC"/>
<path d="M38.0382 25.9669C38.5799 26.715 39.4539 27.1617 40.3759 27.1617C41.2979 27.1617 42.1718 26.715 42.7135 25.9669C42.9504 25.6393 42.8772 25.1815 42.5495 24.9442C42.2222 24.7069 41.764 24.7802 41.5268 25.1079C41.2597 25.4768 40.8294 25.6969 40.3759 25.6969C39.9219 25.6969 39.4916 25.4768 39.2246 25.1079C38.9873 24.7802 38.5295 24.7069 38.2019 24.9442C37.8742 25.1815 37.8009 25.6393 38.0382 25.9669Z" fill="#ECECEC"/>
<path d="M45.7939 36.6584C45.3892 36.6584 45.0615 36.9861 45.0615 37.3909V44.0487C45.0615 44.4531 45.3892 44.7811 45.7939 44.7811C46.1983 44.7811 46.5264 44.4531 46.5264 44.0487V37.3909C46.5264 36.9861 46.1983 36.6584 45.7939 36.6584Z" fill="#ECECEC"/>
<path d="M7.69629 23.6594L7.68751 23.3493C7.67645 22.9449 7.34152 22.6245 6.93563 22.6371C6.53127 22.6481 6.21236 22.985 6.22342 23.3893L6.23182 23.6995C6.24288 24.097 6.56827 24.4121 6.96348 24.4121C6.97035 24.4121 6.97721 24.4117 6.98408 24.4117C7.38844 24.4006 7.70735 24.0638 7.69629 23.6594Z" fill="#ECECEC"/>
<path d="M12.7021 24.4121C12.709 24.4121 12.7159 24.4117 12.7223 24.4117C13.1271 24.4006 13.4456 24.0638 13.4345 23.6594L13.4261 23.3493C13.4151 22.9449 13.0802 22.6245 12.6739 22.6371C12.2695 22.6481 11.951 22.985 11.9617 23.3893L11.9705 23.6995C11.9811 24.097 12.3069 24.4121 12.7021 24.4121Z" fill="#ECECEC"/>
<path d="M12.1667 25.9669C12.4039 25.6393 12.3307 25.1815 12.003 24.9442C11.6753 24.7069 11.2172 24.7802 10.9799 25.1079C10.7129 25.4768 10.2826 25.6969 9.82899 25.6969C9.37542 25.6969 8.94474 25.4768 8.67771 25.1079C8.44082 24.7802 7.98267 24.7069 7.65499 24.9442C7.3273 25.1815 7.25406 25.6393 7.49133 25.9669C8.03302 26.715 8.90698 27.1617 9.82899 27.1617C10.751 27.1617 11.625 26.715 12.1667 25.9669Z" fill="#ECECEC"/>
<path d="M4.20655 36.6584C3.80219 36.6584 3.47412 36.9861 3.47412 37.3909V44.0487C3.47412 44.4531 3.80219 44.7811 4.20655 44.7811C4.61129 44.7811 4.93897 44.4531 4.93897 44.0487V37.3909C4.93897 36.9861 4.61129 36.6584 4.20655 36.6584Z" fill="#ECECEC"/>
<path d="M36.8452 41.4131C36.4405 41.4131 36.1128 41.7408 36.1128 42.1455V46.7423C36.1128 47.147 36.4405 47.4747 36.8452 47.4747C37.2496 47.4747 37.5776 47.147 37.5776 46.7423V42.1455C37.5776 41.7408 37.2496 41.4131 36.8452 41.4131Z" fill="#ECECEC"/>
<path d="M21.3615 20.6499H21.3818C21.7861 20.6389 22.105 20.302 22.094 19.8977L22.0829 19.4891C22.0718 19.0844 21.7323 18.7651 21.3307 18.7769C20.9263 18.788 20.6074 19.1248 20.6184 19.5292L20.6295 19.9377C20.6406 20.3352 20.9663 20.6499 21.3615 20.6499Z" fill="#ECECEC"/>
<path d="M28.9182 20.6499H28.9388C29.3431 20.6389 29.6617 20.302 29.6506 19.8977L29.6396 19.4891C29.6285 19.0844 29.2882 18.7651 28.8873 18.7769C28.4829 18.788 28.164 19.1248 28.1751 19.5292L28.1865 19.9377C28.1972 20.3352 28.523 20.6499 28.9182 20.6499Z" fill="#ECECEC"/>
<path d="M25.1352 24.2713C26.275 24.2713 27.3557 23.7189 28.0256 22.7938C28.2625 22.4662 28.1892 22.0084 27.8619 21.7711C27.5342 21.5338 27.0761 21.6071 26.8388 21.9348C26.444 22.4807 25.8069 22.8064 25.1352 22.8064C24.4634 22.8064 23.8263 22.4807 23.4311 21.9348C23.1939 21.6071 22.7361 21.5338 22.4084 21.7711C22.0807 22.0084 22.0075 22.4662 22.2448 22.7938C22.9146 23.7189 23.9949 24.2713 25.1352 24.2713Z" fill="#ECECEC"/>
<path d="M17.7305 40.2178C17.3261 40.2178 16.998 40.5455 16.998 40.9502V46.7425C16.998 47.1472 17.3261 47.4749 17.7305 47.4749C18.1348 47.4749 18.4629 47.1472 18.4629 46.7425V40.9502C18.4629 40.5455 18.1348 40.2178 17.7305 40.2178Z" fill="#ECECEC"/>
<path d="M32.27 40.2178C31.8657 40.2178 31.5376 40.5455 31.5376 40.9502V46.7425C31.5376 47.1472 31.8657 47.4749 32.27 47.4749C32.6744 47.4749 33.0024 47.1472 33.0024 46.7425V40.9502C33.0024 40.5455 32.6744 40.2178 32.27 40.2178Z" fill="#ECECEC"/>
</svg>
