<svg width="50" height="50" viewBox="0 0 50 50" fill="none" xmlns="http://www.w3.org/2000/svg">
<g clip-path="url(#clip0)">
<path d="M34.2473 48.5322H6.45752V12.3286C6.45752 11.9232 6.12891 11.5947 5.72363 11.5947C5.31836 11.5947 4.98975 11.9232 4.98975 12.3286V48.7769C4.98975 49.4514 5.53848 50 6.21289 50H34.2473C34.6525 50 34.9811 49.6715 34.9812 49.2661C34.9812 48.8607 34.6525 48.5322 34.2473 48.5322Z" fill="#ECECEC"/>
<path d="M44.8033 6.63584L38.5654 0.222266C38.4272 0.0801758 38.2375 0 38.0394 0H6.21289C5.53848 0 4.98984 0.548828 4.98975 1.22324V6.94717C4.98975 7.35254 5.31836 7.68105 5.72363 7.68105C6.12891 7.68105 6.45752 7.35254 6.45752 6.94717V1.46787H37.7294L43.5435 7.44561V48.5322H39.3843C38.979 48.5322 38.6504 48.8607 38.6504 49.2661C38.6504 49.6715 38.979 50 39.3843 50H43.788C44.4625 50 45.0111 49.4514 45.0111 48.777V7.14746C45.0111 6.95635 44.9366 6.77285 44.8033 6.63584Z" fill="#ECECEC"/>
<path d="M44.8029 6.63579L38.565 0.222217C38.3567 0.00815417 38.0396 -0.0584474 37.7629 0.0539549C37.4862 0.166357 37.3052 0.435205 37.3052 0.733935V7.14741C37.3052 7.55278 37.6338 7.8813 38.0391 7.8813H44.277C44.572 7.8813 44.8383 7.70474 44.9529 7.43296C45.0677 7.16128 45.0086 6.84712 44.8029 6.63579ZM38.773 6.41353V2.54087L42.5395 6.41353H38.773Z" fill="#ECECEC"/>
<path d="M28.3966 3.89648H10.7144C10.0398 3.89648 9.49121 4.44521 9.49121 5.11963V9.17559C9.49121 9.8501 10.0399 10.3987 10.7144 10.3987H28.3966C29.071 10.3987 29.6197 9.85 29.6197 9.17568V5.11953C29.6197 4.44502 29.071 3.89648 28.3966 3.89648ZM28.152 8.93086H10.959V5.36416H28.152V8.93086Z" fill="#ECECEC"/>
<path d="M16.8211 14.2394C16.4986 13.9944 16.0381 14.0569 15.7928 14.3796L12.5503 18.646L11.5765 17.7939C11.2715 17.5269 10.8079 17.5579 10.5409 17.8629C10.274 18.168 10.305 18.6316 10.61 18.8985L12.1755 20.2683C12.3099 20.3858 12.4819 20.4499 12.6587 20.4499C12.6833 20.4499 12.708 20.4486 12.7328 20.4462C12.9352 20.4256 13.12 20.3221 13.2431 20.1601L16.9613 15.2677C17.2066 14.9451 17.1438 14.4846 16.8211 14.2394Z" fill="#ECECEC"/>
<path d="M38.907 14.0894H20.4233C20.0181 14.0894 19.6895 14.4179 19.6895 14.8232C19.6895 15.2286 20.0181 15.5571 20.4233 15.5571H38.907C39.3123 15.5571 39.6409 15.2286 39.6409 14.8232C39.6409 14.4179 39.3123 14.0894 38.907 14.0894Z" fill="#ECECEC"/>
<path d="M32.4238 16.5359H20.4233C20.0181 16.5359 19.6895 16.8644 19.6895 17.2698C19.6895 17.6751 20.0181 18.0037 20.4233 18.0037H32.4238C32.8291 18.0037 33.1577 17.6751 33.1577 17.2698C33.1577 16.8644 32.8291 16.5359 32.4238 16.5359Z" fill="#ECECEC"/>
<path d="M35.1636 18.9822H20.4233C20.0181 18.9822 19.6895 19.3107 19.6895 19.7161C19.6895 20.1214 20.0181 20.45 20.4233 20.45H35.1636C35.5688 20.45 35.8975 20.1214 35.8975 19.7161C35.8975 19.3107 35.5688 18.9822 35.1636 18.9822Z" fill="#ECECEC"/>
<path d="M16.8211 24.2202C16.4986 23.975 16.0381 24.0376 15.7928 24.3604L12.5503 28.6268L11.5765 27.7746C11.2715 27.5077 10.8079 27.5387 10.5409 27.8437C10.274 28.1488 10.305 28.6123 10.61 28.8792L12.1755 30.2491C12.3099 30.3665 12.4819 30.4306 12.6587 30.4306C12.6833 30.4306 12.708 30.4293 12.7328 30.427C12.9352 30.4064 13.12 30.3029 13.2431 30.1409L16.9613 25.2485C17.2066 24.9258 17.1438 24.4656 16.8211 24.2202Z" fill="#ECECEC"/>
<path d="M38.907 24.0706H20.4233C20.0181 24.0706 19.6895 24.3991 19.6895 24.8044C19.6895 25.2098 20.0181 25.5383 20.4233 25.5383H38.907C39.3123 25.5383 39.6409 25.2098 39.6409 24.8044C39.6409 24.3991 39.3123 24.0706 38.907 24.0706Z" fill="#ECECEC"/>
<path d="M32.4238 26.5166H20.4233C20.0181 26.5166 19.6895 26.8451 19.6895 27.2505C19.6895 27.6559 20.0181 27.9844 20.4233 27.9844H32.4238C32.8291 27.9844 33.1577 27.6559 33.1577 27.2505C33.1577 26.8451 32.8291 26.5166 32.4238 26.5166Z" fill="#ECECEC"/>
<path d="M35.1636 28.9626H20.4233C20.0181 28.9626 19.6895 29.2912 19.6895 29.6965C19.6895 30.1019 20.0181 30.4304 20.4233 30.4304H35.1636C35.5688 30.4304 35.8975 30.1019 35.8975 29.6965C35.8975 29.2912 35.5688 28.9626 35.1636 28.9626Z" fill="#ECECEC"/>
<path d="M38.907 34.0513H20.4233C20.0181 34.0513 19.6895 34.3798 19.6895 34.7852C19.6895 35.1905 20.0181 35.519 20.4233 35.519H38.907C39.3123 35.519 39.6408 35.1905 39.6409 34.7852C39.6409 34.3798 39.3123 34.0513 38.907 34.0513Z" fill="#ECECEC"/>
<path d="M32.4238 36.4976H20.4233C20.0181 36.4976 19.6895 36.8261 19.6895 37.2314C19.6895 37.6368 20.0181 37.9653 20.4233 37.9653H32.4238C32.8291 37.9653 33.1577 37.6368 33.1577 37.2314C33.1577 36.8261 32.8291 36.4976 32.4238 36.4976Z" fill="#ECECEC"/>
<path d="M35.1636 38.9436H20.4233C20.0181 38.9436 19.6895 39.2721 19.6895 39.6775C19.6895 40.0829 20.0181 40.4114 20.4233 40.4114H35.1636C35.5688 40.4114 35.8975 40.0829 35.8975 39.6775C35.8975 39.2721 35.5688 38.9436 35.1636 38.9436Z" fill="#ECECEC"/>
<path d="M15.496 34.0513H11.582C10.9075 34.0513 10.3589 34.6 10.3589 35.2744V39.1883C10.3589 39.8628 10.9076 40.4114 11.582 40.4114H15.496C16.1705 40.4114 16.7191 39.8628 16.7191 39.1884V35.2744C16.7191 34.5999 16.1704 34.0513 15.496 34.0513ZM15.2515 38.9437H11.8268V35.519H15.2515V38.9437Z" fill="#ECECEC"/>
</g>
<defs>
<clipPath id="clip0">
<rect width="50" height="50" fill="white"/>
</clipPath>
</defs>
</svg>
