<svg width="68" height="68" viewBox="0 0 68 68" fill="none" xmlns="http://www.w3.org/2000/svg">
<g clip-path="url(#clip0)">
<path d="M67.8662 33.3712C67.8662 31.6369 66.4551 30.2257 64.7202 30.2257H46.7231V17.3637L54.145 14.7292C54.6659 14.544 54.9372 13.9744 54.7525 13.4535C54.5683 12.9342 53.9972 12.6623 53.4763 12.846C41.6347 17.0493 48.1596 14.7344 42.361 16.7925C42.361 15.2957 42.361 3.63365 42.361 2.09333L63.0678 9.44212L57.2428 11.5106C56.7219 11.6942 56.4506 12.2654 56.6352 12.7863C56.8194 13.3056 57.3906 13.5775 57.9099 13.3933L64.2974 11.1256C65.8813 10.5643 65.8828 8.32048 64.2974 7.75862C41.0028 -0.508964 42.5929 0.006204 42.1483 0.006204C41.1641 0.006204 40.3636 0.808268 40.3636 1.79347V30.2257H35.682C35.13 30.2257 34.6828 30.6724 34.6828 31.2244C34.6828 31.7759 35.13 32.2231 35.682 32.2231H64.7207C65.3537 32.2231 65.8683 32.7383 65.8683 33.3712V42.1509H27.8108V33.3712C27.8108 32.7383 28.3259 32.2231 28.9589 32.2231H31.6862C32.2382 32.2231 32.6854 31.7759 32.6854 31.2244C32.6854 30.6724 32.2382 30.2257 31.6862 30.2257H28.9589C27.224 30.2257 25.8129 31.6369 25.8129 33.3712V42.1509H16.1845C14.4506 42.1509 13.039 43.563 13.039 45.2969V54.0775H3.41111C1.67572 54.0775 0.265625 55.4876 0.265625 57.223V64.854C0.265625 66.5894 1.67572 68 3.41111 68H7.45307C8.00455 68 8.45228 67.5539 8.45228 67.0013C8.45228 66.4499 8.00455 66.0021 7.45307 66.0021H3.41111C2.77713 66.0021 2.26352 65.488 2.26352 64.854V57.223C2.26352 56.589 2.77713 56.0749 3.41111 56.0749H65.8688V64.854C65.8688 65.488 65.3531 66.0021 64.7207 66.0021H11.4489C10.8974 66.0021 10.4497 66.4499 10.4497 67.0013C10.4497 67.5539 10.8974 68 11.4489 68H64.7207C66.4546 68 67.8662 66.5894 67.8662 64.854C67.8667 63.7547 67.8662 34.6983 67.8662 33.3712ZM44.7252 30.2247H42.361V18.8646C42.624 18.835 42.5737 18.8371 44.7252 18.0734V30.2247ZM65.8688 54.0775C65.0896 54.0775 15.62 54.0775 15.0369 54.0775V45.2969C15.0369 44.6644 15.552 44.1488 16.185 44.1488C17.2672 44.1488 64.4681 44.1493 65.8688 44.1493V54.0775Z" fill="#323C8D"/>
</g>
<defs>
<clipPath id="clip0">
<rect width="68" height="68" fill="white"/>
</clipPath>
</defs>
</svg>
