<svg width="69" height="69" viewBox="0 0 69 69" fill="none" xmlns="http://www.w3.org/2000/svg">
<g clip-path="url(#clip0)">
<path d="M62.4008 16.4445H51.7175V13.3828C51.7175 12.819 51.2605 12.3621 50.6967 12.3621H49.8123V10.9328C49.8123 6.16758 45.9352 2.29095 41.1699 2.29095H27.5607C22.7954 2.29095 18.9188 6.16758 18.9188 10.9328V12.3621H18.0339C17.4701 12.3621 17.0131 12.819 17.0131 13.3828V16.4451H13.1176C12.5538 16.4451 12.0968 16.902 12.0968 17.4653C12.0968 18.0291 12.5538 18.486 13.1176 18.486H62.4008C64.8398 18.486 66.8239 20.4707 66.8239 22.9096V31.8915C66.8239 34.0009 65.3214 35.8261 63.2626 36.2304L38.6262 40.795H30.1039L5.47855 36.232C3.40916 35.8261 1.90673 34.0009 1.90673 31.8915V22.9091C1.90673 20.4701 3.89084 18.486 6.32979 18.486H8.3797C8.94351 18.486 9.40045 18.0291 9.40045 17.4653C9.40045 16.9015 8.94351 16.4445 8.3797 16.4445H6.32979C2.76533 16.4445 -0.134766 19.3446 -0.134766 22.9091V31.8915C-0.134766 34.032 0.92441 35.9714 2.58687 37.1569V60.4714C2.58687 64.0358 5.48697 66.9359 9.05142 66.9359H49.1316C49.6954 66.9359 50.1524 66.479 50.1524 65.9152C50.1524 65.3514 49.6954 64.8945 49.1316 64.8945H9.05142C6.61248 64.8945 4.62837 62.9103 4.62837 60.4714V38.126C4.78208 38.1682 4.93791 38.2061 5.09636 38.2371L28.9894 42.6644V53.3835C28.9894 53.83 29.2795 54.2243 29.7059 54.3574L34.061 55.7188C34.16 55.7493 34.2626 55.7651 34.3653 55.7651C34.468 55.7651 34.5706 55.7493 34.6696 55.7188L39.0247 54.3574C39.4511 54.2243 39.7412 53.83 39.7412 53.3835V42.6644L63.6448 38.2355C63.7995 38.205 63.9517 38.1676 64.1022 38.1271V60.4714C64.1022 62.9109 62.1181 64.8945 59.6792 64.8945H53.9064C53.3426 64.8945 52.8856 65.3514 52.8856 65.9152C52.8856 66.479 53.3426 66.9359 53.9064 66.9359H59.6792C63.2436 66.9359 66.1432 64.0358 66.1432 60.4714V37.1585C67.8046 35.974 68.8654 34.0331 68.8654 31.8915V22.9091C68.8654 19.3446 65.9653 16.4445 62.4008 16.4445ZM20.9598 10.9328C20.9598 7.29309 23.9209 4.33245 27.5607 4.33245H41.1699C44.8097 4.33245 47.7708 7.29309 47.7708 10.9328V12.3621H45.4572V10.9328C45.4572 8.56915 43.5336 6.6461 41.1699 6.6461H38.9073C38.3435 6.6461 37.8866 7.10304 37.8866 7.66632C37.8866 8.23013 38.3435 8.68707 38.9073 8.68707H41.1699C42.4081 8.68707 43.4157 9.69466 43.4157 10.9328V12.3621H42.5307C41.9669 12.3621 41.51 12.819 41.51 13.3828V16.4451H27.2201V13.3828C27.2201 12.819 26.7631 12.3621 26.1993 12.3621H25.3149V10.9328C25.3149 9.69466 26.3225 8.68707 27.5607 8.68707H34.161C34.7249 8.68707 35.1818 8.23013 35.1818 7.66632C35.1818 7.10304 34.7249 6.6461 34.161 6.6461H27.5607C25.197 6.6461 23.2734 8.56915 23.2734 10.9328V12.3621H20.9598V10.9328ZM19.0546 16.4445V14.403H25.1791V16.4445H19.0546ZM43.5515 16.4445V14.403H49.676V16.4445H43.5515ZM31.0309 42.836H37.6997V46.7826H31.0309V42.836ZM37.6997 52.6329L34.3653 53.6752L31.0309 52.6329V48.8241H37.6997V52.6329Z" fill="#323C8D"/>
</g>
<defs>
<clipPath id="clip0">
<rect width="69" height="69" fill="white"/>
</clipPath>
</defs>
</svg>
