<svg width="260" height="60" viewBox="0 0 260 60" fill="none" xmlns="http://www.w3.org/2000/svg">
<path fill-rule="evenodd" clip-rule="evenodd" d="M255.229 28.495V25.3379H256.855C257.157 25.3379 257.386 25.3638 257.547 25.4169C257.707 25.4665 257.836 25.562 257.934 25.703C258.03 25.8438 258.079 26.0132 258.079 26.2118C258.079 26.3876 258.042 26.5388 257.967 26.6648C257.891 26.7941 257.79 26.8965 257.658 26.9751C257.575 27.0258 257.461 27.0657 257.315 27.0987C257.431 27.1374 257.516 27.1779 257.57 27.2165C257.605 27.2421 257.657 27.3002 257.724 27.383C257.793 27.47 257.838 27.5355 257.862 27.5806L258.338 28.495H257.236L256.712 27.5291C256.647 27.4025 256.588 27.3239 256.536 27.2862C256.466 27.2375 256.388 27.2113 256.298 27.2113H256.212V28.495H255.229ZM256.212 26.6178H256.62C256.665 26.6178 256.75 26.603 256.877 26.5746C256.94 26.562 256.992 26.5266 257.034 26.4741C257.075 26.4216 257.095 26.3592 257.095 26.2904C257.095 26.1899 257.062 26.1113 256.999 26.0568C256.935 26.001 256.815 25.9746 256.639 25.9746H256.212V26.6178ZM256.563 24C255.688 24 254.987 24.3066 254.375 24.8769C253.806 25.4875 253.5 26.189 253.5 27.0221C253.5 27.896 253.806 28.5951 254.375 29.1668C254.987 29.7765 255.688 30.0393 256.563 30.0393C257.396 30.0393 258.095 29.7765 258.708 29.1668C259.275 28.5951 259.582 27.896 259.582 27.0221C259.582 26.189 259.275 25.4875 258.708 24.8769C258.095 24.3066 257.396 24 256.563 24ZM256.561 24.2475C255.757 24.2475 255.114 24.5289 254.552 25.0527C254.03 25.6131 253.749 26.2569 253.749 27.0221C253.749 27.8244 254.03 28.4658 254.552 28.991C255.114 29.5505 255.757 29.7919 256.561 29.7919C257.325 29.7919 257.967 29.5505 258.53 28.991C259.051 28.4658 259.333 27.8244 259.333 27.0221C259.333 26.2569 259.051 25.6131 258.53 25.0527C257.967 24.5289 257.325 24.2475 256.561 24.2475Z" fill="white"/>
<path d="M30.0001 60C22.1911 60 15.4749 57.3787 9.80878 52.2323C9.66592 52.041 9.5219 51.8965 9.33246 51.7069C9.14302 51.565 8.95242 51.3729 8.76298 51.183C2.90449 45.3218 0 38.268 0 29.9769C0 21.6846 2.90449 14.5837 8.76298 8.77C14.5718 2.90742 21.6682 0 30.0001 0C38.2361 0 45.3323 2.90742 51.1908 8.77C51.3333 8.91188 51.5229 9.10209 51.7122 9.29289C51.9045 9.48388 52.0499 9.67352 52.19 9.81773C57.381 15.4901 59.9519 22.1601 60 29.9769C59.9519 38.268 57.0464 45.3218 51.1908 51.183C48.5237 53.8533 45.666 55.9006 42.5239 57.3294C40.2371 58.3789 37.857 59.1421 35.2846 59.5685C34.5216 59.6656 33.761 59.8104 32.9044 59.8556C31.9518 59.9527 30.9991 60 30.0001 60ZM55.856 17.1104C40.476 26.2603 32.4762 40.1275 31.9026 58.7626C32.2375 58.7137 32.6202 58.6681 32.9993 58.6681C35.9517 58.3789 38.8095 57.666 41.4752 56.519C41.4752 41.5563 46.7625 29.5945 57.381 20.7288C57.0967 19.9208 56.8073 19.1592 56.4754 18.3962C56.2389 17.9676 56.047 17.5378 55.856 17.1104ZM43.0167 4.22553C24.7596 12.169 11.8088 29.8321 7.99958 48.6103C8.2853 48.9439 8.6174 49.3232 9.00172 49.705C9.23774 49.9439 9.5219 50.2306 9.80878 50.565C9.95144 50.7069 10.1424 50.8492 10.2839 50.9915C13.2843 53.9008 16.7144 55.9957 20.5234 57.2822C18.4755 36.8383 27.0151 20.8736 43.4919 8.48252C43.5878 8.3878 46.4146 6.57724 46.5066 6.52891L43.0167 4.22553ZM42.9178 14.6273C41.8044 14.6273 40.8634 15.0534 40.0942 15.8218C39.2842 16.6326 38.8562 17.6331 38.8562 18.7774C38.8562 19.9208 39.2842 20.9218 40.0942 21.7789C40.2838 21.9719 40.476 22.1134 40.668 22.2562C41.3807 22.7323 42.1423 22.9715 43.0948 23.0181C44.2384 23.0181 45.2376 22.5901 46.0476 21.7789C46.856 20.9218 47.2374 19.9208 47.2374 18.7774C47.2374 17.8713 47.0014 17.0598 46.5249 16.3929C46.3809 16.2032 46.1889 16.0128 46.0476 15.8218C45.278 15.0532 44.3378 14.6273 43.2652 14.6273C43.2087 14.6273 43.152 14.6287 43.0948 14.631C43.0352 14.6287 42.9764 14.6273 42.9178 14.6273ZM18.3821 8.33966C16.952 8.33966 15.7606 8.86489 14.7612 9.91264C13.7125 10.9144 13.1908 12.1054 13.1908 13.5829C13.1908 15.0128 13.7125 16.2525 14.7612 17.2519C14.9066 17.4447 15.0935 17.5844 15.2855 17.7754C16.1888 18.4437 17.1878 18.7774 18.3821 18.7774C19.8097 18.7774 21.0947 18.2527 22.0964 17.2519C23.0958 16.2525 23.6189 15.0128 23.6189 13.5829C23.6189 12.3919 23.2878 11.3439 22.57 10.4373C22.4287 10.2455 22.2858 10.0561 22.0964 9.91264C21.0947 8.86489 19.8097 8.33966 18.3821 8.33966Z" fill="white"/>
<path d="M207.52 36.1146C207.308 36.6582 207.013 36.7319 206.515 36.7319L198.899 36.7209L198.004 40.5912L204.292 40.5998C204.95 40.5998 205.086 40.6707 204.921 41.4098L203.899 45.8502C203.747 46.5048 203.562 46.6274 202.89 46.6274L196.613 46.6185L195.566 51.1292L203.741 51.1457C204.476 51.1457 204.489 51.2636 204.331 51.9188L203.302 56.4057C203.131 57.1322 203.074 57.2059 202.332 57.2059L187.412 57.1869C186.677 57.1869 186.608 57.1146 186.776 56.3856L192.528 31.4639C192.688 30.8022 192.784 30.6863 193.524 30.6899L208.766 30.7083C209.344 30.7083 209.476 30.8239 209.403 31.1371C209.39 31.2438 209.287 31.4421 209.216 31.6352L207.52 36.1146ZM150.453 56.6766C150.382 57.0358 150.157 57.1382 149.567 57.1382L142.977 57.1278C142.316 57.1278 142.287 57.0936 142.269 56.4822L142.049 50.9513L136.94 50.9442L134.069 56.4672C133.725 57.0838 133.715 57.1169 133.095 57.1169L127.008 57.1084C126.38 57.1084 126.217 56.9569 126.275 56.7295C126.306 56.5692 126.432 56.3793 126.554 56.1826L140.462 31.2759C140.759 30.6963 140.813 30.6222 141.482 30.6222L147.289 30.6273C147.923 30.6273 147.959 30.6686 148.043 31.2885L150.499 56.2153C150.487 56.4057 150.49 56.5606 150.453 56.6766ZM142.428 41.2151C142.483 40.1306 142.631 37.9674 142.745 36.8043C142.311 38.0385 141.558 40.0872 141.059 41.2151L139.004 45.7264L142.166 45.7338L142.428 41.2151ZM88.0741 56.9616L82.1653 56.9549C81.4341 56.9549 81.4161 56.8689 81.5985 56.139L84.0156 46.4549L79.0011 46.4519L76.5934 56.1369C76.4074 56.8662 76.225 56.9486 75.5649 56.9486L69.6669 56.9352C68.937 56.9352 68.9113 56.8542 69.0976 56.1283L75.3063 31.2438C75.4852 30.5897 75.5445 30.4662 76.2828 30.4662L82.1819 30.4787C82.8337 30.4787 82.9642 30.5966 82.7986 31.2558L80.5276 40.3568L85.5447 40.3614L87.8216 31.2618C87.9764 30.6042 88.0501 30.486 88.7779 30.486L94.6866 30.4907C95.4178 30.4976 95.4699 30.6167 95.2945 31.2702L89.0822 56.1486C88.8998 56.8823 88.809 56.9616 88.0741 56.9616ZM99.9559 48.6214C99.7636 48.4218 99.0506 47.2674 98.8357 45.4692C98.7131 44.8064 96.8966 31.6638 96.8966 31.6638C96.8653 31.3158 96.8241 31.1595 96.8653 31.0068C96.9333 30.7349 97.2003 30.5826 98.1006 30.5442L103.694 30.2406C103.924 30.2406 104.129 30.2067 104.293 30.2067C104.601 30.2067 104.759 30.3273 104.789 30.9765L104.917 38.3057C104.949 39.5796 104.955 40.6248 104.932 43.8264H105.131C106.796 40.2378 107.414 39.0056 107.845 38.0385L111.022 31.0609C111.339 30.4083 111.505 30.2149 111.92 30.2166L117.749 30.5302C118.161 30.5716 118.535 30.6486 118.45 30.9933C118.418 31.1072 118.354 31.2289 118.13 31.6471L108.933 49.3139C105.076 56.673 101.71 57.6351 98.2866 57.6301C95.6158 57.6265 94.1136 56.8542 93.6034 56.5823C92.8528 56.1546 92.7164 55.9609 92.7729 55.734C92.7838 55.6564 92.8528 55.5417 92.9278 55.4267L95.4259 51.1499L95.6919 50.9925C96.0061 51.0006 97.1676 52.3977 98.9818 52.3977C100.677 52.4017 101.404 51.8906 101.973 50.3093C100.602 49.5531 100.048 48.7218 99.9559 48.6214ZM135.047 35.9507C134.821 36.566 134.617 36.5659 134.034 36.5659L126.521 36.5592L121.614 56.1957C121.427 56.9232 121.249 57.0018 120.599 57.0018L114.733 56.9969C113.998 56.9946 113.946 56.9123 114.125 56.1826L120.349 31.3041C120.527 30.5616 120.616 30.5256 121.342 30.5267L136.402 30.5442C136.982 30.5502 137.098 30.6656 137.021 30.9737C137 31.0923 136.915 31.2759 136.824 31.4768L135.047 35.9507ZM173.774 51.4771H174.964C176.626 51.4771 178.597 51.1725 179.226 48.6285C179.764 46.5048 178.475 45.8046 176.93 45.8045L175.182 45.8006L173.774 51.4771ZM176.464 40.7111L179.357 40.7134C181.134 40.7167 183.979 40.9137 185.529 42.7665C186.943 44.5093 186.681 46.9383 186.248 48.6708C184.303 56.4672 177.816 57.0776 174.343 57.0719L165.891 57.0609C165.202 57.0588 165.226 56.6319 165.313 56.2852L171.544 31.3708C171.718 30.6685 172.156 30.5943 172.511 30.5943L188.286 30.6167C188.753 30.6167 188.818 30.812 188.772 31.0068C188.73 31.1595 188.619 31.3116 188.591 31.4308L186.59 36.0167C186.338 36.5592 185.859 36.6315 185.549 36.6315L177.487 36.6233L176.464 40.7111ZM223.49 54.9312C223.101 56.4713 217.726 57.7799 215.322 57.7781C207.839 57.7671 205.651 52.3221 207.825 43.6088C208.974 39.017 210.632 35.6627 213.647 33.1557C216.138 31.0755 219.057 29.9973 222.036 30C224.465 30.0104 227.17 30.9359 228.573 32.4468C228.821 32.6724 228.928 32.874 228.857 33.1427C228.829 33.2547 228.767 33.3336 228.694 33.4872L225.746 37.9185C225.561 38.1444 225.382 38.2314 225.232 38.2314C225.115 38.2314 225.038 38.1884 224.948 38.1444C223.85 37.5755 222.516 36.1427 220.695 36.1427C218.92 36.1364 216.881 37.6425 215.593 42.8391C213.868 49.7116 215.241 51.6438 217.356 51.6451C219.789 51.6472 222.107 49.8046 222.453 49.8046C222.57 49.8046 222.661 49.9153 222.713 50.149L223.514 54.5481C223.548 54.7068 223.527 54.8154 223.49 54.9312ZM249.18 36.4203C248.946 36.9631 248.807 37.0791 248.208 37.0791L242.594 37.0676L238.138 56.3507C237.964 57.0839 237.906 57.1662 237.179 57.1602L231.196 57.155C230.441 57.1506 230.393 57.0719 230.567 56.3417L235.012 37.0619L229.971 37.0551C229.225 37.0502 229.161 36.9746 229.336 36.245L230.454 31.4168C230.609 30.7577 230.72 30.6393 231.449 30.6393L249.812 30.6626C250.279 30.6626 250.453 30.7422 250.462 30.95V30.9852L250.442 31.1252C250.415 31.2438 250.375 31.3973 250.296 31.5905L249.18 36.4203Z" fill="white"/>
<path fill-rule="evenodd" clip-rule="evenodd" d="M83.175 18.3813H84.9151V4.5H83.175L76.7401 15.4472V4.5H75V18.3813H76.7401L83.175 7.43415V18.3813ZM95.7411 14.9818L94.2841 14.7187C94.021 16.1149 93.2724 17.228 91.7344 17.228C89.5896 17.228 89.0837 14.7998 89.0837 13.1405C89.0837 11.4204 89.6907 9.1743 91.8357 9.1743C93.3129 9.1743 94.1425 10.3076 94.2841 11.6633L95.7411 11.4002C95.3971 9.27556 94.021 7.83886 91.7952 7.83886C88.7397 7.83886 87.4042 10.5705 87.4042 13.2416C87.4042 15.9329 88.7195 18.5837 91.775 18.5837C93.9806 18.5837 95.3769 17.0659 95.7411 14.9818ZM99.4035 18.3813V9.35641H104.381V18.3813H105.96V8.1018H97.8252V18.3813H99.4035ZM108.165 13.1607C108.165 15.8721 109.541 18.5837 112.617 18.5837C115.733 18.5837 117.393 16.0542 117.393 13.1808C117.393 10.4694 115.895 7.83886 112.88 7.83886C109.784 7.83886 108.165 10.3075 108.165 13.1607ZM115.126 15.7912C114.641 16.722 113.811 17.2683 112.759 17.2683C111.828 17.2683 110.958 16.7625 110.513 15.9734C110.068 15.164 109.926 14.0914 109.926 13.1607C109.926 12.331 110.047 11.3394 110.432 10.5908C110.877 9.70036 111.767 9.1338 112.759 9.1338C113.649 9.1338 114.499 9.59925 114.985 10.3479C115.511 11.1776 115.632 12.1893 115.632 13.1607C115.632 14.0509 115.551 14.9818 115.126 15.7912ZM121.946 8.1018L118.202 18.3813H119.619L122.634 10.0242L125.305 18.3813H127.065L123.605 8.1018H121.946ZM130.161 13.2618H131.719C132.771 13.2618 133.378 13.4237 133.864 13.6868C134.269 13.9094 134.714 14.2128 134.714 15.2044C134.714 16.4185 133.763 17.1267 132.205 17.1267H130.161V13.2618ZM134.613 12.4727C134.046 12.2096 132.852 12.0072 131.719 12.0072H130.161V8.1018H128.583V18.3813H132.144C133.54 18.3813 134.289 18.1587 135.139 17.6124C135.928 17.1065 136.414 16.5602 136.414 15.2246C136.414 13.4642 135.28 12.7761 134.613 12.4727ZM143.982 12.9584V12.9179C145.054 12.7155 145.884 11.7846 145.884 10.6515C145.884 8.74936 144.063 7.83886 142.181 7.83886C140.4 7.83886 138.822 8.62801 138.194 10.2266L139.55 10.7123C139.894 9.80161 141.007 9.09331 142.08 9.09331C143.557 9.09331 144.204 9.53851 144.204 10.7123C144.204 11.3193 143.82 11.8454 143.374 12.1085C142.869 12.4119 142.221 12.4727 141.634 12.4727H140.946V13.6058H141.634C142.383 13.6058 143.253 13.7475 143.779 14.0105C144.224 14.2331 144.649 14.8401 144.649 15.4877C144.649 16.3781 143.86 17.3088 142.12 17.3088C140.623 17.3088 139.57 16.5804 139.145 15.5281L137.769 16.034C138.417 17.754 140.157 18.5837 142.059 18.5837C143.132 18.5837 144.204 18.3611 145.054 17.7945C145.843 17.2683 146.329 16.4186 146.329 15.5079C146.329 14.0712 145.398 13.1405 143.982 12.9584ZM151.793 19.3358L155.819 8.1018H154.484L151.671 15.8216L148.919 8.1018H147.28L150.841 18.1857C150.416 19.3965 150.133 20.7084 148.535 20.7084C148.191 20.7084 147.826 20.6477 147.482 20.5667V21.8415C147.867 21.9428 148.251 22.0236 148.656 22.0236C149.567 22.0236 150.113 21.9022 150.74 21.2344C151.287 20.6476 151.529 20.0844 151.793 19.3358ZM164.298 4.5H162.78C162.436 5.47125 161.788 5.61286 161.181 5.61286C160.554 5.61286 159.806 5.4915 159.542 4.5H158.025C158.51 6.32115 159.745 6.7056 161.181 6.7056C162.618 6.7056 163.934 6.1998 164.298 4.5ZM158.693 18.3813L163.61 10.53H163.67V18.3813H165.249V8.1018H163.67L158.753 15.9531H158.693V8.1018H157.114V18.3813H158.693ZM178.462 6.36166L182.165 18.3813H183.946L179.636 4.5H177.633L172.938 18.3813H174.395L178.462 6.36166ZM188.863 14.9414C188.378 16.0542 187.912 17.1267 186.476 17.1267C186.132 17.1267 185.929 17.066 185.585 16.9851V18.2599C185.727 18.3205 186.233 18.4421 186.637 18.4421C187.548 18.4421 188.094 18.3206 188.782 17.6529C189.389 17.066 189.673 16.4994 189.996 15.7508L195.015 4.5H193.538L189.814 12.8166L186.132 4.5H184.27L188.863 14.9414ZM204.323 10.8741C204.161 10.9955 202.664 11.2991 201.571 11.2991C200.62 11.2991 199.386 10.9752 198.819 10.1456C198.313 9.41715 198.293 8.2839 198.293 7.45425V4.5H196.553V7.45425C196.553 8.89095 196.634 10.2873 197.645 11.4204C198.576 12.4727 200.013 12.7358 201.369 12.7358C202.866 12.7358 204.06 12.4322 204.323 12.2703V18.3813H206.063V4.5H204.323V10.8741ZM209.503 18.3813H226.177V4.5H224.437V16.8636H218.71V4.5H216.97V16.8636H211.243V4.5H209.503V18.3813ZM238.702 18.3813V16.8839H231.458V11.8049H237.043V10.4087H231.458V5.99745H238.5V4.5H229.718V18.3813H238.702ZM250.034 18.3813V16.8839H242.79V11.8049H248.375V10.4087H242.79V5.99745H249.832V4.5H241.05V18.3813H250.034Z" fill="white"/>
</svg>
