<svg width="57" height="57" viewBox="0 0 57 57" fill="none" xmlns="http://www.w3.org/2000/svg">
<g clip-path="url(#clip0)">
<path d="M-1.24577e-06 28.5C-5.58847e-07 12.7849 12.7849 -1.9327e-06 28.5 -1.24577e-06C44.2151 -5.58847e-07 57 12.7849 57 28.5C57 44.2151 44.2151 57 28.5 57C12.7849 57 -1.9327e-06 44.2151 -1.24577e-06 28.5ZM55.0672 28.5C55.0672 13.8518 43.1494 1.93281 28.5 1.93281C13.8518 1.93281 1.93281 13.8518 1.93281 28.5C1.93281 43.1507 13.8518 55.0672 28.5 55.0672C43.1494 55.0672 55.0672 43.1507 55.0672 28.5Z" fill="black"/>
<path d="M18.4933 24.9217C18.4933 24.6743 18.5873 24.4269 18.7767 24.2388C19.153 23.8612 19.7663 23.8612 20.1439 24.2388L28.9111 32.9957L37.6771 24.2388C38.0546 23.8625 38.668 23.8625 39.0442 24.2388C39.4218 24.6163 39.4218 25.2284 39.0442 25.6059L29.5953 35.0445C29.2178 35.422 28.6057 35.422 28.2282 35.0445L18.7793 25.6059C18.5873 25.4165 18.4933 25.1691 18.4933 24.9217Z" fill="black"/>
</g>
<defs>
<clipPath id="clip0">
<rect width="57" height="57" fill="white" transform="translate(57) rotate(90)"/>
</clipPath>
</defs>
</svg>
