<svg width="75" height="75" fill="none" xmlns="http://www.w3.org/2000/svg"><circle cx="37.5" cy="37.5" r="37.5" fill="#323C8D"/><g clip-path="url(#clip0)"><path d="M46.862 41.526a7.464 7.464 0 00-.65-1.579c-.255-.448-.619-.884-1.094-1.312a13.08 13.08 0 00-1.28-1.032c-.379-.261-.899-.554-1.56-.877a27.908 27.908 0 00-1.568-.723 67.64 67.64 0 00-1.673-.65 66.522 66.522 0 01-1.445-.568c-.317-.13-.733-.317-1.25-.558-.516-.24-.901-.454-1.156-.64a9.08 9.08 0 01-.815-.68 2.323 2.323 0 01-.61-.858 2.732 2.732 0 01-.175-.99c0-.937.413-1.7 1.239-2.293.826-.591 1.893-.887 3.2-.887a6.88 6.88 0 011.766.237 9.224 9.224 0 011.538.537c.427.2.83.42 1.208.66.379.242.647.424.805.548.159.124.259.206.3.248.18.137.364.185.557.144.207-.014.365-.124.475-.33l1.673-3.015c.165-.275.131-.537-.103-.784a7.002 7.002 0 00-.31-.29c-.124-.11-.392-.31-.806-.598a9.966 9.966 0 00-1.31-.775c-.462-.227-1.06-.457-1.797-.691a11.456 11.456 0 00-2.282-.475V19.66a.645.645 0 00-.185-.475.644.644 0 00-.476-.186h-2.787a.635.635 0 00-.465.196.635.635 0 00-.196.465v3.716c-2.161.413-3.916 1.335-5.265 2.767-1.349 1.432-2.024 3.097-2.024 4.997 0 .564.06 1.1.176 1.61.117.51.262.967.434 1.373.172.407.416.806.733 1.198.316.392.616.73.898 1.012.282.282.65.574 1.104.877.455.303.844.547 1.167.733.324.185.754.4 1.29.64.538.24.961.423 1.27.547.31.124.734.296 1.27.516.744.289 1.295.513 1.653.671.358.158.812.379 1.363.66.55.283.953.54 1.208.775.254.234.485.523.691.867.207.344.31.709.31 1.095 0 1.087-.423 1.927-1.27 2.518-.846.592-1.827.888-2.942.888a7.218 7.218 0 01-1.528-.165c-1.79-.358-3.462-1.218-5.017-2.581l-.041-.041a.512.512 0 00-.496-.186c-.22.028-.379.11-.475.248l-2.127 2.788c-.206.275-.192.557.042.846.069.083.189.207.361.372s.492.423.96.775c.468.35.978.68 1.528.99.55.31 1.25.617 2.096.92.847.302 1.724.515 2.633.64v3.612c0 .18.065.334.196.465.13.131.285.196.464.196h2.788a.644.644 0 00.475-.185.643.643 0 00.185-.475v-3.614c2.19-.358 3.969-1.297 5.338-2.818 1.37-1.521 2.055-3.335 2.055-5.44 0-.689-.09-1.336-.27-1.942z" fill="#fff"/></g><defs><clipPath id="clip0"><path fill="#fff" transform="translate(19 19)" d="M0 0h37v37H0z"/></clipPath></defs></svg>