<svg width="75" height="75" fill="none" xmlns="http://www.w3.org/2000/svg"><circle cx="37.5" cy="37.5" r="37.5" fill="#323C8D"/><path d="M43.138 48.818c.886.886.259 2.4-.994 2.4H25.625A5.625 5.625 0 0120 45.595V30.406c0-.434.05-.858.144-1.265.247-1.073 1.584-1.451 2.364-.672.343.343.484.837.375 1.31-.046.202-.07.412-.07.627v1.837h3.167c.373 0 .731.148.995.412.885.886.258 2.392-.995 2.392h-3.168v10.547a2.813 2.813 0 002.813 2.812h16.519c.373 0 .73.148.994.412zm10.05-10.247v-3.516H37.044l13.35 13.35a2.816 2.816 0 002.794-2.811 1.406 1.406 0 112.812 0 5.631 5.631 0 01-3.298 5.119l2.886 2.886a1.406 1.406 0 11-1.989 1.989L20.413 22.4a1.406 1.406 0 111.989-1.988l4.37 4.37h23.604A5.631 5.631 0 0156 30.405v8.165a1.406 1.406 0 11-2.813 0zm0-6.328v-1.837a2.816 2.816 0 00-2.813-2.812H29.583l4.649 4.649h18.956z" fill="#fff"/></svg>