<svg width="75" height="75" fill="none" xmlns="http://www.w3.org/2000/svg"><circle cx="37.5" cy="37.5" r="37.5" fill="#323C8D"/><path d="M53.69 25H41.832a6.276 6.276 0 00-4.332 1.709A6.276 6.276 0 0033.168 25H21.31c-.723 0-1.31.568-1.31 1.268v21.915c0 .7.587 1.269 1.31 1.269h11.858c1.338 0 2.553.714 3.169 1.864l.005.008A1.306 1.306 0 0037.5 52c.48 0 .934-.257 1.163-.684.616-1.15 1.83-1.864 3.169-1.864H53.69c.723 0 1.31-.568 1.31-1.269V26.268c0-.7-.587-1.268-1.31-1.268zm-17.5 22.673a6.347 6.347 0 00-3.022-.758H22.621V27.537h10.547c1.239 0 2.371.612 3.022 1.614v18.522zm5.642-.758a6.35 6.35 0 00-3.022.758V29.151a3.585 3.585 0 013.022-1.614h10.547v19.378H41.832z" fill="#fff" stroke="#fff"/></svg>