<svg width="75" height="75" fill="none" xmlns="http://www.w3.org/2000/svg"><circle cx="37.5" cy="37.5" r="37.5" fill="#323C8D"/><path d="M40.358 33.197l-6.767 7.694-4.949-8.453h0l-.001-.003a1.768 1.768 0 00-1.503-.866h-.002a1.768 1.768 0 00-1.52.847v.002L16.889 46.52a1.768 1.768 0 103.011 1.784l7.145-11.647 4.65 8.01h0a1.767 1.767 0 002.419.634h0c.16-.094.304-.212.427-.35l6.975-7.802 4.158 5.404.01.013.012.013a1.97 1.97 0 001.358.662l.018.001h.017a1.768 1.768 0 001.397-.707v-.001l10.457-14.03v-.001a1.768 1.768 0 00-2.822-2.128.512.512 0 00-.053.084l-.109.217-8.842 11.854-4.034-5.244s0 0 0 0a1.767 1.767 0 00-1.344-.69h-.002a1.768 1.768 0 00-1.379.601z" fill="#fff" stroke="#fff"/></svg>