<svg width="75" height="75" fill="none" xmlns="http://www.w3.org/2000/svg"><circle cx="37.5" cy="37.5" r="37.5" fill="#323C8D"/><path d="M55.96 26.676l.108-.217a.464.464 0 01.053-.084 1.767 1.767 0 012.823 2.128h-.001l-10.456 14.03-.001.002c-.33.44-.846.702-1.396.707h-.036a1.97 1.97 0 01-1.358-.663l-.011-.013-.01-.013-4.159-5.404-6.975 7.802s0 0 0 0 0 0 0 0a1.774 1.774 0 01-.427.35h0a1.767 1.767 0 01-2.418-.633l-.001-.002-4.65-8.009L19.9 48.304c-.069.166-.163.32-.279.458L55.96 26.676zm0 0L47.116 38.53l-4.034-5.244s0 0 0 0a1.767 1.767 0 00-1.344-.69h-.002a1.768 1.768 0 00-1.379.601s0 0 0 0l-6.767 7.694-4.949-8.453h0l-.001-.003a1.768 1.768 0 00-1.503-.866h-.002a1.768 1.768 0 00-1.52.849L16.889 46.52a1.768 1.768 0 002.732 2.243L55.96 26.676zm.157-.296v-.001.001h0zm.008-.011l.004-.004h0l-.004.004z" fill="#fff" stroke="#fff"/></svg>