<svg width="75" height="75" fill="none" xmlns="http://www.w3.org/2000/svg"><circle cx="37.5" cy="37.5" r="37.5" fill="#323C8D"/><path d="M22.653 47.47l14.694 8.358a1.324 1.324 0 001.306 0l14.694-8.357c.404-.23.653-.654.653-1.114V29.643c0-.46-.249-.884-.653-1.114l-14.694-8.357a1.322 1.322 0 00-1.306 0L22.653 28.53c-.404.23-.653.655-.653 1.114v16.714c0 .46.249.884.653 1.114zm1.957-15.6l12.085 6.872v13.746L24.61 45.615V31.87zm14.695 20.618V38.742L51.39 31.87v13.745l-12.084 6.873zM38 22.77l12.084 6.873L38 36.516l-12.084-6.873L38 22.77z" fill="#fff" stroke="#fff"/></svg>