<svg width="125" height="32" fill="none" xmlns="http://www.w3.org/2000/svg"><path d="M3.744 3.504V1.792h5.024v9.52h-6.32c.544-.96.864-2.112 1.056-3.328.24-1.504.24-3.12.24-4.48zM.288 15.664a.11.11 0 00.112.112h.544a.11.11 0 00.112-.112V12h9.056v3.664a.11.11 0 00.112.112h.544a.11.11 0 00.112-.112v-4.24a.11.11 0 00-.112-.112H9.536V1.216a.11.11 0 00-.112-.112H3.088c-.048 0-.112.048-.112.112v2.288c0 1.312 0 2.928-.224 4.432-.192 1.248-.528 2.432-1.12 3.376H.4a.11.11 0 00-.112.112v4.24zm18.803-10.72c0-.064-.064-.112-.111-.112h-.48a.11.11 0 00-.113.112v.512l-5.28 5.184V4.944c0-.064-.063-.112-.111-.112h-.48a.11.11 0 00-.113.112v6.944a.11.11 0 00.112.112h.48c.049 0 .113-.048.113-.112v-.496l5.28-5.184v5.68a.11.11 0 00.111.112h.48c.049 0 .113-.048.113-.112V4.944zm4.07 7.216c.783 0 1.455-.192 1.903-.544.496-.368.784-.896.784-1.52 0-.912-.544-1.568-1.568-1.84.816-.256 1.28-.816 1.28-1.632 0-.56-.272-1.072-.72-1.424-.416-.32-.976-.512-1.648-.512-.848 0-1.568.272-2.032.544-.08.048-.08.112-.064.176l.144.288c.032.08.096.096.16.048.48-.288 1.008-.496 1.744-.496.496 0 .912.144 1.216.368.336.272.544.656.544 1.072 0 .592-.336.992-.896 1.2-.352.128-.848.144-1.52.144h-.16c-.064 0-.112.048-.112.096v.32a.11.11 0 00.112.112h.192c.704 0 1.152.016 1.456.112.768.224 1.2.672 1.2 1.376 0 .48-.224.88-.608 1.168-.368.256-.864.416-1.456.416a3.892 3.892 0 01-1.824-.448c-.08-.048-.128-.032-.176.048l-.144.304c-.032.064-.016.128.064.16.48.272 1.216.464 2.128.464zm7.177-6.912c.544 0 1.136.112 1.52.576.304.352.448.816.448 1.6v.272c-1.008.048-2.368.128-3.424.496-.912.336-1.536.896-1.536 1.904 0 .752.336 1.264.848 1.584.512.336 1.2.48 1.824.48.864 0 1.52-.144 2.288-.576h.064v.304a.11.11 0 00.112.112h.416c.048 0 .112-.048.112-.112V7.424c0-.944-.24-1.552-.592-1.984-.528-.624-1.344-.752-2.016-.752-.912 0-1.824.224-2.64.72-.064.048-.096.096-.064.176l.16.304c.032.08.08.08.176.032.64-.368 1.36-.672 2.304-.672zm-.144 6.352c-.528 0-1.072-.096-1.472-.352-.432-.24-.72-.624-.72-1.2 0-.816.608-1.248 1.424-1.488.896-.272 2.112-.336 2.88-.336v2.816c-.64.384-1.328.56-2.112.56zm11.82-6.656c0-.064-.065-.112-.113-.112h-.48a.11.11 0 00-.112.112v.512l-5.28 5.184V4.944c0-.064-.064-.112-.112-.112h-.48a.11.11 0 00-.112.112v6.944a.11.11 0 00.112.112h.48c.048 0 .112-.048.112-.112v-.496l5.28-5.184v5.68a.11.11 0 00.112.112h.48c.048 0 .112-.048.112-.112V4.944zm-3.36-2.976c-.88 0-1.345-.512-1.393-1.264-.016-.08-.064-.128-.128-.128h-.24c-.096 0-.144.064-.144.128 0 1.008.704 1.808 1.904 1.808 1.184 0 1.904-.8 1.904-1.808 0-.064-.048-.128-.144-.128h-.24c-.08 0-.128.048-.128.128-.048.752-.528 1.264-1.392 1.264zm11.46 2.864a.11.11 0 00-.112.112v3.152h-4.848V4.944c0-.064-.048-.112-.096-.112h-.48a.11.11 0 00-.112.112v6.944a.11.11 0 00.112.112h.48c.048 0 .096-.048.096-.112V8.704h4.848v3.184a.11.11 0 00.112.112h.464a.11.11 0 00.112-.112V4.944a.11.11 0 00-.112-.112h-.464zm13.728.112c0-.064-.064-.112-.112-.112h-.48a.11.11 0 00-.112.112v.512l-5.28 5.184V4.944c0-.064-.064-.112-.112-.112h-.48a.11.11 0 00-.112.112v6.944a.11.11 0 00.111.112h.48c.049 0 .113-.048.113-.112v-.496l5.28-5.184v5.68a.11.11 0 00.111.112h.48c.049 0 .113-.048.113-.112V4.944zM1.92 21.376a7.97 7.97 0 011.408-.112c1.008 0 1.904.304 2.496.864.576.544.912 1.296.912 2.272 0 1.04-.32 1.808-.8 2.32-.608.624-1.44.864-2.112.864-.832 0-1.312-.128-1.904-.432v-5.776zm-.576-.512c-.096.032-.128.08-.128.176v10.528a.11.11 0 00.112.112h.48c.048 0 .112-.048.112-.112v-3.824c.608.304 1.152.416 1.968.416.848 0 1.888-.32 2.624-1.088.544-.592.912-1.472.912-2.672 0-1.168-.432-2.096-1.152-2.72-.736-.656-1.808-.992-2.992-.992-.688 0-1.392.064-1.936.176zm10.603.384c.544 0 1.136.112 1.52.576.304.352.448.816.448 1.6v.272c-1.008.048-2.368.128-3.424.496-.912.336-1.536.896-1.536 1.904 0 .752.336 1.264.848 1.584.512.336 1.2.48 1.824.48.864 0 1.52-.144 2.288-.576h.064v.304a.11.11 0 00.112.112h.416c.048 0 .112-.048.112-.112v-4.464c0-.944-.24-1.552-.592-1.984-.528-.624-1.344-.752-2.016-.752-.912 0-1.824.224-2.64.72-.064.048-.096.096-.064.176l.16.304c.032.08.08.08.176.032.64-.368 1.36-.672 2.304-.672zm-.144 6.352c-.528 0-1.072-.096-1.472-.352-.432-.24-.72-.624-.72-1.2 0-.816.608-1.248 1.424-1.488.896-.272 2.112-.336 2.88-.336v2.816c-.64.384-1.328.56-2.112.56zm6.748.56c.784 0 1.456-.192 1.904-.544.496-.368.784-.896.784-1.52 0-.912-.544-1.568-1.568-1.84.816-.256 1.28-.816 1.28-1.632 0-.56-.272-1.072-.72-1.424-.416-.32-.976-.512-1.648-.512-.848 0-1.568.272-2.032.544-.08.048-.08.112-.064.176l.144.288c.032.08.096.096.16.048.48-.288 1.008-.496 1.744-.496.496 0 .912.144 1.216.368.336.272.544.656.544 1.072 0 .592-.336.992-.896 1.2-.352.128-.848.144-1.52.144h-.16c-.064 0-.112.048-.112.096v.32a.11.11 0 00.112.112h.192c.704 0 1.152.016 1.456.112.768.224 1.2.672 1.2 1.376 0 .48-.224.88-.608 1.168-.368.256-.864.416-1.456.416a3.892 3.892 0 01-1.824-.448c-.08-.048-.128-.032-.176.048l-.144.304c-.032.064-.016.128.064.16.48.272 1.216.464 2.128.464zm5.353-6.784a7.97 7.97 0 011.408-.112c1.008 0 1.904.304 2.496.864.576.544.912 1.296.912 2.272 0 1.04-.32 1.808-.8 2.32-.608.624-1.44.864-2.112.864-.832 0-1.312-.128-1.904-.432v-5.776zm-.576-.512c-.096.032-.128.08-.128.176v10.528a.11.11 0 00.112.112h.48c.048 0 .112-.048.112-.112v-3.824c.608.304 1.152.416 1.968.416.848 0 1.888-.32 2.624-1.088.544-.592.912-1.472.912-2.672 0-1.168-.432-2.096-1.152-2.72-.736-.656-1.808-.992-2.992-.992-.688 0-1.392.064-1.936.176zm10.604.384c.543 0 1.136.112 1.52.576.303.352.448.816.448 1.6v.272c-1.008.048-2.368.128-3.425.496-.912.336-1.536.896-1.536 1.904 0 .752.337 1.264.849 1.584.512.336 1.2.48 1.823.48.864 0 1.52-.144 2.289-.576h.064v.304a.11.11 0 00.111.112h.416c.048 0 .112-.048.112-.112v-4.464c0-.944-.24-1.552-.592-1.984-.528-.624-1.344-.752-2.016-.752-.911 0-1.823.224-2.64.72-.064.048-.096.096-.064.176l.16.304c.032.08.08.08.177.032.64-.368 1.36-.672 2.303-.672zm-.145 6.352c-.527 0-1.072-.096-1.471-.352-.433-.24-.72-.624-.72-1.2 0-.816.607-1.248 1.424-1.488.895-.272 2.111-.336 2.88-.336v2.816c-.64.384-1.328.56-2.112.56zm5.452-4.544c.832-.912 1.792-1.344 3.104-1.344.784 0 1.616.272 2.192.896.416.464.704 1.136.704 2.032 0 .832-.256 1.568-.768 2.08-.496.528-1.248.864-2.224.864-.976 0-1.664-.352-2.128-.912-.64-.768-.88-1.92-.896-3.056 0-.176 0-.368.016-.56zm5.472-5.84a.11.11 0 00-.112-.112h-.448a.11.11 0 00-.112.112c0 .448-.176.72-.512.944-.8.512-2.064.464-3.248 1.328-1.232.912-1.728 2.384-1.728 4.048 0 1.328.288 2.704 1.12 3.6.576.64 1.408 1.024 2.576 1.024 1.152 0 2.112-.368 2.736-1.024.608-.624.944-1.488.944-2.496 0-1.056-.32-1.856-.832-2.416-.672-.72-1.664-1.056-2.608-1.056-1.584 0-2.528.608-3.168 1.216.176-1.024.64-1.904 1.44-2.496 1.136-.816 2.592-.8 3.392-1.408.368-.288.56-.704.56-1.264zm3.464 7.216c0-.848.304-1.616.8-2.176a3.05 3.05 0 012.272-.976c.928 0 1.728.368 2.288.976.496.56.784 1.328.784 2.176 0 .848-.288 1.6-.784 2.16-.56.608-1.36.992-2.288.992a3.064 3.064 0 01-2.272-.992 3.232 3.232 0 01-.8-2.16zm-.688 0c0 1.024.384 1.952 1.024 2.608.672.704 1.632 1.12 2.736 1.12 1.12 0 2.08-.416 2.752-1.12.64-.656 1.024-1.584 1.024-2.608 0-1.04-.384-1.968-1.024-2.624-.672-.688-1.632-1.12-2.752-1.12-1.104 0-2.064.432-2.736 1.12-.64.656-1.024 1.584-1.024 2.624zm8.566-3.6a.11.11 0 00-.112.112v.384a.11.11 0 00.111.112h2.928v6.448c0 .064.049.112.097.112h.48a.11.11 0 00.111-.112V21.44h2.928c.049 0 .097-.048.097-.112v-.384c0-.064-.048-.112-.096-.112h-6.544zm13.015 0c-.112 0-.16.032-.224.112l-2.896 3.152h-1.2v-3.152c0-.064-.048-.112-.096-.112h-.48a.11.11 0 00-.112.112v6.944a.11.11 0 00.112.112h.48c.048 0 .096-.048.096-.112v-3.184h1.232l2.944 3.184c.064.08.112.112.208.112h.576c.096 0 .128-.08.048-.176l-3.184-3.456 3.088-3.344c.112-.112.064-.192-.048-.192h-.544zm4.864.416c.543 0 1.135.112 1.52.576.303.352.448.816.448 1.6v.272c-1.009.048-2.369.128-3.425.496-.911.336-1.535.896-1.535 1.904 0 .752.335 1.264.847 1.584.512.336 1.2.48 1.825.48.864 0 1.52-.144 2.288-.576h.063v.304a.11.11 0 00.113.112h.416c.047 0 .111-.048.111-.112v-4.464c0-.944-.24-1.552-.591-1.984-.528-.624-1.344-.752-2.016-.752-.912 0-1.825.224-2.64.72-.064.048-.096.096-.064.176l.16.304c.032.08.08.08.175.032.64-.368 1.36-.672 2.305-.672zm-.145 6.352c-.528 0-1.072-.096-1.472-.352-.431-.24-.72-.624-.72-1.2 0-.816.609-1.248 1.424-1.488.896-.272 2.112-.336 2.88-.336v2.816c-.64.384-1.328.56-2.112.56zm14.252-3.968c.048 0 .112-.064.112-.112v-.448c0-.064-.064-.112-.112-.112h-4.816a.11.11 0 00-.112.112v.448c0 .048.048.112.112.112h4.816z" fill="#000"/><path d="M108.32 2.04H97.082v27.85h11.31c9.509 0 15.633-5.486 15.633-13.943-.036-8.458-6.16-13.907-15.705-13.907zm-.288 22.258h-5.007V8.02h5.079c5.871 0 9.977 2.265 9.977 7.962 0 4.565-3.746 8.316-10.049 8.316z" fill="#323C8D"/><path d="M109.184 12.656h-1.296v6.617h1.296c2.558 0 4.071-1.521 4.071-3.397-.036-2.3-1.693-3.22-4.071-3.22z" fill="#323C8D"/></svg>