<svg width="9" height="9" viewBox="0 0 9 9" fill="none" xmlns="http://www.w3.org/2000/svg">
<path d="M8.60698 0.585798C8.20085 0.367115 7.74787 0.788861 7.48232 1.03878C6.87316 1.63235 6.35769 2.31964 5.77972 2.94445C5.13929 3.63174 4.54572 4.31903 3.88967 4.99072C3.51479 5.36561 3.10866 5.77173 2.85874 6.24034C2.29641 5.69361 1.81219 5.10004 1.18738 4.61584C0.73439 4.27219 -0.01538 4.02227 0.000240226 4.85014C0.0314807 5.92796 0.984314 7.08386 1.68722 7.81798C1.98401 8.13039 2.37451 8.45841 2.8275 8.47403C3.37421 8.50527 3.93653 7.84922 4.26456 7.48996C4.84253 6.86515 5.31114 6.16221 5.8422 5.52181C6.52949 4.67832 7.2324 3.85042 7.90407 2.99131C8.32582 2.46022 9.65353 1.1481 8.60698 0.585798Z" fill="#323C8D"/>
</svg>
