<svg width="174" height="40" fill="none" xmlns="http://www.w3.org/2000/svg"><path fill-rule="evenodd" clip-rule="evenodd" d="M170.153 18.997v-2.105h1.084c.201 0 .354.017.461.053a.482.482 0 01.258.19.588.588 0 01.097.34.58.58 0 01-.075.301.577.577 0 01-.206.207.775.775 0 01-.229.083.655.655 0 01.17.078.697.697 0 01.103.111.965.965 0 01.092.132l.318.61h-.736l-.348-.644a.47.47 0 00-.118-.162.27.27 0 00-.158-.05h-.058v.856h-.655zm.655-1.252h.272c.03 0 .087-.01.172-.029a.179.179 0 00.104-.067.196.196 0 00.04-.122.195.195 0 00-.063-.156c-.043-.037-.123-.055-.24-.055h-.285v.43zm.234-1.745c-.584 0-1.051.204-1.459.585-.379.407-.583.874-.583 1.43 0 .582.204 1.048.583 1.43.408.406.875.581 1.459.581.555 0 1.021-.175 1.43-.581.378-.382.583-.848.583-1.43 0-.556-.205-1.023-.583-1.43-.409-.38-.875-.585-1.43-.585zm-.001.165a1.88 1.88 0 00-1.34.537c-.348.373-.535.803-.535 1.313 0 .535.187.962.535 1.312.375.373.804.534 1.34.534.509 0 .937-.16 1.312-.534a1.78 1.78 0 00.536-1.312c0-.51-.188-.94-.536-1.313-.375-.35-.803-.537-1.312-.537z" fill="#323C8D"/><path d="M20 40c-5.206 0-9.683-1.748-13.46-5.178a3.13 3.13 0 00-.318-.35 3.675 3.675 0 01-.38-.35C1.936 30.215 0 25.512 0 19.985 0 14.456 1.936 9.722 5.842 5.847 9.715 1.938 14.446 0 20 0c5.49 0 10.222 1.938 14.127 5.847l.348.348c.128.128.225.254.318.35 3.461 3.782 5.175 8.228 5.207 13.44-.032 5.527-1.97 10.23-5.873 14.137-1.778 1.78-3.683 3.145-5.778 4.098a18.859 18.859 0 01-4.826 1.492c-.509.065-1.016.162-1.587.192-.635.064-1.27.096-1.936.096zm17.237-28.593c-10.253 6.1-15.586 15.345-15.969 27.768a5.13 5.13 0 01.732-.063 18.949 18.949 0 005.65-1.433c0-9.975 3.525-17.95 10.604-23.86a22.962 22.962 0 00-.604-1.555c-.157-.286-.285-.572-.413-.857zm-8.56-8.59C16.508 8.113 7.874 19.888 5.334 32.407c.19.222.412.475.668.73.157.159.347.35.538.573.095.095.223.19.317.284 2 1.94 4.287 3.337 6.826 4.194-1.365-13.63 4.328-24.272 15.313-32.533.063-.063 1.948-1.27 2.01-1.302l-2.327-1.536zm-.065 6.935c-.742 0-1.37.284-1.882.796a2.714 2.714 0 00-.826 1.97c0 .762.285 1.43.826 2.001.126.129.254.223.382.319.475.317.983.476 1.618.507.762 0 1.428-.285 1.968-.826a2.81 2.81 0 00.794-2c0-.605-.158-1.146-.475-1.59-.096-.127-.224-.254-.319-.381-.513-.512-1.14-.796-1.855-.796-.037 0-.075 0-.113.002a3.03 3.03 0 00-.118-.002zM12.255 5.56c-.954 0-1.748.35-2.414 1.048-.7.668-1.047 1.462-1.047 2.447 0 .954.348 1.78 1.047 2.446.097.129.221.222.35.35.601.445 1.268.667 2.064.667a3.43 3.43 0 002.476-1.017 3.359 3.359 0 001.015-2.446c0-.794-.22-1.492-.7-2.097a1.638 1.638 0 00-.315-.35 3.338 3.338 0 00-2.476-1.048z" fill="#A71C60"/><path d="M138.347 24.076c-.142.363-.339.412-.67.412l-5.078-.007-.596 2.58 4.192.006c.438 0 .529.047.419.54l-.681 2.96c-.102.436-.225.518-.673.518l-4.185-.006-.697 3.007 5.449.011c.49 0 .499.079.393.515l-.685 2.992c-.115.484-.152.533-.647.533l-9.947-.012c-.49 0-.536-.049-.424-.535l3.835-16.614c.107-.441.171-.518.664-.516l10.162.012c.385 0 .473.077.424.286-.008.071-.077.203-.125.332l-1.13 2.986zm-38.045 13.708c-.048.24-.197.308-.59.308l-4.394-.007c-.44 0-.46-.023-.472-.43l-.147-3.688-3.406-.004-1.914 3.682c-.229.41-.236.433-.649.433l-4.058-.006c-.418 0-.528-.1-.489-.252.021-.107.105-.234.186-.365l9.272-16.604c.198-.387.234-.436.68-.436l3.872.003c.422 0 .446.028.503.441l1.637 16.618c-.008.127-.006.23-.031.307zm-5.35-10.307c.036-.723.136-2.165.211-2.94-.29.822-.79 2.188-1.124 2.94l-1.37 3.007 2.108.005.175-3.012zM58.716 37.974l-3.94-.004c-.487 0-.499-.057-.377-.544l1.611-6.456-3.343-.002-1.605 6.457c-.124.486-.245.54-.685.54l-3.932-.008c-.487 0-.504-.054-.38-.538l4.14-16.59c.119-.436.158-.518.65-.518l3.933.008c.434 0 .522.079.411.518l-1.514 6.067 3.345.004 1.518-6.067c.103-.438.152-.517.637-.517l3.94.003c.487.005.522.084.405.52l-4.142 16.585c-.121.49-.182.542-.672.542zm7.921-5.56c-.128-.133-.603-.902-.746-2.101-.082-.442-1.293-9.204-1.293-9.204-.021-.232-.049-.336-.021-.438.045-.181.223-.283.823-.308l3.73-.203c.153 0 .29-.022.399-.022.205 0 .31.08.33.513l.086 4.886c.02.85.025 1.546.01 3.68h.132c1.11-2.392 1.523-3.213 1.81-3.858l2.118-4.652c.211-.435.322-.564.598-.563l3.886.21c.275.027.524.078.468.308-.022.076-.065.157-.214.436l-6.131 11.778c-2.572 4.906-4.816 5.547-7.098 5.544-1.78-.002-2.782-.517-3.122-.699-.5-.285-.591-.414-.553-.565a.646.646 0 01.103-.205l1.665-2.851.178-.105c.21.005.983.937 2.193.937 1.13.002 1.615-.338 1.994-1.393-.914-.504-1.284-1.058-1.345-1.125zm23.394-8.447c-.15.41-.286.41-.675.41l-5.008-.004-3.272 13.09c-.125.486-.243.538-.677.538l-3.91-.003c-.49-.002-.525-.056-.406-.543l4.15-16.586c.118-.495.178-.519.662-.518l10.04.012c.386.004.464.08.412.286-.013.08-.07.202-.131.335l-1.185 2.983zm25.818 10.351h.794c1.108 0 2.422-.203 2.841-1.899.358-1.416-.5-1.883-1.531-1.883l-1.165-.002-.939 3.784zm1.794-7.177l1.929.001c1.184.003 3.081.134 4.114 1.369.942 1.162.768 2.781.479 3.936-1.296 5.198-5.621 5.605-7.936 5.6l-5.635-.006c-.459-.002-.443-.286-.386-.517l4.155-16.61c.116-.468.408-.518.644-.518l10.517.015c.311 0 .355.13.324.26-.028.102-.102.203-.121.283l-1.334 3.057c-.168.362-.487.41-.694.41l-5.375-.005-.681 2.725zm31.35 9.48c-.259 1.026-3.842 1.899-5.445 1.898-4.988-.008-6.447-3.638-4.998-9.446.766-3.062 1.871-5.298 3.881-6.97 1.661-1.386 3.607-2.105 5.593-2.103 1.62.007 3.423.624 4.358 1.631.165.15.236.285.189.464-.018.075-.06.127-.108.23l-1.965 2.954c-.124.15-.244.209-.344.209-.077 0-.128-.03-.189-.058-.732-.38-1.621-1.335-2.835-1.335-1.183-.004-2.543 1-3.402 4.464-1.149 4.582-.234 5.87 1.176 5.871 1.622.002 3.168-1.227 3.398-1.227.078 0 .139.074.173.23l.534 2.932a.446.446 0 01-.016.256zm17.127-12.34c-.156.361-.249.438-.648.438l-3.743-.007-2.97 12.855c-.116.489-.155.544-.64.54l-3.988-.004c-.504-.003-.536-.055-.42-.542l2.963-12.853-3.36-.005c-.497-.003-.54-.053-.423-.54l.745-3.218c.103-.44.177-.519.663-.519l12.242.016c.312 0 .428.053.433.191v.024l-.013.093c-.018.08-.045.181-.097.31l-.744 3.22z" fill="#323C8D"/><path fill-rule="evenodd" clip-rule="evenodd" d="M55.45 12.254h1.16V3h-1.16l-4.29 7.298V3H50v9.254h1.16l4.29-7.298v7.298zm8.377-2.266l-.97-.175c-.176.93-.675 1.672-1.7 1.672-1.43 0-1.768-1.618-1.768-2.725 0-1.146.405-2.644 1.835-2.644.985 0 1.538.756 1.632 1.66l.971-.176c-.229-1.416-1.146-2.374-2.63-2.374-2.037 0-2.928 1.821-2.928 3.602 0 1.794.877 3.561 2.914 3.561 1.47 0 2.402-1.012 2.644-2.401zm2.442 2.266V6.238h3.319v6.016h1.052V5.401h-5.423v6.853h1.052zm5.841-3.48c0 1.807.918 3.615 2.968 3.615 2.078 0 3.184-1.686 3.184-3.602 0-1.807-.999-3.561-3.008-3.561-2.065 0-3.144 1.646-3.144 3.548zm4.64 1.754c-.323.62-.876.984-1.577.984a1.729 1.729 0 01-1.498-.863c-.297-.54-.391-1.255-.391-1.875 0-.553.08-1.214.337-1.713.297-.594.89-.972 1.552-.972.593 0 1.16.31 1.483.81.351.553.432 1.227.432 1.875 0 .593-.054 1.214-.337 1.754zM81.298 5.4l-2.496 6.853h.945l2.01-5.571 1.78 5.571h1.174L82.404 5.4h-1.106zm5.477 3.44h1.039c.701 0 1.106.108 1.43.284.27.148.566.35.566 1.011 0 .81-.634 1.282-1.672 1.282h-1.363V8.84zm2.968-.526c-.378-.175-1.174-.31-1.93-.31h-1.038V5.4h-1.052v6.853h2.374c.93 0 1.43-.148 1.997-.512.526-.338.85-.702.85-1.592 0-1.174-.756-1.633-1.201-1.835zm6.246.324v-.027A1.548 1.548 0 0097.256 7.1c0-1.268-1.214-1.875-2.469-1.875-1.187 0-2.24.526-2.657 1.592l.903.324c.23-.608.972-1.08 1.687-1.08.984 0 1.416.297 1.416 1.08 0 .404-.256.755-.553.93-.337.203-.769.243-1.16.243h-.459v.756h.459c.499 0 1.08.094 1.43.27.297.148.58.552.58.984 0 .594-.526 1.214-1.686 1.214-.999 0-1.7-.485-1.983-1.187l-.918.337c.432 1.147 1.592 1.7 2.86 1.7.715 0 1.43-.148 1.997-.526.526-.35.85-.917.85-1.524 0-.958-.621-1.579-1.565-1.7zm5.207 4.252l2.685-7.49h-.891l-1.875 5.147L99.279 5.4h-1.092l2.374 6.723c-.283.807-.472 1.682-1.538 1.682-.23 0-.472-.04-.701-.095v.85c.256.068.512.121.782.121.607 0 .971-.08 1.389-.526.365-.39.527-.766.702-1.266zM109.532 3h-1.012c-.229.647-.661.742-1.066.742-.418 0-.917-.081-1.092-.742h-1.012c.324 1.214 1.146 1.47 2.104 1.47.958 0 1.835-.337 2.078-1.47zm-3.737 9.254l3.278-5.234h.041v5.234h1.052V5.401h-1.052l-3.279 5.234h-.04V5.401h-1.052v6.853h1.052zm13.18-8.013l2.469 8.013h1.187L119.757 3h-1.335l-3.13 9.254h.971l2.712-8.013zm6.934 5.72c-.324.742-.634 1.457-1.592 1.457-.229 0-.364-.04-.594-.095v.85c.095.04.432.122.702.122.607 0 .971-.081 1.43-.526.405-.392.593-.77.809-1.268L130.01 3h-.985l-2.482 5.544L124.088 3h-1.241l3.062 6.96zm10.306-2.712c-.108.081-1.106.284-1.834.284-.634 0-1.457-.216-1.835-.77-.337-.485-.351-1.24-.351-1.793V3h-1.16v1.97c0 .957.054 1.888.729 2.644.62.701 1.578.877 2.482.877.998 0 1.794-.203 1.969-.31v4.073h1.16V3h-1.16v4.25zm3.454 5.005h11.116V3h-1.161v8.242h-3.817V3h-1.16v8.242h-3.818V3h-1.16v9.254zm19.466 0v-.998h-4.829V7.87h3.723v-.93h-3.723V3.997H159V3h-5.855v9.254h5.99zm7.554 0v-.998h-4.829V7.87h3.723v-.93h-3.723V3.997h4.695V3H160.7v9.254h5.989z" fill="#2B2A29"/></svg>