<svg width="33" height="33" fill="none" xmlns="http://www.w3.org/2000/svg"><path d="M19.658 16.5a3.158 3.158 0 11-6.316 0 3.158 3.158 0 016.316 0z" fill="#000"/><path d="M19.658 16.5a3.158 3.158 0 11-6.316 0 3.158 3.158 0 016.316 0z" fill="url(#paint0_linear)"/><path d="M23.886 10.912a2.937 2.937 0 00-.709-1.089 2.933 2.933 0 00-1.09-.709c-.333-.13-.835-.284-1.758-.326-1-.045-1.3-.055-3.829-.055-2.53 0-2.83.01-3.829.055-.923.042-1.425.197-1.759.326a2.931 2.931 0 00-1.09.71 2.937 2.937 0 00-.708 1.088c-.13.334-.284.836-.326 1.76-.046.999-.056 1.298-.056 3.828s.01 2.83.056 3.83c.042.923.196 1.425.326 1.758.152.412.394.784.709 1.09a2.92 2.92 0 001.089.708c.334.13.836.285 1.76.327.998.045 1.298.055 3.828.055s2.83-.01 3.828-.055c.924-.042 1.426-.197 1.76-.327a3.138 3.138 0 001.798-1.798c.13-.334.284-.835.326-1.759.046-1 .055-1.299.055-3.829 0-2.53-.01-2.83-.055-3.828-.042-.924-.196-1.426-.326-1.76zM16.5 21.367a4.865 4.865 0 110-9.73 4.865 4.865 0 010 9.73zm5.058-8.786a1.137 1.137 0 110-2.274 1.137 1.137 0 010 2.274z" fill="#000"/><path d="M23.886 10.912a2.937 2.937 0 00-.709-1.089 2.933 2.933 0 00-1.09-.709c-.333-.13-.835-.284-1.758-.326-1-.045-1.3-.055-3.829-.055-2.53 0-2.83.01-3.829.055-.923.042-1.425.197-1.759.326a2.931 2.931 0 00-1.09.71 2.937 2.937 0 00-.708 1.088c-.13.334-.284.836-.326 1.76-.046.999-.056 1.298-.056 3.828s.01 2.83.056 3.83c.042.923.196 1.425.326 1.758.152.412.394.784.709 1.09a2.92 2.92 0 001.089.708c.334.13.836.285 1.76.327.998.045 1.298.055 3.828.055s2.83-.01 3.828-.055c.924-.042 1.426-.197 1.76-.327a3.138 3.138 0 001.798-1.798c.13-.334.284-.835.326-1.759.046-1 .055-1.299.055-3.829 0-2.53-.01-2.83-.055-3.828-.042-.924-.196-1.426-.326-1.76zM16.5 21.367a4.865 4.865 0 110-9.73 4.865 4.865 0 010 9.73zm5.058-8.786a1.137 1.137 0 110-2.274 1.137 1.137 0 010 2.274z" fill="url(#paint1_linear)"/><path d="M16.5 0C7.389 0 0 7.389 0 16.5S7.389 33 16.5 33 33 25.611 33 16.5 25.611 0 16.5 0zm9.418 20.406c-.046 1.009-.207 1.697-.44 2.3a4.845 4.845 0 01-2.772 2.771c-.602.234-1.291.394-2.3.44-1.01.046-1.333.058-3.906.058-2.573 0-2.896-.012-3.906-.058-1.009-.046-1.697-.206-2.3-.44a4.642 4.642 0 01-1.678-1.093 4.644 4.644 0 01-1.093-1.678c-.234-.602-.394-1.291-.44-2.3-.047-1.01-.058-1.333-.058-3.906 0-2.573.011-2.896.058-3.906.045-1.009.205-1.697.44-2.3a4.641 4.641 0 011.093-1.678 4.64 4.64 0 011.678-1.093c.603-.234 1.291-.394 2.3-.44 1.01-.047 1.333-.058 3.906-.058 2.573 0 2.896.011 3.906.058 1.009.046 1.697.206 2.3.44a4.644 4.644 0 011.678 1.093 4.642 4.642 0 011.093 1.678c.235.603.395 1.291.44 2.3.047 1.01.058 1.333.058 3.906 0 2.573-.011 2.896-.058 3.906z" fill="#000"/><path d="M16.5 0C7.389 0 0 7.389 0 16.5S7.389 33 16.5 33 33 25.611 33 16.5 25.611 0 16.5 0zm9.418 20.406c-.046 1.009-.207 1.697-.44 2.3a4.845 4.845 0 01-2.772 2.771c-.602.234-1.291.394-2.3.44-1.01.046-1.333.058-3.906.058-2.573 0-2.896-.012-3.906-.058-1.009-.046-1.697-.206-2.3-.44a4.642 4.642 0 01-1.678-1.093 4.644 4.644 0 01-1.093-1.678c-.234-.602-.394-1.291-.44-2.3-.047-1.01-.058-1.333-.058-3.906 0-2.573.011-2.896.058-3.906.045-1.009.205-1.697.44-2.3a4.641 4.641 0 011.093-1.678 4.64 4.64 0 011.678-1.093c.603-.234 1.291-.394 2.3-.44 1.01-.047 1.333-.058 3.906-.058 2.573 0 2.896.011 3.906.058 1.009.046 1.697.206 2.3.44a4.644 4.644 0 011.678 1.093 4.642 4.642 0 011.093 1.678c.235.603.395 1.291.44 2.3.047 1.01.058 1.333.058 3.906 0 2.573-.011 2.896-.058 3.906z" fill="url(#paint2_linear)"/><defs><linearGradient id="paint0_linear" x1="16.5" y1="13.342" x2="16.5" y2="19.658" gradientUnits="userSpaceOnUse"><stop stop-color="#FAD905"/><stop offset=".521" stop-color="#F04777"/><stop offset=".745" stop-color="#BB229F"/><stop offset="1" stop-color="#7A1CC8"/></linearGradient><linearGradient id="paint1_linear" x1="16.5" y1="8.733" x2="16.5" y2="24.268" gradientUnits="userSpaceOnUse"><stop stop-color="#FAD905"/><stop offset=".521" stop-color="#F04777"/><stop offset=".745" stop-color="#BB229F"/><stop offset="1" stop-color="#7A1CC8"/></linearGradient><linearGradient id="paint2_linear" x1="16.5" y1="0" x2="16.5" y2="33" gradientUnits="userSpaceOnUse"><stop stop-color="#FAD905"/><stop offset=".521" stop-color="#F04777"/><stop offset=".745" stop-color="#BB229F"/><stop offset="1" stop-color="#7A1CC8"/></linearGradient></defs></svg>