<svg width="33" height="33" fill="none" xmlns="http://www.w3.org/2000/svg"><path d="M16.5 33C25.613 33 33 25.613 33 16.5S25.613 0 16.5 0 0 7.387 0 16.5 7.387 33 16.5 33z" fill="#4D76A1"/><path fill-rule="evenodd" clip-rule="evenodd" d="M15.877 23.737h1.295s.391-.043.59-.258c.185-.198.179-.57.179-.57s-.026-1.737.78-1.993c.796-.252 1.817 1.68 2.899 2.422.818.563 1.44.44 1.44.44l2.893-.041s1.514-.093.796-1.283c-.058-.098-.418-.88-2.151-2.49-1.814-1.683-1.571-1.411.614-4.324 1.331-1.774 1.863-2.857 1.697-3.32-.159-.442-1.137-.325-1.137-.325l-3.258.02s-.242-.033-.42.074c-.176.105-.288.35-.288.35s-.516 1.372-1.204 2.54c-1.45 2.463-2.03 2.593-2.267 2.44-.552-.356-.414-1.432-.414-2.196 0-2.387.362-3.383-.705-3.64-.354-.086-.615-.142-1.52-.152-1.163-.011-2.147.004-2.704.277-.37.181-.657.586-.482.61.215.028.703.13.961.483.334.454.322 1.474.322 1.474s.192 2.81-.448 3.16c-.439.239-1.041-.25-2.335-2.485-.662-1.145-1.162-2.41-1.162-2.41s-.097-.237-.269-.363c-.209-.153-.5-.202-.5-.202l-3.096.02s-.465.013-.636.215c-.151.18-.012.552-.012.552s2.424 5.67 5.168 8.527c2.516 2.62 5.374 2.448 5.374 2.448z" fill="#fff"/></svg>