<svg width="33" height="33" fill="none" xmlns="http://www.w3.org/2000/svg"><path d="M16.5 0C25.613 0 33 7.388 33 16.5S25.613 33 16.5 33 0 25.612 0 16.5 7.387 0 16.5 0z" fill="#C4302B"/><path d="M16.102 13.407c.522 0 .93-.166 1.23-.402.296-.237.445-.56.445-.974V9.529a1.1 1.1 0 00-.454-.907c-.304-.234-.693-.35-1.17-.35-.52 0-.937.11-1.245.332-.31.223-.464.52-.464.896v2.51c0 .412.15.738.451.983.302.244.705.414 1.207.414zm-.545-3.785c0-.095.05-.171.147-.232a.744.744 0 01.384-.088.84.84 0 01.413.088c.105.06.157.137.157.232V12c0 .117-.052.21-.155.277a.762.762 0 01-.415.1c-.17 0-.302-.032-.394-.099a.323.323 0 01-.137-.278V9.622zm3.998 3.782c.183 0 .37-.105.564-.21.196-.107.382-.264.562-.468v.556h.974V8.265h-.974v3.808c-.09.108-.192.198-.3.27a.549.549 0 01-.272.105c-.092 0-.16-.025-.198-.08-.042-.053-.064-.138-.064-.256V8.266h-.973v4.192c0 .299.059.523.171.671.115.15.284.275.51.275zm2.834 2.074H10.612c-1.873 0-3.39 1.46-3.39 3.257v2.753c0 1.799 1.517 3.258 3.39 3.258h11.777c1.871 0 3.39-1.459 3.39-3.258v-2.753c0-1.798-1.519-3.257-3.39-3.257zm-10.025 2.795h-1.042v4.313h-1.007v-4.313H9.273v-.735h3.09v.735zm3.108 4.372h-1.086v-.447a2.32 2.32 0 01-.628.376 1.648 1.648 0 01-.63.131c-.252 0-.44-.06-.567-.183-.126-.12-.19-.302-.19-.545v-3.405h1.085v3.124c0 .097.023.165.066.208.047.044.123.064.224.064a.749.749 0 00.303-.086 1.38 1.38 0 00.337-.218V18.57h1.086v4.074zm4.11-.775c0 .267-.084.47-.252.614-.166.143-.412.213-.728.213-.212 0-.4-.027-.562-.081a1.415 1.415 0 01-.46-.256v.288h-1.083v-5.11h1.084v1.647c.146-.114.3-.202.46-.262.164-.061.329-.09.495-.09.339 0 .598.08.776.24.18.16.27.396.27.705v2.092zm4.132-1.15h-2v.736c0 .206.032.348.101.428.07.08.189.119.355.119.175 0 .295-.034.365-.101.068-.068.105-.216.105-.447v-.177h1.076v.2c0 .4-.129.701-.395.904-.262.202-.654.304-1.175.304-.469 0-.838-.108-1.107-.322-.268-.213-.405-.51-.405-.885v-1.755c0-.337.149-.616.446-.83.296-.212.676-.318 1.145-.318.478 0 .846.1 1.104.296.257.197.385.482.385.85v.998zm-11.934-7.3h1.23v-3l1.433-4.228h-1.251l-.761 2.89h-.079l-.798-2.89h-1.24l1.466 4.363v2.863zm6.25 6.012l-.229.037-.221.115v2.349c.087.06.172.107.255.133l.258.04c.132 0 .228-.026.29-.08.061-.053.093-.14.093-.258V19.82c0-.13-.036-.225-.112-.29a.509.509 0 00-.335-.098z" fill="#fff"/><path d="M22.228 19.26c-.168 0-.286.035-.36.107-.071.07-.106.187-.106.35v.395h.924v-.394c0-.164-.038-.28-.11-.351-.071-.072-.19-.107-.348-.107z" fill="#fff"/></svg>