<svg width="289" height="347" fill="none" xmlns="http://www.w3.org/2000/svg"><mask id="a" maskUnits="userSpaceOnUse" x="0" y="0" width="289" height="347"><path fill="#fff" stroke="#E5E5E5" d="M.5.5h288v346H.5z"/></mask><g mask="url(#a)" fill="#323C8D" fill-opacity=".03"><circle cx="68" cy="23.662" r="42.462"/><circle cx="248.462" cy="66.124" r="31.846"/><path d="M83.923 331.508c-46.708-16.985-76.077-46-84.923-58.385C41.462 77.8 183-17.031 248.462-40.031l21.23 15.923C91.354 90.538 71.538 260.74 83.923 331.508zm148.616-5.308c-29.724 12.738-54.847 15.923-63.693 15.923C164.6 180.769 276.769 80.277 333.385 50.2L344 76.738C250.585 140.43 230.769 269.584 232.539 326.2z"/></g></svg>